<?xml version="1.0" encoding="utf-8"?>
<!-- Generator: Adobe Illustrator 16.0.0, SVG Export Plug-In . SVG Version: 6.00 Build 0)  -->
<!DOCTYPE svg PUBLIC "-//W3C//DTD SVG 1.1//EN" "http://www.w3.org/Graphics/SVG/1.1/DTD/svg11.dtd">
<svg version="1.1" id="Layer_1" xmlns="http://www.w3.org/2000/svg" xmlns:xlink="http://www.w3.org/1999/xlink" x="0px" y="0px"
	 width="612px" height="379.381px" viewBox="0 0 612 379.381" enable-background="new 0 0 612 379.381" xml:space="preserve">
<g>
	<path fill-rule="evenodd" clip-rule="evenodd" fill="#FFFFFF" d="M424.015,333.667c-11.102-2.237-21.167-4.181-31.194-6.298
		c-84.492-17.834-159.046-56.993-228.176-107.329c-15.018-10.935-28.176-24.408-42.309-36.578
		c-28.521-24.561-51.073-54.186-72.293-84.944C34.97,76.672,22.138,53.671,14.528,28.068C11.924,19.306,10.553,10.383,12.463,0
		c4.416,7.016,7.795,13.497,12.212,19.169c9.176,11.784,18.454,23.548,28.493,34.59c23.183,25.499,46.228,51.178,70.555,75.56
		c13.437,13.469,29.327,24.494,44.148,36.576c30.721,25.042,62.194,49.116,96.744,68.663c15.411,8.72,31.928,15.499,48.009,23.017
		c34.608,16.178,71.593,25.253,108.053,35.866c5.066,1.475,10.407,1.99,15.581,3.128c2.616,0.575,5.145,1.549,8.845,2.69
		c-14.236,9.206-28.244,13.531-43.263,8.502c-21.212-7.104-42.521-14.265-62.936-23.321c-31.846-14.129-63.362-29.134-94.248-45.242
		c-14.907-7.775-28.139-18.804-41.966-28.589c-4.658-3.297-9.125-6.598-16.479-6.829c2.6,2.64,4.384,4.594,6.315,6.389
		c23.12,21.486,49.231,38.832,77.872,51.631c43.169,19.292,87.03,37.03,130.645,55.318c3.8,1.593,7.965,2.295,11.923,3.532
		C418.646,322.425,422.189,326.241,424.015,333.667z"/>
	<path fill-rule="evenodd" clip-rule="evenodd" fill="#FFFFFF" d="M344.135,261.414c20.006-11.609,38.941-22.357,57.591-33.578
		c5.183-3.118,9.622-7.524,14.188-11.581c1.397-1.243,2.082-3.288,3.095-4.965c-0.263-0.467-0.525-0.934-0.788-1.4
		c-3.961,1.642-8.16,2.872-11.845,4.994c-18.722,10.781-37.305,21.8-55.947,32.718c-2.725,1.596-5.468,3.167-8.271,4.618
		c-9.867,5.109-17.67,3.974-26.795-4.129c6.085-2.945,11.86-6.102,17.906-8.606c32.825-13.604,62.493-32.576,90.629-53.938
		c27.828-21.129,55.732-42.254,82.295-64.917c13.942-11.895,25.492-26.73,37.394-40.852c20.062-23.802,39.542-48.092,59.278-72.167
		c0.171-0.208,0.503-0.284,1.15-0.631c0.945,8.012-1.526,15.282-3.725,22.498C595.29,45.9,588.5,61.501,579.461,76.212
		c-7.037,11.453-12.622,23.793-19.533,35.33c-10.583,17.665-23.662,33.441-38.961,47.237c-20.279,18.286-39.85,37.546-61.476,54.101
		c-26.375,20.189-54.156,38.644-83.721,54.119c-4.492,2.351-8.761,3.039-13.72,0.751
		C356.688,265.278,350.889,263.75,344.135,261.414z"/>
	<path fill-rule="evenodd" clip-rule="evenodd" fill="#FFFFFF" d="M507.408,271.31c-12.512,2.305-19.165,11.166-25.092,20.8
		c-6.96,11.315-13.561,22.774-23.28,32.232c-2.753,2.679-3.572,8.189-3.796,12.479c-1.305,25.048-22.758,37.89-42.827,41.774
		c-8.158,1.579-16.017,1.013-22.897-3.886c-2.364-1.683-4.411-4.486-5.441-7.216c-1.925-5.099,1.881-9.424,7.289-8.666
		c2.77,0.388,5.5,1.255,8.168,2.146c9.71,3.248,20.695-0.252,28.459-9.179c7.315-8.412,8.349-16.469,3.395-26.644
		c-1.224-2.512-2.499-4.997-3.895-7.781c3.903-1.679,7.573-3.068,11.075-4.799c11.701-5.786,19.832-14.8,24.322-27.121
		c1.925-5.286,3.692-10.714,6.361-15.627c4.646-8.552,14.142-13.445,22.174-12.229C497.347,258.493,501.205,261.71,507.408,271.31z"
		/>
	<path fill-rule="evenodd" clip-rule="evenodd" fill="#FFFFFF" d="M175.038,308.278c-1.143,4.158-1.796,8.152-3.33,11.775
		c-2.868,6.774-0.978,12.726,2.541,18.397c1.912,3.083,4.372,5.851,6.752,8.614c5.29,6.144,12.009,7.914,19.818,6.245
		c2.271-0.485,4.594-0.713,6.889-1.091c3.707-0.611,7.133-0.284,8.9,3.588c1.859,4.074,1.141,7.845-2.293,10.839
		c-6.82,5.946-15.176,7.39-23.456,5.594c-16.539-3.588-36.758-16.999-41.244-38.972c-0.266-1.3-0.714-2.672-0.541-3.935
		c1.286-9.344-3.859-15.411-9.737-21.773c-5.203-5.632-9.835-12.165-13.205-19.043c-9.237-18.859-9.772-19.926-27.841-29.506
		c3.122-7.387,8.188-12.458,16.407-13.562c8.458-1.135,14.141,2.332,17.141,10.275c0.875,2.318,1.713,4.717,2.072,7.153
		c2.898,19.643,15.26,31.865,31.807,40.827C168.622,305.279,171.648,306.625,175.038,308.278z"/>
	<path fill-rule="evenodd" clip-rule="evenodd" fill="#FFFFFF" d="M289.586,302.466c-35.929,12.137-72.385,21.883-110.949,24.296
		c0.166-5.068,2.389-8.488,6.027-10.573c3.985-2.281,8.255-4.308,12.649-5.596c22.083-6.471,44.232-12.721,66.411-18.856
		c1.941-0.537,4.47-0.163,6.382,0.623c6.564,2.698,12.976,5.77,19.447,8.697C289.564,301.527,289.575,301.997,289.586,302.466z"/>
	<path fill-rule="evenodd" clip-rule="evenodd" fill="#FFFFFF" d="M160.756,290.083c17.417-3.555,34.273-6.978,51.117-10.452
		c2.433-0.502,4.806-1.282,7.217-1.892c18.403-4.646,18.404-4.642,34.414,7.589c-1.14,0.524-2.031,1.076-3.001,1.359
		c-17.666,5.154-35.286,10.479-53.032,15.338c-12.807,3.507-23.817-1.358-34.018-8.668
		C162.468,292.651,161.848,291.434,160.756,290.083z"/>
	<path fill-rule="evenodd" clip-rule="evenodd" fill="#FFFFFF" d="M73.604,302.152c1.114-0.591,1.691-1.161,2.276-1.169
		c12.733-0.179,25.52-1.036,38.183-0.143c7.48,0.527,14.287,4.748,17.85,12.059c1.462,2.998,1.768,6.56,2.72,10.338
		c-10.286,0.455-19.696,0.94-29.11,1.26c-5.47,0.186-11.035,0.69-16.387-0.101c-2.78-0.411-6.113-2.773-7.58-5.223
		C78.363,313.846,76.207,307.898,73.604,302.152z"/>
	<path fill-rule="evenodd" clip-rule="evenodd" fill="#FFFFFF" d="M468.906,333.279c1.171-11.381,9.917-19.478,20.686-19.731
		c10.3-0.243,20.594-0.975,30.89-0.992c8.028-0.014,10.322,4.009,7.141,11.38c-4.705,10.901-8.07,13.087-19.799,12.525
		c-11.434-0.548-22.863-1.184-34.287-1.896C471.95,334.466,470.406,333.711,468.906,333.279z"/>
	<path fill-rule="evenodd" clip-rule="evenodd" fill="#FFFFFF" d="M72.292,296.202c-6.791,3.455-5.52,8.652-3.307,14.074
		c0.749,1.835,1.426,3.718,1.929,5.632c2.858,10.881-3.463,18.144-14.645,16.535c-8.164-1.174-13.689-5.999-15.795-13.947
		c-2.101-7.931-1.349-15.644,5.014-21.643C51.064,291.595,64.111,291.303,72.292,296.202z"/>
	<path fill-rule="evenodd" clip-rule="evenodd" fill="#FFFFFF" d="M538.678,313.701c-2.423-1.639-5.123-3.467-7.959-5.386
		c10.098-4.346,21.184-2.82,27.381,3.599c6.074,6.291,7.061,15.508,2.567,23.975c-3.949,7.443-11.467,11.04-20.072,9.604
		c-6.601-1.101-10.845-6.927-8.953-13.53C533.398,325.829,536.203,319.997,538.678,313.701z"/>
	<path fill-rule="evenodd" clip-rule="evenodd" fill="#FFFFFF" d="M536.369,353.179c-1.187,1.014-2.369,2.781-3.919,3.203
		c-4.004,1.088-12.717-6.732-12.46-10.971c0.048-0.798,0.752-1.88,1.451-2.223c0.646-0.317,1.9-0.098,2.526,0.369
		C527.911,346.497,531.754,349.571,536.369,353.179z"/>
	<path fill-rule="evenodd" clip-rule="evenodd" fill="#FFFFFF" d="M82.723,330.025c-0.502,7.479-7.396,13.215-17.222,12.571
		c5.306-4.64,10.612-9.278,15.918-13.916C81.853,329.128,82.288,329.577,82.723,330.025z"/>
</g>
</svg>
