<?xml version="1.0" encoding="utf-8"?>
<!-- Generator: Adobe Illustrator 16.0.0, SVG Export Plug-In . SVG Version: 6.00 Build 0)  -->
<!DOCTYPE svg PUBLIC "-//W3C//DTD SVG 1.1//EN" "http://www.w3.org/Graphics/SVG/1.1/DTD/svg11.dtd">
<svg version="1.1" id="Layer_1" xmlns="http://www.w3.org/2000/svg" xmlns:xlink="http://www.w3.org/1999/xlink" x="0px" y="0px"
	 width="175px" height="201px" viewBox="0 0 175 201" enable-background="new 0 0 175 201" xml:space="preserve">
<g>
	<polygon fill-rule="evenodd" clip-rule="evenodd" fill="#ED1C24" points="4.213,52.876 86.069,5.615 167.926,52.876 
		167.924,147.394 86.069,194.654 4.212,147.394 	"/>
	<path fill-rule="evenodd" clip-rule="evenodd" stroke="#000000" stroke-width="7" stroke-miterlimit="10" d="M87.338,196.444
		c-0.377-0.329-0.711-0.73-1.136-0.977c-7.666-4.446-15.343-8.873-23.018-13.305c-16.606-9.589-33.212-19.179-49.818-28.768
		c-2.658-1.535-5.314-3.074-7.981-4.595c-0.345-0.197-0.483-0.407-0.483-0.816c0.01-31.421,0.01-62.843,0-94.264
		c0-0.423,0.131-0.66,0.498-0.871c16.986-9.794,33.966-19.597,50.947-29.399c10.192-5.883,20.385-11.765,30.569-17.66
		c0.412-0.238,0.702-0.23,1.11,0.006c19.719,11.403,39.444,22.795,59.17,34.185c7.445,4.299,14.896,8.584,22.336,12.893
		c0.244,0.142,0.381,0.47,0.566,0.711c0,0.246,0,0.492,0,0.738c-0.027,0.281-0.082,0.562-0.082,0.842
		c-0.004,30.884-0.006,61.768,0,92.652c0,0.431-0.043,0.74-0.49,0.997c-10.342,5.946-20.672,11.913-31.004,17.878
		c-16.162,9.331-32.324,18.661-48.479,28.006c-0.897,0.519-1.722,1.162-2.581,1.747C87.42,196.444,87.379,196.444,87.338,196.444z
		 M29.791,135.363c38.918,0.063,77.709,0.125,116.647,0.188c-19.672-31.651-39.279-63.195-58.928-94.808
		C68.259,72.303,49.054,103.785,29.791,135.363z M167.555,54.807c-25.908-4.871-51.754-9.729-77.775-14.621
		c19.451,31.294,38.785,62.396,58.117,93.5c0.051-0.02,0.1-0.039,0.15-0.059C154.539,107.395,161.033,81.162,167.555,54.807z
		 M7.584,54.848c6.88,26.281,13.737,52.469,20.636,78.82c19.044-31.22,37.989-62.275,57.028-93.485
		C59.259,45.09,33.469,49.96,7.584,54.848z M30.751,137.708c-0.06,0.035-0.12,0.07-0.18,0.105c0.184,0.122,0.392,0.218,0.547,0.369
		c8.584,8.392,17.165,16.788,25.744,25.186c10.046,9.833,20.092,19.665,30.126,29.51c0.378,0.372,0.583,0.4,0.977,0.019
		c2.683-2.598,5.393-5.168,8.093-7.749c5.252-5.019,10.5-10.041,15.754-15.059c7.107-6.788,14.219-13.574,21.33-20.359
		c4.008-3.825,8.02-7.646,12.027-11.472c0.121-0.115,0.225-0.249,0.334-0.374c-0.018-0.059-0.037-0.117-0.057-0.176
		C107.217,137.708,68.983,137.708,30.751,137.708z M86.341,8.699C61.529,23.025,36.81,37.298,12.09,51.57
		c0.024,0.05,0.049,0.1,0.073,0.148c24.724-4.669,49.448-9.338,74.178-14.008C86.341,28.037,86.341,18.434,86.341,8.699z
		 M88.602,37.699c24.676,4.64,49.336,9.276,73.996,13.912c0.021-0.047,0.043-0.094,0.063-0.141
		c-24.668-14.242-49.334-28.484-74.059-42.759C88.602,18.428,88.602,28.028,88.602,37.699z M26.506,135.905
		C20.087,111.388,13.69,86.958,7.295,62.528c-0.037,0.012-0.074,0.022-0.111,0.034c0,27.789,0,55.578,0,83.461
		C13.667,142.629,20.071,139.274,26.506,135.905z M79.826,189.202c0.026-0.035,0.051-0.07,0.077-0.105
		c-0.132-0.144-0.258-0.294-0.396-0.43c-4.161-4.081-8.321-8.163-12.486-12.24c-8.813-8.628-17.63-17.253-26.445-25.879
		c-4.195-4.104-8.392-8.208-12.581-12.318c-0.261-0.257-0.454-0.37-0.834-0.171c-6.063,3.193-12.136,6.368-18.205,9.549
		c-0.167,0.088-0.32,0.197-0.568,0.35C32.274,161.748,56.05,175.476,79.826,189.202z M167.732,146.332c0-27.563,0-55.033,0-82.504
		c-0.039-0.005-0.076-0.01-0.113-0.014c-5.947,24.025-11.895,48.051-17.85,72.117C155.746,139.393,161.707,142.844,167.732,146.332z
		 M95.439,188.815c0.039,0.04,0.078,0.081,0.117,0.122c23.561-13.604,47.122-27.206,70.76-40.854
		c-5.906-3.42-11.729-6.79-17.566-10.171C130.959,154.899,113.199,171.857,95.439,188.815z"/>
</g>
</svg>
