<?xml version="1.0" encoding="utf-8"?>
<!-- Generator: Adobe Illustrator 16.0.0, SVG Export Plug-In . SVG Version: 6.00 Build 0)  -->
<!DOCTYPE svg PUBLIC "-//W3C//DTD SVG 1.1//EN" "http://www.w3.org/Graphics/SVG/1.1/DTD/svg11.dtd">
<svg version="1.1" id="Layer_1" xmlns="http://www.w3.org/2000/svg" xmlns:xlink="http://www.w3.org/1999/xlink" x="0px" y="0px"
	 width="549px" height="532px" viewBox="0 0 549 532" enable-background="new 0 0 549 532" xml:space="preserve">
<g>
	<path fill-rule="evenodd" clip-rule="evenodd" fill="#FFFFFF" d="M285.944,237.9c0.734,2.458,1.469,4.915,2.214,7.375
		c1.133-0.366,2.267-0.731,3.438-1.109c0.006-7.384-5.98-12.463-12.777-10.726c2.405,1.516,4.812,3.032,7.218,4.551
		c-1.907,0.963-3.895,1.8-5.694,2.934c-1.135,0.715-1.989,1.874-2.969,2.834c1.318,0.748,2.556,1.796,3.974,2.184
		c3.09,0.843,4.796,0.017,3.981-3.737C285.04,240.878,285.711,239.341,285.944,237.9z M536.902,319.137
		c-1.369-0.588-2.738-1.176-4.107-1.764c-3.733-3.477-7.467-6.954-11.942-11.123c3.861-1.632,6.847-2.895,9.832-4.157
		c-2.176-0.662-4.083-0.446-5.896,0.087c-9.304,2.735-11.772,11.461-5.252,18.353c1.14,1.204,2.243,2.442,3.335,3.69
		c3.503,4.002,7.611,5.236,12.845,3.583c8.583-2.712,11.882-7.729,9.22-15.002C542.056,314.706,542.433,320.798,536.902,319.137z
		 M251.49,374.996c0.58-0.59,1.532-1.097,1.683-1.781c1.632-7.386,4.16-14.766,4.399-22.214c0.254-7.924-3.008-9.437-10.943-8.262
		c-4.075,0.604-5.157,3.838-7.497,6.222c-9.918,10.106-11.115,21.358-2.832,32.702c1.959,2.684,4.151,4.602,7.146,1.145
		C246.128,380.204,248.809,377.601,251.49,374.996z M287.279,256.38c0.346-0.637,0.691-1.272,1.036-1.909
		c-0.161-0.108-0.321-0.216-0.482-0.324c-6.176,5.554-12.352,11.107-18.527,16.662c0.284,0.314,0.568,0.63,0.852,0.945
		c5.713-5.128,11.426-10.257,17.139-15.385c-2.408,4.507-4.816,9.015-7.375,13.803c1.177,0.063,1.877,0.1,3.631,0.192
		c-2.192,2.002-4.072,3.319-5.407,5.057c-1.195,1.557-1.79,3.575-2.65,5.391c0.354,0.188,0.706,0.377,1.06,0.565
		c1.926-1.113,3.853-2.228,5.778-3.341c0.258,0.332,0.516,0.664,0.773,0.996c-3.545,2.961-7.09,5.922-12.061,10.073
		c3.519,0.615,5.65,0.988,7.505,1.313c-1.388,1.495-3.151,3.396-4.498,4.847c0.531,1.589,1.56,3.28,1.169,3.723
		c-2.238,2.543-4.813,4.79-7.604,7.453c4.175,0.913,5.35,3.634,3.834,8.6c3.925-2.085,6.757-3.589,10.488-5.57
		c-2.389,3.053-4.052,5.177-5.714,7.301c0.328,0.526,0.657,1.053,0.985,1.58c2.755-1.235,5.975-1.93,8.163-3.82
		c4.098-3.539,5.283,1.177,7.532,2.325c0.821,0.42,1.206,3.306,0.63,4.513c-1.139,2.383-3.086,4.379-4.703,6.54
		c1.954,0.243,3.622,0.351,5.244,0.686c1.151,0.238,2.24,0.783,3.357,1.19c-0.674,1.057-1.241,2.203-2.047,3.146
		c-0.935,1.093-2.078,2.008-3.131,2.999c0.265,0.303,0.528,0.605,0.793,0.908c1.566-0.677,3.132-1.354,4.842-2.093
		c-0.499,1.314-0.919,2.419-1.313,3.458c2.043,0.411,3.7,0.744,5.357,1.077c-0.69,1.758-1.358,3.524-2.081,5.269
		c-0.303,0.73-0.697,1.428-1.094,2.115c-1.009,1.749-2.043,3.484-3.697,6.3c-1.158-2.656-1.502-3.57-1.941-4.436
		c-4.221-8.297-8.167-9.044-15.146-2.896c-6.678,5.882-10.952,25.077-4.725,34.963c2.534,4.024,7.808,5.15,10.71,1.996
		c3.342-3.632,6.594-7.551,8.898-11.872c2.106-3.949,2.896-8.601,4.084-12.369c2,0.154,3.486,0.276,4.975,0.381
		c1.634,0.115,3.269,0.216,5.824,0.382c-2.238,3.035-3.473,4.708-4.813,6.526c1.992,1.122,3.615,2.036,5.621,3.166
		c-2.589,3.379-4.873,6.359-7.144,9.323c5.848,4.454-1.884,6.517-1.433,9.326c1.372,0.95,2.344,1.625,3.48,2.412
		c0.911-0.606,2.135-1.422,3.593-2.393c0.976,1.119,1.853,2.125,2.022,2.32c-8.438,10.667-16.661,21.063-24.885,31.457
		c0.356,0.346,0.714,0.691,1.071,1.036c1.619-1.094,3.239-2.188,4.858-3.282c0.421,0.464,0.842,0.929,1.264,1.393
		c-3.446,2.942-6.892,5.885-10.337,8.827c0.125,0.188,0.25,0.377,0.374,0.564c1.247-0.458,2.494-0.916,4.106-1.508
		c0,1.548,0,2.604,0,5.242c5.989-2.676,11.182-4.996,16.664-7.445c0.105,0.19,0.514,0.923,0.915,1.643
		c2.087-0.984,4.022-1.897,5.958-2.811c-1.005,1.724-1.87,3.549-3.041,5.151c-3.582,4.902-5.636,11.6-13.876,11.379
		c2.585,7.605-3.899,10.723-6.263,16.357c-1.411-1.222-2.233-1.778-2.861-2.503c-4.795-5.532-4.933-5.295-10.404-0.278
		c-5.736,5.26-12.061,9.872-17.972,14.948c-2.781,2.388-4.55,1.747-6.506-0.971c-1.45-2.016-3.346-3.71-5.821-6.39
		c0.265,8.296,6.893,10.505,10.236,15.085c-10.132-0.887-10.166-10.673-15.382-16.247c0.92,4.228,1.841,8.454,2.761,12.682
		l0.086-0.104c-0.873-1.376-2.015-2.65-2.576-4.144c-4.028-10.726-8.169-21.418-11.79-32.282
		c-1.834-5.503-2.661-11.342-3.943-17.029c0.498-0.192,0.996-0.386,1.493-0.578c1.743,3.701,3.486,7.402,5.229,11.104
		c0.417-0.149,0.834-0.299,1.251-0.447c-1.743-10.853-7.991-21.371-2.988-32.879c-6.751,4.473-3.367,12.179-6.046,19.636
		c-4.143-10.497-8.301-19.455-11.172-28.808c-2.255-7.347-3.696-15.148-4.01-22.81c-0.197-4.81,1.697-10.054,3.871-14.509
		c2.024-4.147,5.66-7.508,9.109-11.877c-2.488,0.289-4.641-0.109-5.557,0.774c-2.243,2.164-2.73,5.313-6.901,6.517
		c-3.519,1.015-5.816,5.875-8.999,8.636c-1.312,1.138-3.525,1.72-5.333,1.728c-16.263,0.074-31.526-4.292-46.193-10.965
		c-8.7-3.958-17.125-8.571-25.983-12.113c-8.312-3.323-17.037-5.609-25.571-8.383c-2.69-0.874-5.348-1.846-8.533-2.951
		c2.396-1.539,3.961-2.544,5.527-3.549c-0.061-0.512-0.122-1.022-0.183-1.533c-5.327-0.641-10.662-1.226-15.979-1.94
		c-3.955-0.532-7.956-0.959-11.813-1.927c-4.871-1.223-5.353-3.305-1.944-7.225c4.435,1.529,8.101,5.879,13.613,4.4
		c-1.044-1.459-2.475-2.034-3.721-2.882c-1.646-1.119-3.686-2.143-4.605-3.752c-2.526-4.424-1.065-8.898,3.547-13.732
		c8.779-9.201,17.363-18.588,26.194-27.737c11.528-11.943,23.173-23.774,34.877-35.546c2.214-2.227,5.361-3.59,7.353-5.961
		c7.784-9.271,17.403-13.34,29.523-12.041c5.035,0.539,10.175,0.089,15.166,0.089c-7.901-3.41-16.359-3.042-24.697-1.775
		c-4.265,0.648-8.962,1.91-12.314,4.427c-8.61,6.467-16.629,13.729-24.778,20.797c-3.436,2.98-6.604,6.271-9.893,9.421
		c1.397-3.096,3.125-6.125,5.565-8.384c3.45-3.191,7.797-5.447,11.093-8.766c4.883-4.914,8.902-10.694,13.841-15.543
		c2.605-2.557,6.233-5.142,9.66-5.557c6.146-0.743,12.5-0.023,18.744,0.42c2.907,0.207,5.759,1.198,8.636,1.834
		c-0.189-0.751-0.52-1.085-0.906-1.172c-6.923-1.554-13.652-3.093-21.056-2.546c-5.97,0.44-11.504,0.382-16.105,4.625
		c-12.774,11.78-25.627,23.479-38.215,35.455c-6.118,5.821-11.771,12.139-17.528,18.33c-4.816,5.179-9.478,10.5-14.208,15.759
		c-0.055,2.309-0.261,5.039-1.717,6.193c-7.51,5.952-10.689,14.701-14.899,22.665c-4.331,8.191-6.948,17.717-4.442,26.496
		c3.905,13.681,9.909,26.77,15.221,40.03c0.878,2.192,3.045,3.839,4.125,5.985c2.648,5.263,4.993,10.678,7.488,16.019
		c4.91,10.511,9.8,21.031,14.795,31.502c0.909,1.905,1.905,4.64,3.492,5.197c6.156,2.162,7.813,7.455,11.376,13.414
		c-3.771,0-6.954,0.975-8.41-0.197c-3.361-2.702-5.93-0.754-8.751,0.216c-2.66,0.914-5.178,2.251-7.852,3.112
		c-6.721,2.165-13.588,3.911-20.215,6.322c-4.3,1.565-8.139,4.392-12.434,5.977c-11.348,4.189-22.833,8.007-34.252,12.006
		c-0.19,0.066-0.234,0.551-0.752,1.89c4.313-0.772,8.065-1.444,10.907-1.953c0.769,1.88,1.429,3.496,2.188,5.354
		c-4.573,1.547-9.307,3.147-14.997,5.072c1.875,0.98,2.65,1.386,3.844,2.011c-4.15,1.301-7.929,2.485-11.709,3.669
		c0.081,0.332,0.162,0.663,0.243,0.994c3.078-0.386,6.155-0.771,9.955-1.247c-2.623,2.448-7.703,2.253-5.254,6.931
		c3.684-0.822,7.224-1.612,10.763-2.402c0.179,0.562,0.357,1.123,0.536,1.685c-3.663,1.674-7.326,3.347-10.988,5.021
		c0.027,0.217,0.054,0.433,0.081,0.649c5.795-0.981,11.591-1.963,17.386-2.944c0.07,0.374,0.14,0.748,0.209,1.122
		c-3.291,1.168-6.582,2.336-9.873,3.505c0.141,0.44,0.282,0.881,0.422,1.322c5.094-1.044,10.188-2.088,15.282-3.132
		c0.188,0.742,0.376,1.484,0.564,2.227c-8.479,2.512-16.957,5.024-26.86,7.958c3.756,0.552,5.984,0.879,8.522,1.251
		c-0.999,1.354-1.763,2.389-2.527,3.425c0.217,0.366,0.435,0.732,0.651,1.099c6.143-2.257,12.246-4.633,18.453-6.695
		c1.719-0.571,3.747-0.214,5.633-0.282c-0.167,1.63-0.334,3.261-0.523,5.11c2.17,0.209,4.666,0.448,7.161,0.688
		c-0.01,0.252-0.021,0.504-0.031,0.756c-2.458,0.213-4.915,0.425-8.814,0.762c8.779,2.036,15.695,1.555,22.793-1.52
		c6.609-2.863,13.766-4.464,20.682-6.62c0.192,0.614,0.385,1.229,0.577,1.843c-5.547,2.342-11.095,4.684-15.598,6.585
		c2.9,3.518,5.496,6.666,7.982,9.683c12.858-2.234,26.2-4.554,40.07-6.965c-2.212,0.911-4.082,1.681-6.057,2.494
		c0.745,0.778,1.342,1.402,2.51,2.622c-3.327,0.729-6.002,1.314-8.677,1.9c0.081,0.48,0.163,0.961,0.244,1.442
		c8.52-1.542,17.475-1.95,25.415-5c5.864-2.252,11.149-1.248,16.208-0.271c3.274,0.632,6.032,1.747,9.294,0.409
		c0.845-0.347,1.952-0.053,2.939-0.053c0.076,0.373,0.151,0.746,0.227,1.118c-2.685,1.268-5.369,2.536-8.053,3.804
		c11.598-0.174,20.785-7.788,32.058-8.541c10.813-0.723,20.527-7.799,32.084-5.268c-1.628,0.809-3.257,1.617-4.359,2.164
		c4.255,0.424,8.859,1.059,13.482,1.289c3.835,0.19,7.999,0.819,11.486-0.341c10.239-3.406,20.158-7.765,30.32-11.423
		c4.361-1.57,9.014-2.332,13.533-3.462c0.14,0.465,0.279,0.931,0.418,1.396c-8.454,3.24-16.909,6.48-25.363,9.721
		c12.057-2.774,24.47-4.548,35.703-9.183c10.974-4.527,22.206-6.617,33.584-8.886c2.563-0.512,4.959-1.841,7.44-2.772
		c2.427-0.912,4.8-2.09,7.31-2.641c7.732-1.699,15.519-3.154,23.019-4.651c-6.521,0-13.259,0-19.998,0
		c-0.021-0.379-0.043-0.758-0.064-1.136c7.813-1.767,15.627-3.533,23.44-5.299c-0.068-0.344-0.137-0.688-0.205-1.031
		c-6.669,1.041-13.338,2.083-20.008,3.124c-0.033-0.231-0.066-0.463-0.1-0.694c4.897-1.736,9.795-3.474,14.691-5.21
		c-0.08-0.276-0.161-0.553-0.242-0.829c-4.54,1.043-9.08,2.086-13.619,3.129c-0.135-0.585-0.269-1.17-0.402-1.755
		c6.258-1.221,12.516-2.442,18.772-3.664c-0.149,0.592-0.299,1.183-0.667,2.636c7.453-2.193,14.267-4.199,21.08-6.204
		c-0.106-0.407-0.213-0.813-0.319-1.221c-2.142,0.25-4.298,0.413-6.423,0.766c-6.729,1.117-13.435,2.38-20.179,3.386
		c-1.034,0.154-2.226-0.747-3.345-1.16c0.822-0.817,1.526-1.848,2.501-2.396c0.979-0.55,2.221-0.649,3.358-0.896
		c7.921-1.72,15.845-3.427,23.767-5.139c-0.031-0.182-0.063-0.362-0.095-0.544c-9.131,1.618-18.262,3.236-28.502,5.051
		c2.787-1.432,4.472-2.298,6.28-3.227c-1.409-1.502-2.2-2.914-3.397-3.517c-4.348-2.188-6.759-7.588-12.495-7.461
		c-1.658,0.036-3.323-0.245-4.984-0.382c-0.045-0.576-0.091-1.152-0.136-1.729c5.046-1.071,10.092-2.143,15.139-3.214
		c-0.025-0.226-0.05-0.451-0.074-0.676c-8.555,0.708-17.109,1.416-26.321,2.179c3.403-1.207,6.196-2.197,8.99-3.188
		c-0.058-0.747-0.115-1.493-0.174-2.24c-9.99,5.531-19.308,2.612-28.305-1.584c1.587-3.082,3.751-6.884,5.471-10.877
		c0.488-1.133-0.319-2.823-0.531-4.257c2.433-2.678,4.889-5.334,7.292-8.037c1.925-2.165,4.264-4.133,5.595-6.627
		c5.511-10.325,11.205-20.603,15.838-31.327c2.885-6.68,4.529-14.038,5.719-21.259c0.894-5.425,0.177-11.115,0.177-16.704
		c-3.216-4.896-6.661-10.142-9.672-14.727c2.911-2.838,5.601-5.459,8.791-8.568c-1.983,0.272-3.328,0.456-4.879,0.669
		c-2.33-8.2-4.575-16.114-6.836-24.024c-0.175-0.609-0.468-1.185-0.756-1.899c0.842,0.155,1.438,0.266,2.545,0.471
		c-2.169-5.214-4.205-10.107-6.034-14.505c12.882,5.45,25.619,10.909,38.435,16.179c1.725,0.709,3.885,3.43,5.838-0.042
		c0.141-0.249,1.502-0.005,2.187,0.276c11.57,4.764,23.105,9.613,34.701,14.313c1.451,0.589,3.227,0.738,4.805,0.592
		c9.492-0.882,14.765-9.354,22.809-12.981c1.938-0.875,2.401-4.625,4.294-6.063c10.29-7.819,20.967-15.13,31.22-22.994
		c12.235-9.385,24.183-19.144,36.228-28.774c0.687-0.549,1.125-1.406,1.679-2.121c-0.167-0.175-0.335-0.351-0.503-0.525
		c-1.007,0.603-2.015,1.205-3.021,1.808c1.467-3.882,3.672-7.082,6.218-9.983c0.555-0.633,2.693-0.723,3.477-0.172
		c4.712,3.313,6.381,0.883,7.605-3.468c0.854-3.031,2.505-5.846,3.288-8.889c0.979-3.801,1.431-7.736,2.1-11.55
		c-2.11,1.398-3.655,3.274-5.201,3.275c-3.446,0.001-7.099-0.397-10.289-1.619c-4.312-1.651-8.225-4.32-12.4-6.362
		c-1.553-0.759-3.366-0.982-5.062-1.449c-0.28,0.724-0.561,1.447-0.841,2.171c5.138,2.767,10.275,5.534,15.412,8.301
		c-0.253,0.515-0.505,1.028-0.758,1.543c-1.87,0.347-3.74,0.694-5.611,1.042c0.213-0.403,0.426-0.807,0.639-1.21
		c-1.728-1.665-3.178-3.911-5.231-4.896c-8.931-4.276-18.196-7.873-27.027-12.334c-6.124-3.094-12.026-6.822-17.446-11.018
		c-2.28-1.765-3.232-4.96-6.844-5.632c-3.275-0.61-6.557-1.848-9.493-3.439c-2.985-1.617-5.437-4.188-8.325-6.023
		c-10.839-6.885-21.819-13.548-32.627-20.48c-5.411-3.471-10.258-7.937-15.922-10.865c-5.342-2.762-13.632-13.172-13.652-19.266
		c-0.023-6.8-0.005-13.601-0.005-21.752c-1.29,5.553-2.313,9.959-3.336,14.364c-0.205-9.506,3.815-18.734-0.023-28.153
		c-0.644,4.097,0.189,8.43-0.817,12.281c-2.051,7.84-4.678,15.597-7.854,23.054c-2.692,6.319-6.229,12.333-9.896,18.164
		c-2.233,3.551-4.885,6.785-10.259,6.456c-4.994-0.306-6.905,2.327-6.108,7.353c0.398,2.51,1.787,4.862,3.216,8.545
		c-5.955,6.129-12.776,13.149-19.598,20.171c-0.726-0.445-1.45-0.891-2.175-1.336c0.867-2.731,1.734-5.463,2.753-8.672
		c-3.099,2.538-6.137,4.794-8.898,7.348c-3.636,3.361-8.426,4.49-11.01,2.103c-1.853,2.676-3.686,5.322-5.519,7.969
		c-0.476-0.226-0.952-0.451-1.428-0.677c1.017-4.198,5.592-8.311,0.638-12.474c3.397-2.647,3.828-7.229,0.937-11.426
		c-3.887,3.441-7.726,6.841-11.909,10.546c0-5.744-0.413-11.21,0.154-16.571c0.342-3.229,2.457-6.265-2.106-8.184
		c-0.539-0.227-0.611-2.435-0.329-3.584c0.946-3.86,2.258-7.631,3.234-11.484c1.75-6.907,3.357-13.851,5.024-20.778
		c-12.705,35.807-17.382,73.303-24,110.85c-3.686-0.29-7.435-0.585-11.185-0.88c0.015,0.114,0.029,0.229,0.044,0.343
		c3.967,1.031,7.935,2.063,11.902,3.094c-0.107,0.425-0.213,0.85-0.319,1.275c-12.187-2.825-24.373-5.651-36.56-8.477
		c-0.099,0.349-0.197,0.696-0.295,1.045c1.585,1.239,3.171,2.479,3.915,3.061c1.742-0.588,2.7-1.275,3.48-1.112
		c3.402,0.714,6.756,1.662,10.121,2.55c7.503,1.978,14.95,4.217,22.527,5.847c3.596,0.773,7.625-0.282,11.132,0.678
		c7.341,2.01,14.487,4.748,21.653,7.353c0.905,0.329,1.827,1.544,2.103,2.527C298.213,243.015,292.847,253.857,287.279,256.38z
		 M204.626,290.269c-5.425,0.349-9.397,1.079-13.269,0.724c-4.238-0.388-6.764,3.101-10.34,3.642
		c-9.633,1.459-15.245,7.12-16.146,16.849c-0.669,7.223,7.226,15.977,14.411,15.074c11.878-1.493,26.635-7.675,27.853-24.909
		c0.511-7.226,1.379-14.954,7.35-20.529c0.058-0.054-0.25-0.501-0.28-0.556C207.058,280.748,206.847,287.776,204.626,290.269z
		 M131.548,283.747c-1.251-3.09-1.784-5.39-3.007-7.232c-2.939-4.427-17.866-5.783-23.662-2.378
		c-3.28,1.927-6.546,3.887-9.897,5.686c-4.27,2.291-6.9,5.748-6.927,10.58c-0.025,4.381,2.526,7.098,6.498,9.145
		c8.55,4.408,23.124,2.188,30.123-5.49C127.452,291.01,129.328,287.142,131.548,283.747z M197.958,260.746
		c-0.332-1.553-0.408-3.219-1.039-4.64c-2.444-5.501-7.679-6.872-15.232-5.843c-9.429,1.284-16.176,6.514-21.693,13.43
		c-1.907,2.391-2.639,6.457-2.381,9.634c0.269,3.317,10.695,8.642,14.225,8.229c6.655-0.777,12.593-2.655,18.175-6.944
		C194.909,270.851,198.165,267.15,197.958,260.746z M142.868,118.44c-0.563,0.792-1.233,2.812-2.521,3.35
		c-4.687,1.956-3.056,4.598-1.361,7.534c2.33,4.035,4.489,8.17,6.837,12.194c1.701,2.915,3.504,5.849,7.734,4.81
		c0.184-0.045,0.45,0.246,0.693,0.39c-0.927,0.617-1.817,1.211-2.926,1.949c2.377,0.912,4.319,1.682,6.279,2.405
		c13.368,4.935,21.804,1.587,26.679-9.934c-1.1-1.419-2.239-2.472-2.869-3.772c-3.09-6.384-6-12.855-9.098-19.236
		c-0.429-0.884-1.604-2.103-2.332-2.037c-7.225,0.646-14.425,1.564-21.642,2.322C146.703,118.588,145.03,118.44,142.868,118.44z
		 M264.969,251.629c-0.228-1.248-0.493-2.704-0.757-4.161c-1.491-8.249-14.602-15.755-22.054-12.045
		c-5.731,2.853-11.341,6.337-16.183,10.497c-7.871,6.763-6.529,12.454,3.498,15.604c11.151,3.503,21.121,0.27,30.185-6.579
		C261.15,253.816,262.84,252.946,264.969,251.629z M516.109,87.533c-4.352-6.576-8.603-13.021-12.905-19.432
		c-0.211-0.313-0.927-0.241-1.322-0.485c-2.441-1.503-5.257-2.656-7.205-4.65c-5.052-5.17-9.536-10.896-14.606-16.046
		c-3.128-3.179-6.724-6.004-10.469-8.436c-2.801-1.818-6.177-2.753-9.588-4.205c0.588,3.018,1.022,4.626,1.087,6.248
		c0.01,0.246-2.116,1.084-2.538,0.748c-1.346-1.07-2.307-2.608-3.506-3.882c-1.021-1.085-2.013-2.362-3.293-3.003
		c-2.19-1.096-4.684-1.578-6.897-2.637c-9.558-4.566-19.058-9.253-28.595-13.864c-0.203-0.099-0.592,0.185-1.203,0.396
		c1.757,2.202,3.022,5.063,5.21,6.315c10.726,6.143,21.769,11.729,32.537,17.8c3.286,1.853,5.876,4.91,9.101,6.906
		c6.798,4.206,13.83,8.03,20.709,12.106c2.533,1.501,5.036,3.11,7.323,4.955c3.354,2.704,6.401,5.788,9.76,8.485
		C504.97,79.082,510.381,83.121,516.109,87.533z M157.941,248.085c7.899-0.303,14.234-5.068,19.852-10.629
		c3.509-3.473,2.495-9.853-1.321-12.922c-3.703-2.979-7.538-5.135-12.577-2.618c-4.938,2.465-10.589,3.793-15.009,6.919
		c-4.116,2.911-6.71,8.035-4.398,13.26C146.804,247.329,152.29,247.635,157.941,248.085z M388.621,102.664
		c1.627,8.139,5.238,16.095,14.063,20.928c4.096,2.243,13.217,2,16.109-0.988c4.232-4.371,4.563-11.175,0.063-16.358
		c-3.107-3.579-7.191-6.291-10.648-9.59c-4.505-4.297-9.644-3.866-14.943-2.327C389.759,95.346,388.232,97.855,388.621,102.664z
		 M468.097,112.367c-0.793-10.329-6.046-15.933-13.083-20.282c-4.1-2.534-8.366-1.886-12.17,0.405
		c-2.654,1.598-3.769,10.665-1.791,13.505c3.021,4.341,5.77,9.294,9.862,12.333c3.21,2.384,8.691,3.753,12.38,2.733
		C465.778,120.375,466.896,114.742,468.097,112.367z M491.552,82.269c-1.932,2.355-3.547,3.555-4.095,5.125
		c-2.542,7.288,1.471,16.697,8.408,20.614c1.225,0.691,2.578,1.624,3.21,2.8c1.669,3.107,5.333,4.742,8.285,3.316
		c3.045-1.472,4.529-5.936,2.774-8.968c-3.233-5.586-6.292-11.32-10.074-16.52C498.248,86.145,494.951,84.731,491.552,82.269z
		 M476.045,398.674c-3.338-1.684-7.521-4.088-11.955-5.876c-1.574-0.635-3.896-0.149-5.623,0.5
		c-2.604,0.979-4.977,2.565-7.461,3.868c-5.281,2.768-5.754,7.843-1.135,11.514c1.688,1.342,3.001,3.267,4.841,4.273
		c1.594,0.872,3.828,1.441,5.541,1.063c4.925-1.088,9.654-3.18,14.605-3.984c3.279-0.532,2.495-2.062,2.214-3.946
		C476.764,404.01,476.494,401.929,476.045,398.674z M309.75,120.269c1.269,2.466,2.538,4.932,3.807,7.397
		c2.313-1.671,5.597-2.846,6.755-5.108c3.221-6.29,5.697-12.981,8.121-19.641c0.466-1.282-0.386-4.352-1.074-4.497
		c-1.901-0.402-4.887-0.461-5.938,0.704C316.101,105.014,310.69,111.046,309.75,120.269z M328.789,123.905
		c1.094,1.717,1.958,4.59,3.777,5.456c1.471,0.699,4.223-0.769,6.156-1.762c1.227-0.63,2.483-2,2.886-3.3
		c1.95-6.3,3.744-12.659,5.254-19.077c0.241-1.027-0.963-2.87-2.011-3.575c-0.816-0.549-2.841-0.399-3.622,0.268
		C334.663,107.517,331.608,115.17,328.789,123.905z M338.625,67.589c8.045,0.858,11.372-3.883,13.366-10.491
		c1.747-5.79,7.93-11.166,1.381-17.913C343.977,46.851,336.122,54.832,338.625,67.589z M410.337,17.894
		c0.365-0.571,0.73-1.142,1.096-1.712c-1.058-1.744-1.896-4.801-3.209-5.02c-9.102-1.516-17.303-6.521-27.186-5.461
		c-10.369,1.112-19.774,3.616-27.817,10.359c-0.547,0.458-0.68,1.41-1.005,2.133c6.752-6.085,15.029-6.986,23.212-8.604
		c10.714-2.12,19.371,3.644,28.817,6.449C406.279,16.643,408.307,17.274,410.337,17.894z M307.166,91.77
		c-7.074-0.063-13.035,7.407-16.521,21.201c2.125-0.152,4.292-0.308,7.761-0.556c-2.142,2.877-3.472,4.665-4.803,6.452
		c2.04-0.555,4.472-1.222,5.159-2.7c2.765-5.946,5.088-12.107,7.354-18.27C306.823,95.977,306.839,93.801,307.166,91.77z
		 M101.06,176.496c-6.227-2.609-15.642,3.049-16.535,11.482c3.813,1.353,7.633,2.926,11.592,3.979
		c1.201,0.319,3.625-0.421,4.04-1.334c1.383-3.044,2.108-6.386,2.805-8.687c-6.788,5.729-6.788,5.729-14.858-0.188
		C93.259,179.659,97.572,177.91,101.06,176.496z M396.089,141.849c-2.226-2.151-4.443-3.272-4.581-4.609
		c-0.526-5.09-5.165-5.361-7.938-7.833c-2.706-2.412-5.15-5.409-6.829-8.61c-2.08-3.967-3.254-8.409-5.007-13.15
		C368.046,120.464,380.558,134.553,396.089,141.849z M217.739,402.264c0.304,0.078,0.608,0.157,0.913,0.235
		c4.691-5.492,9.382-10.985,14.577-17.069c-5.12,1.273-9.451,2.35-13.793,3.429C218.88,393.242,218.31,397.753,217.739,402.264z
		 M380.004,18.596c-6.684,8.596-2.301,18.555-5.778,26.852C378.225,43.198,382.031,25.197,380.004,18.596z M212.795,376.17
		c1.181-8.321,2.261-15.935,3.593-25.319c-2.299,2.829-5.134,4.719-5.188,6.686C211.033,363.463,205.079,369.836,212.795,376.17z
		 M45.606,445.201c-10.591,2.263-22.453,4.798-34.314,7.332c0.097,0.41,0.193,0.82,0.29,1.23c7.948-0.59,15.905-1.092,23.837-1.854
		c1.357-0.13,2.676-1.27,3.893-2.115C41.868,448.019,44.343,446.129,45.606,445.201z M446.781,172.249
		c0.292-0.489,0.585-0.979,0.877-1.469c-5.631-3.627-11.235-7.296-16.9-10.868c-5.601-3.531-11.263-6.965-16.897-10.44
		c-0.242,0.408-0.484,0.817-0.727,1.226C424.35,157.881,435.565,165.065,446.781,172.249z M55.977,262.812
		c-8.141,5.768-14.91,16.158-14.917,22.892C46.513,277.336,51.245,270.073,55.977,262.812z M362.785,61.07
		c-0.309,0.354-0.617,0.708-0.926,1.062c2.161,3.087,4.322,6.173,6.483,9.26c0.369-0.121,0.738-0.242,1.107-0.362
		c0.327-4.412,0.653-8.823,0.98-13.235c-0.496-0.122-0.992-0.245-1.489-0.367c-0.834,1.589-1.669,3.178-2.476,4.716
		C365.171,61.766,363.979,61.418,362.785,61.07z M518.374,125.324c-0.292,0.476-0.584,0.951-0.876,1.427
		c2.26,2.919,4.521,5.839,6.78,8.758c0.444-0.293,0.888-0.587,1.331-0.88c0.136-3.057,0.272-6.114,0.409-9.172
		c-0.447-0.43-0.894-0.859-1.341-1.289C522.848,127.573,520.827,128.859,518.374,125.324z M374.836,23.153
		c-0.659-0.071-1.317-0.144-1.977-0.215c-0.859,7.573-1.719,15.147-2.578,22.721c0.609,0.071,1.219,0.143,1.828,0.214
		C373.019,38.3,373.927,30.727,374.836,23.153z M213.952,217.351c-1.439-3.094-11.511-5.04-16.361-2.894
		C202.866,215.39,208.142,216.323,213.952,217.351z M526.538,107.854c-0.82-5.699,3.21-12.729-4.248-16.646
		C523.755,96.948,525.146,102.401,526.538,107.854z M261.391,460.692c0.199-0.352,0.397-0.703,0.597-1.055
		c-0.743-1.431-1.212-3.126-2.285-4.238c-2.325-2.409-4.115-1.542-3.202,1.562C256.967,458.547,259.688,459.47,261.391,460.692z
		 M269.203,241.06c1.353,1.199,2.377,2.593,2.844,2.426c1.194-0.426,2.429-1.386,3.037-2.474c0.23-0.412-1.448-2.629-1.851-2.521
		C271.978,238.831,270.915,239.888,269.203,241.06z M342.732,30.237c-0.395-0.307-0.79-0.612-1.185-0.918
		c-2.295,3.021-4.59,6.042-6.885,9.063c0.38,0.296,0.761,0.591,1.142,0.887C338.114,36.259,340.424,33.248,342.732,30.237z"/>
	<path fill-rule="evenodd" clip-rule="evenodd" d="M308.939,425.022c0.213,1.436,1.021,3.126,0.532,4.259
		c-1.72,3.993-3.884,7.795-5.471,10.877c8.997,4.196,18.314,7.115,28.305,1.584c0.059,0.747,0.116,1.493,0.174,2.24
		c-2.794,0.99-5.587,1.98-8.99,3.188c9.212-0.763,17.767-1.471,26.321-2.179c0.024,0.225,0.049,0.45,0.074,0.676
		c-5.047,1.071-10.093,2.143-15.139,3.214c0.045,0.576,0.091,1.152,0.136,1.729c1.661,0.137,3.326,0.418,4.984,0.382
		c5.736-0.127,8.147,5.272,12.495,7.461c1.197,0.603,1.988,2.015,3.397,3.517c-1.809,0.929-3.493,1.795-6.28,3.227
		c10.24-1.814,19.371-3.433,28.502-5.051c0.031,0.182,0.063,0.362,0.095,0.544c-7.922,1.712-15.846,3.419-23.767,5.139
		c-1.138,0.247-2.38,0.347-3.358,0.896c-0.975,0.548-1.679,1.578-2.501,2.396c1.119,0.413,2.311,1.314,3.345,1.16
		c6.744-1.006,13.45-2.269,20.179-3.386c2.125-0.353,4.281-0.516,6.423-0.766c0.106,0.407,0.213,0.813,0.319,1.221
		c-6.813,2.005-13.627,4.011-21.08,6.204c0.368-1.453,0.518-2.044,0.667-2.636c-6.257,1.222-12.515,2.443-18.772,3.664
		c0.134,0.585,0.268,1.17,0.402,1.755c4.539-1.043,9.079-2.086,13.619-3.129c0.081,0.276,0.162,0.553,0.242,0.829
		c-4.896,1.736-9.794,3.474-14.691,5.21c0.033,0.231,0.066,0.463,0.1,0.694c6.67-1.041,13.339-2.083,20.008-3.124
		c0.068,0.344,0.137,0.688,0.205,1.031c-7.813,1.766-15.627,3.532-23.44,5.299c0.021,0.378,0.043,0.757,0.064,1.136
		c6.739,0,13.478,0,19.998,0c-7.5,1.497-15.286,2.952-23.019,4.651c-2.51,0.551-4.883,1.729-7.31,2.641
		c-2.481,0.932-4.878,2.261-7.44,2.772c-11.378,2.269-22.61,4.358-33.584,8.886c-11.232,4.635-23.646,6.408-35.703,9.183
		c8.454-3.24,16.909-6.48,25.363-9.721c-0.139-0.465-0.278-0.931-0.418-1.396c-4.52,1.13-9.172,1.892-13.533,3.462
		c-10.163,3.658-20.081,8.017-30.32,11.423c-3.487,1.16-7.65,0.531-11.486,0.341c-4.624-0.23-9.227-0.865-13.482-1.289
		c1.103-0.547,2.731-1.355,4.359-2.164c-11.557-2.531-21.272,4.545-32.084,5.268c-11.272,0.753-20.459,8.367-32.058,8.541
		c2.684-1.268,5.369-2.536,8.053-3.804c-0.076-0.372-0.151-0.745-0.227-1.118c-0.987,0-2.094-0.294-2.939,0.053
		c-3.262,1.338-6.02,0.223-9.294-0.409c-5.059-0.977-10.344-1.98-16.208,0.271c-7.94,3.05-16.895,3.458-25.415,5
		c-0.082-0.481-0.163-0.962-0.244-1.442c2.675-0.586,5.35-1.172,8.677-1.9c-1.168-1.22-1.765-1.844-2.51-2.622
		c1.975-0.813,3.844-1.583,6.057-2.494c-13.87,2.411-27.212,4.73-40.07,6.965c-2.487-3.017-5.082-6.165-7.982-9.683
		c4.503-1.901,10.051-4.243,15.598-6.585c-0.192-0.614-0.385-1.229-0.577-1.843c-6.916,2.156-14.072,3.757-20.682,6.62
		c-7.098,3.074-14.014,3.556-22.793,1.52c3.899-0.337,6.357-0.549,8.814-0.762c0.01-0.252,0.021-0.504,0.031-0.756
		c-2.495-0.239-4.991-0.479-7.161-0.688c0.189-1.85,0.356-3.48,0.523-5.11c-1.886,0.068-3.914-0.289-5.633,0.282
		c-6.207,2.063-12.31,4.438-18.453,6.695c-0.217-0.366-0.434-0.732-0.651-1.099c0.765-1.036,1.529-2.071,2.527-3.425
		c-2.538-0.372-4.767-0.699-8.522-1.251c9.903-2.934,18.381-5.446,26.86-7.958c-0.188-0.742-0.376-1.484-0.564-2.227
		c-5.094,1.044-10.188,2.088-15.282,3.132c-0.141-0.441-0.282-0.882-0.422-1.322c3.291-1.169,6.582-2.337,9.873-3.505
		c-0.07-0.374-0.14-0.748-0.209-1.122c-5.795,0.981-11.591,1.963-17.386,2.944c-0.027-0.217-0.054-0.433-0.081-0.649
		c3.663-1.674,7.325-3.347,10.988-5.021c-0.179-0.562-0.357-1.123-0.536-1.685c-3.54,0.79-7.08,1.58-10.763,2.402
		c-2.449-4.678,2.631-4.482,5.254-6.931c-3.8,0.477-6.877,0.861-9.955,1.247c-0.081-0.331-0.162-0.662-0.243-0.994
		c3.78-1.184,7.559-2.368,11.709-3.669c-1.194-0.625-1.969-1.03-3.844-2.011c5.69-1.925,10.424-3.525,14.997-5.072
		c-0.759-1.857-1.419-3.474-2.188-5.354c-2.842,0.509-6.594,1.181-10.907,1.953c0.518-1.339,0.562-1.823,0.752-1.89
		c11.419-3.999,22.904-7.816,34.252-12.006c4.295-1.585,8.134-4.411,12.434-5.977c6.627-2.411,13.494-4.157,20.215-6.322
		c2.674-0.861,5.192-2.198,7.852-3.112c2.822-0.97,5.391-2.918,8.751-0.216c1.457,1.172,4.639,0.197,8.41,0.197
		c-3.563-5.959-5.221-11.252-11.376-13.414c-1.586-0.558-2.583-3.292-3.492-5.197c-4.995-10.471-9.885-20.991-14.795-31.502
		c-2.495-5.341-4.84-10.756-7.488-16.019c-1.08-2.146-3.246-3.793-4.125-5.985c-5.312-13.261-11.316-26.35-15.221-40.03
		c-2.505-8.779,0.111-18.305,4.442-26.496c4.21-7.964,7.389-16.713,14.899-22.665c1.456-1.154,1.662-3.885,1.717-6.193
		c4.73-5.259,9.392-10.58,14.208-15.759c5.757-6.191,11.41-12.509,17.528-18.33c12.588-11.977,25.441-23.675,38.215-35.455
		c4.601-4.243,10.136-4.185,16.105-4.625c7.403-0.547,14.133,0.992,21.056,2.546c0.386,0.087,0.717,0.421,0.906,1.172
		c-2.877-0.636-5.729-1.627-8.636-1.834c-6.244-0.443-12.598-1.163-18.744-0.42c-3.427,0.415-7.055,3-9.66,5.557
		c-4.939,4.849-8.958,10.629-13.841,15.543c-3.296,3.318-7.643,5.574-11.093,8.766c-2.44,2.259-4.167,5.288-5.565,8.384
		c3.29-3.149,6.457-6.44,9.893-9.421c8.148-7.068,16.167-14.33,24.778-20.797c3.352-2.517,8.049-3.778,12.314-4.427
		c8.338-1.267,16.796-1.635,24.697,1.775c-4.99,0-10.131,0.45-15.166-0.089c-12.12-1.299-21.739,2.771-29.523,12.041
		c-1.991,2.371-5.139,3.734-7.353,5.961c-11.704,11.771-23.349,23.603-34.877,35.546c-8.832,9.149-17.416,18.536-26.194,27.737
		c-4.612,4.834-6.073,9.309-3.547,13.732c0.919,1.609,2.959,2.633,4.605,3.752c1.246,0.848,2.676,1.423,3.721,2.882
		c-5.513,1.479-9.179-2.871-13.613-4.4c-3.409,3.92-2.926,6.002,1.944,7.225c3.856,0.968,7.857,1.395,11.813,1.927
		c5.317,0.715,10.652,1.3,15.979,1.94c0.061,0.511,0.122,1.021,0.183,1.533c-1.565,1.005-3.13,2.01-5.527,3.549
		c3.185,1.105,5.843,2.077,8.533,2.951c8.534,2.773,17.259,5.06,25.571,8.383c8.859,3.542,17.284,8.155,25.983,12.113
		c14.667,6.673,29.93,11.039,46.193,10.965c1.807-0.008,4.021-0.59,5.333-1.728c3.183-2.761,5.479-7.621,8.999-8.636
		c4.171-1.204,4.658-4.353,6.901-6.517c0.916-0.884,3.069-0.485,5.557-0.774c-3.449,4.369-7.085,7.729-9.109,11.877
		c-2.174,4.455-4.068,9.699-3.871,14.509c0.314,7.661,1.755,15.463,4.01,22.81c2.871,9.353,7.029,18.311,11.172,28.808
		c2.679-7.457-0.705-15.163,6.046-19.636c-5.003,11.508,1.246,22.026,2.988,32.879c-0.417,0.148-0.834,0.298-1.251,0.447
		c-1.743-3.702-3.486-7.403-5.229-11.104c-0.498,0.192-0.995,0.386-1.493,0.578c1.282,5.688,2.109,11.526,3.943,17.029
		c3.621,10.864,7.761,21.557,11.79,32.282c0.561,1.493,1.703,2.768,2.577,4.143c2.961,4.903,5.921,9.808,8.886,14.722
		c5.757-2.62,10.207-4.646,14.657-6.672c-8.414,2.937-15.085,1.062-19.972-6.685c-0.537-0.851-2.406-0.86-3.658-1.26
		c-0.92-4.228-1.84-8.454-2.761-12.682c5.216,5.574,5.25,15.36,15.382,16.247c-3.344-4.58-9.972-6.789-10.236-15.085
		c2.475,2.68,4.372,4.374,5.821,6.39c1.956,2.718,3.725,3.358,6.506,0.971c5.912-5.076,12.236-9.688,17.972-14.948
		c5.472-5.017,5.609-5.254,10.404,0.278c0.628,0.725,1.45,1.281,2.861,2.503c2.363-5.635,8.848-8.752,6.263-16.357
		c8.24,0.221,10.294-6.477,13.876-11.379c1.171-1.603,2.036-3.428,3.041-5.151L308.939,425.022z M245.022,503.581
		c-7.43-0.134-15.125,1.039-21.12,9.181c8.817,1.007,15.731-2.466,22.538-4.63C245.932,506.499,245.517,505.166,245.022,503.581z
		 M75.38,276.534c10.068-10.152,19.483-19.646,24.588-24.794C94.115,256.083,84.223,265.064,75.38,276.534z M113.624,441.247
		c-5.037-6.14-9.592-11.69-14.146-17.242C101.153,433.35,107.935,441.518,113.624,441.247z M180.045,359.018
		c-0.185,0.6-0.371,1.199-0.556,1.8c4.33,1.311,8.649,2.661,13.022,3.805c0.204,0.053,1.445-2.428,1.269-2.569
		c-2.042-1.646-4.263-3.068-6.437-4.55c-0.244,0.389-0.488,0.776-0.732,1.165c0.861,0.583,1.722,1.166,3.207,2.173
		C186.044,360.137,183.045,359.577,180.045,359.018z M96.465,422.058c0.542-0.324,1.085-0.647,1.627-0.972
		c-2.973-4.675-5.945-9.35-8.917-14.024c-0.436,0.252-0.871,0.503-1.306,0.755C90.734,412.563,93.6,417.311,96.465,422.058z"/>
	<path fill-rule="evenodd" clip-rule="evenodd" d="M309.059,424.91c-1.936,0.913-3.871,1.826-5.958,2.811
		c-0.401-0.72-0.81-1.452-0.915-1.643c-5.482,2.449-10.675,4.77-16.664,7.445c0-2.639,0-3.694,0-5.242
		c-1.612,0.592-2.859,1.05-4.106,1.508c-0.124-0.188-0.249-0.376-0.374-0.564c3.445-2.942,6.891-5.885,10.337-8.827
		c-0.422-0.464-0.843-0.929-1.264-1.393c-1.619,1.094-3.239,2.188-4.858,3.282c-0.357-0.345-0.715-0.69-1.071-1.036
		c8.224-10.395,16.446-20.79,24.885-31.457c-0.17-0.195-1.047-1.201-2.022-2.32c-1.458,0.971-2.682,1.786-3.593,2.393
		c-1.137-0.787-2.108-1.462-3.48-2.412c-0.451-2.81,7.28-4.872,1.433-9.326c2.271-2.964,4.555-5.944,7.144-9.323
		c-2.006-1.13-3.629-2.044-5.621-3.166c1.341-1.818,2.575-3.491,4.813-6.526c-2.556-0.166-4.19-0.267-5.824-0.382
		c-1.488-0.104-2.975-0.227-4.975-0.381c-1.188,3.769-1.978,8.42-4.084,12.369c-2.305,4.321-5.557,8.24-8.898,11.872
		c-2.902,3.154-8.176,2.028-10.71-1.996c-6.228-9.886-1.953-29.081,4.725-34.963c6.979-6.147,10.925-5.4,15.146,2.896
		c0.439,0.865,0.783,1.779,1.941,4.436c1.654-2.815,2.688-4.551,3.697-6.3c0.396-0.688,0.791-1.385,1.094-2.115
		c0.723-1.744,1.391-3.511,2.081-5.269c-1.657-0.333-3.314-0.666-5.357-1.077c0.395-1.039,0.814-2.144,1.313-3.458
		c-1.71,0.738-3.275,1.416-4.842,2.093c-0.265-0.303-0.528-0.605-0.793-0.908c1.053-0.991,2.196-1.906,3.131-2.999
		c0.806-0.942,1.373-2.089,2.047-3.146c-1.117-0.407-2.206-0.952-3.357-1.19c-1.622-0.335-3.29-0.442-5.244-0.686
		c1.617-2.161,3.564-4.157,4.703-6.54c0.576-1.207,0.191-4.093-0.63-4.513c-2.249-1.148-3.435-5.864-7.532-2.325
		c-2.188,1.891-5.408,2.585-8.163,3.82c-0.328-0.527-0.657-1.054-0.985-1.58c1.662-2.124,3.325-4.248,5.714-7.301
		c-3.731,1.981-6.563,3.485-10.488,5.57c1.516-4.966,0.341-7.687-3.834-8.6c2.792-2.663,5.366-4.91,7.604-7.453
		c0.391-0.442-0.638-2.134-1.169-3.723c1.347-1.451,3.11-3.352,4.498-4.847c-1.854-0.325-3.986-0.698-7.505-1.313
		c4.971-4.151,8.516-7.112,12.061-10.073c-0.258-0.332-0.516-0.664-0.773-0.996c-1.926,1.113-3.853,2.228-5.778,3.341
		c-0.354-0.188-0.706-0.377-1.06-0.565c0.86-1.815,1.455-3.834,2.65-5.391c1.335-1.737,3.215-3.055,5.407-5.057
		c-1.754-0.093-2.454-0.13-3.631-0.192c2.559-4.788,4.967-9.296,7.374-13.801c-0.001,0.002-0.016,0.009-0.016,0.009
		c5.567-2.522,10.934-13.365,9.32-19.137c-0.275-0.983-1.197-2.198-2.103-2.527c-7.166-2.604-14.313-5.343-21.653-7.353
		c-3.507-0.96-7.536,0.096-11.132-0.678c-7.577-1.63-15.023-3.869-22.527-5.847c-3.365-0.888-6.719-1.836-10.121-2.55
		c-0.78-0.163-1.738,0.524-3.48,1.112c-0.744-0.581-2.329-1.821-3.915-3.061c0.098-0.349,0.197-0.696,0.295-1.045
		c12.187,2.825,24.373,5.651,36.56,8.477c0.106-0.426,0.212-0.851,0.319-1.275c-3.968-1.031-7.935-2.063-11.902-3.094
		c-0.015-0.114-0.029-0.229-0.044-0.343c3.75,0.295,7.499,0.59,11.185,0.88c6.618-37.547,11.295-75.043,24-110.85
		c-1.667,6.928-3.274,13.871-5.024,20.778c-0.977,3.854-2.288,7.624-3.234,11.484c-0.282,1.149-0.21,3.357,0.329,3.584
		c4.563,1.919,2.448,4.955,2.106,8.184c-0.567,5.361-0.154,10.827-0.154,16.571c4.184-3.705,8.022-7.104,11.909-10.546
		c2.892,4.196,2.461,8.778-0.937,11.426c4.954,4.163,0.379,8.275-0.638,12.474c0.476,0.226,0.952,0.451,1.428,0.677
		c1.833-2.646,3.666-5.293,5.519-7.969c2.584,2.388,7.374,1.259,11.01-2.103c2.762-2.554,5.8-4.81,8.898-7.348
		c-1.019,3.209-1.886,5.94-2.753,8.672c0.725,0.445,1.449,0.891,2.175,1.336c6.821-7.021,13.643-14.042,19.598-20.171
		c-1.429-3.683-2.817-6.035-3.216-8.545c-0.797-5.025,1.114-7.658,6.108-7.353c5.374,0.329,8.025-2.905,10.259-6.456
		c3.668-5.831,7.204-11.845,9.896-18.164c3.176-7.457,5.803-15.214,7.854-23.054c1.007-3.852,0.174-8.185,0.817-12.281
		c3.839,9.419-0.182,18.647,0.023,28.153c1.022-4.405,2.046-8.812,3.336-14.364c0,8.151-0.019,14.952,0.005,21.752
		c0.021,6.094,8.311,16.504,13.652,19.266c5.664,2.929,10.511,7.395,15.922,10.865c10.808,6.933,21.788,13.596,32.627,20.48
		c2.889,1.835,5.34,4.406,8.325,6.023c2.937,1.592,6.218,2.829,9.493,3.439c3.611,0.672,4.563,3.867,6.844,5.632
		c5.42,4.195,11.322,7.924,17.446,11.018c8.831,4.461,18.097,8.058,27.027,12.334c2.054,0.984,3.504,3.23,5.231,4.896
		c-0.213,0.403-0.426,0.807-0.639,1.21c1.871-0.348,3.741-0.695,5.611-1.042c0.253-0.515,0.505-1.028,0.758-1.543
		c-5.137-2.767-10.274-5.534-15.412-8.301c0.28-0.724,0.561-1.447,0.841-2.171c1.695,0.467,3.509,0.69,5.062,1.449
		c4.176,2.042,8.089,4.711,12.4,6.362c3.19,1.222,6.843,1.62,10.289,1.619c1.546-0.001,3.091-1.877,5.201-3.275
		c-0.669,3.813-1.121,7.749-2.1,11.55c-0.783,3.043-2.434,5.857-3.288,8.889c-1.225,4.351-2.894,6.78-7.605,3.468
		c-0.783-0.551-2.922-0.461-3.477,0.172c-2.546,2.901-4.751,6.102-6.218,9.983c1.007-0.603,2.015-1.205,3.021-1.808
		c0.168,0.175,0.336,0.351,0.503,0.525c-0.554,0.715-0.992,1.572-1.679,2.121c-12.045,9.631-23.992,19.39-36.228,28.774
		c-10.253,7.864-20.93,15.175-31.22,22.994c-1.893,1.438-2.355,5.188-4.294,6.063c-8.044,3.628-13.316,12.1-22.809,12.981
		c-1.578,0.146-3.354-0.003-4.805-0.592c-11.596-4.7-23.131-9.55-34.701-14.313c-0.685-0.281-2.046-0.525-2.187-0.276
		c-1.953,3.472-4.113,0.751-5.838,0.042c-12.815-5.27-25.553-10.729-38.435-16.179c1.829,4.397,3.865,9.291,6.034,14.505
		c-1.107-0.205-1.703-0.315-2.545-0.471c0.288,0.715,0.581,1.29,0.756,1.899c2.261,7.91,4.506,15.824,6.836,24.024
		c1.551-0.213,2.896-0.396,4.879-0.669c-3.19,3.109-5.88,5.73-8.791,8.568c3.011,4.585,6.456,9.83,9.672,14.727
		c0,5.589,0.717,11.279-0.177,16.704c-1.189,7.221-2.834,14.579-5.719,21.259c-4.633,10.725-10.327,21.002-15.838,31.327
		c-1.331,2.494-3.67,4.462-5.595,6.627c-2.403,2.703-4.859,5.359-7.293,8.036C308.939,425.022,309.059,424.91,309.059,424.91z
		 M282.597,365.365c-4.966,6.325-1.944,12.089-3.205,17.272c0.379,0.238,0.758,0.478,1.137,0.717
		c3.228-3.498,6.455-6.996,9.683-10.494c-0.195-0.473-0.39-0.946-0.584-1.42c-1.756,0.178-3.511,0.354-5.064,0.512
		C284.087,370.357,283.553,368.565,282.597,365.365z M352.055,136.324c8.706-3.646,12.129-9.106,10.469-16.376
		C359.462,124.737,355.996,130.158,352.055,136.324z M448.397,244.762c-0.03-0.346-0.062-0.69-0.093-1.035c-6.5,0-13.001,0-19.501,0
		c0.004,0.381,0.008,0.762,0.013,1.143c2.673-0.278,5.346-0.557,8.018-0.835c0.013,0.165,0.025,0.33,0.038,0.495
		c-0.653,0.273-1.307,0.547-1.96,0.82c0.075,0.359,0.151,0.719,0.227,1.078C439.559,245.872,443.979,245.317,448.397,244.762z
		 M458.182,239.516c3.591,3.133,12.468,2.609,16.053,0C468.942,239.516,463.563,239.516,458.182,239.516z"/>
	<path fill-rule="evenodd" clip-rule="evenodd" d="M204.626,290.269c2.22-2.492,2.431-9.521,9.578-9.706
		c0.029,0.055,0.337,0.502,0.28,0.556c-5.971,5.575-6.839,13.304-7.35,20.529c-1.218,17.234-15.975,23.416-27.853,24.909
		c-7.185,0.902-15.08-7.852-14.411-15.074c0.901-9.729,6.513-15.39,16.146-16.849c3.577-0.541,6.102-4.029,10.34-3.642
		C195.229,291.348,199.201,290.617,204.626,290.269z M181.64,316.226c0.079-2.739,3.221-6.241-1.499-7.34
		c-1.183-0.275-3.755,1.276-4.153,2.491C174.305,316.514,180.018,314.024,181.64,316.226z"/>
	<path fill-rule="evenodd" clip-rule="evenodd" d="M131.548,283.747c-2.22,3.395-4.096,7.263-6.873,10.31
		c-6.999,7.679-21.572,9.898-30.123,5.49c-3.971-2.047-6.522-4.764-6.498-9.145c0.027-4.832,2.658-8.289,6.927-10.58
		c3.352-1.799,6.617-3.759,9.897-5.686c5.795-3.405,20.723-2.049,23.662,2.378C129.764,278.357,130.297,280.657,131.548,283.747z"/>
	<path fill-rule="evenodd" clip-rule="evenodd" d="M197.958,260.746c0.207,6.404-3.049,10.104-7.946,13.866
		c-5.582,4.289-11.52,6.167-18.175,6.944c-3.529,0.412-13.956-4.912-14.225-8.229c-0.258-3.177,0.474-7.243,2.381-9.634
		c5.518-6.916,12.264-12.146,21.693-13.43c7.553-1.029,12.789,0.342,15.232,5.843C197.55,257.527,197.626,259.193,197.958,260.746z"
		/>
	<path fill-rule="evenodd" clip-rule="evenodd" d="M142.868,118.44c2.163,0,3.835,0.147,5.474-0.025
		c7.216-0.758,14.417-1.676,21.642-2.322c0.729-0.065,1.903,1.153,2.332,2.037c3.097,6.381,6.007,12.853,9.098,19.236
		c0.629,1.301,1.769,2.354,2.869,3.772c-4.875,11.521-13.311,14.868-26.679,9.934c-1.959-0.724-3.902-1.493-6.279-2.405
		c1.109-0.738,1.999-1.332,2.926-1.949c-0.243-0.144-0.509-0.435-0.693-0.39c-4.23,1.039-6.033-1.895-7.734-4.81
		c-2.349-4.024-4.508-8.159-6.837-12.194c-1.695-2.937-3.325-5.578,1.361-7.534C141.635,121.252,142.305,119.232,142.868,118.44z
		 M178.405,138.606c0.27-0.142,0.539-0.283,0.808-0.424c-2.674-6.012-5.227-12.082-8.123-17.984
		c-0.582-1.186-2.603-2.604-3.726-2.427c-6.078,0.955-12.082,2.378-18.29,3.677c7.689,15.918,11.075,18.012,26.35,16.461
		c-0.708-1.991-1.377-3.874-2.046-5.756c0.188-0.091,0.377-0.181,0.565-0.271C175.431,134.123,176.918,136.365,178.405,138.606z"/>
	<path fill-rule="evenodd" clip-rule="evenodd" d="M264.969,251.629c-2.129,1.317-3.818,2.188-5.312,3.316
		c-9.063,6.849-19.034,10.082-30.185,6.579c-10.027-3.15-11.369-8.842-3.498-15.604c4.842-4.16,10.452-7.645,16.183-10.497
		c7.452-3.71,20.563,3.796,22.054,12.045C264.476,248.925,264.741,250.381,264.969,251.629z M240.353,247.325
		c-2.296,0.313-4.314,0.13-5.742,0.962c-0.807,0.471-1.244,3.558-0.812,3.831c1.871,1.186,4.125,1.769,6.553,2.69
		C240.353,252.101,240.353,250.337,240.353,247.325z"/>
	<path fill-rule="evenodd" clip-rule="evenodd" d="M516.109,87.533c-5.729-4.412-11.14-8.451-16.401-12.679
		c-3.358-2.697-6.406-5.781-9.76-8.485c-2.287-1.845-4.79-3.454-7.323-4.955c-6.879-4.076-13.911-7.9-20.709-12.106
		c-3.225-1.996-5.814-5.054-9.101-6.906c-10.769-6.07-21.812-11.657-32.537-17.8c-2.188-1.253-3.453-4.113-5.21-6.315
		c0.611-0.212,1-0.495,1.203-0.396c9.537,4.611,19.037,9.298,28.595,13.864c2.214,1.059,4.707,1.541,6.897,2.637
		c1.28,0.641,2.271,1.918,3.293,3.003c1.199,1.273,2.16,2.812,3.506,3.882c0.422,0.336,2.548-0.502,2.538-0.748
		c-0.064-1.622-0.499-3.23-1.087-6.248c3.411,1.452,6.787,2.387,9.588,4.205c3.745,2.432,7.341,5.257,10.469,8.436
		c5.07,5.15,9.555,10.876,14.606,16.046c1.948,1.994,4.764,3.147,7.205,4.65c0.396,0.244,1.111,0.172,1.322,0.485
		C507.507,74.512,511.758,80.957,516.109,87.533z"/>
	<path fill-rule="evenodd" clip-rule="evenodd" d="M157.941,248.085c-5.651-0.45-11.137-0.756-13.453-5.99
		c-2.312-5.225,0.282-10.349,4.398-13.26c4.419-3.126,10.071-4.454,15.009-6.919c5.039-2.517,8.874-0.36,12.577,2.618
		c3.816,3.069,4.831,9.449,1.321,12.922C172.176,243.017,165.84,247.782,157.941,248.085z"/>
	<path fill-rule="evenodd" clip-rule="evenodd" d="M243.447,382.808c-2.995,3.457-5.187,1.539-7.146-1.145
		c-8.284-11.344-7.087-22.596,2.832-32.702c2.34-2.384,3.421-5.618,7.497-6.222c7.935-1.175,11.198,0.338,10.943,8.262
		c-0.24,7.448-2.768,14.828-4.399,22.214c-0.151,0.685-1.103,1.191-1.682,1.78c0.247-1.457,0.493-2.912,0.728-4.306
		c-1.537-1.091-2.771-2.347-4.264-2.892c-0.987-0.361-2.576-0.028-3.465,0.602c-0.705,0.498-1.061,1.936-1.007,2.926
		c0.049,0.899,1.253,1.762,1.246,2.635c-0.013,1.597-0.544,3.189-0.859,4.783c-1.313-0.976-2.753-1.825-3.885-2.979
		c-0.603-0.614-0.671-1.755-1.359-3.765C237.513,381.464,238.089,382.563,243.447,382.808z"/>
	<path fill-rule="evenodd" clip-rule="evenodd" d="M388.621,102.664c-0.389-4.809,1.138-7.318,4.644-8.336
		c5.3-1.539,10.438-1.97,14.943,2.327c3.457,3.299,7.541,6.011,10.648,9.59c4.5,5.184,4.169,11.987-0.063,16.358
		c-2.893,2.988-12.014,3.231-16.109,0.988C393.859,118.759,390.248,110.803,388.621,102.664z M412.285,107.163
		c-3.485,2.556-6.541,4.797-9.56,7.011c5.866,3.613,7.286,3.345,10.818-1.639C415.733,109.446,413.32,108.247,412.285,107.163z
		 M410.815,123.133c4.081,0.183,7.101-1.769,8.758-5.547c0.418-0.952-0.478-2.479-0.843-4.062
		C415.744,117.149,413.405,119.989,410.815,123.133z"/>
	<path fill-rule="evenodd" clip-rule="evenodd" d="M468.097,112.367c-1.201,2.375-2.318,8.008-4.802,8.694
		c-3.688,1.02-9.17-0.35-12.38-2.733c-4.093-3.039-6.841-7.992-9.862-12.333c-1.978-2.84-0.863-11.907,1.791-13.505
		c3.804-2.291,8.07-2.939,12.17-0.405C462.051,96.435,467.304,102.038,468.097,112.367z M460.937,107.995
		c-3.031,0.563-5.737,1.064-8.789,1.631c2.507,4.967,6.24,1.597,9.807,1.54C461.475,109.672,461.136,108.615,460.937,107.995z"/>
	<path fill-rule="evenodd" clip-rule="evenodd" d="M491.552,82.269c3.399,2.463,6.696,3.876,8.509,6.368
		c3.782,5.199,6.841,10.934,10.074,16.52c1.755,3.032,0.271,7.496-2.774,8.968c-2.952,1.426-6.616-0.209-8.285-3.316
		c-0.632-1.176-1.985-2.108-3.21-2.8c-6.938-3.917-10.95-13.326-8.408-20.614C488.005,85.823,489.62,84.624,491.552,82.269z
		 M503.41,106.034c0-3.72,0-5.902,0-8.654c-2.577,1.208-4.54,2.128-6.946,3.256C498.506,102.222,500.341,103.648,503.41,106.034z"/>
	<path fill-rule="evenodd" clip-rule="evenodd" d="M476.045,398.674c0.449,3.255,0.719,5.336,1.027,7.411
		c0.281,1.885,1.065,3.414-2.214,3.946c-4.951,0.805-9.681,2.896-14.605,3.984c-1.713,0.379-3.947-0.19-5.541-1.063
		c-1.84-1.007-3.152-2.932-4.841-4.273c-4.619-3.671-4.146-8.746,1.135-11.514c2.484-1.303,4.857-2.889,7.461-3.868
		c1.727-0.649,4.049-1.135,5.623-0.5C468.523,394.586,472.707,396.99,476.045,398.674z M471.334,400.453
		c-2.97-2.408-5.793-4.697-7.96-6.455c-4.24,2.012-7.776,3.688-11.175,5.3C459.252,405.956,463.482,406.39,471.334,400.453z"/>
	<path fill-rule="evenodd" clip-rule="evenodd" d="M309.75,120.269c0.94-9.223,6.351-15.255,11.67-21.145
		c1.052-1.165,4.037-1.106,5.938-0.704c0.688,0.146,1.54,3.215,1.074,4.497c-2.424,6.659-4.9,13.351-8.121,19.641
		c-1.158,2.263-4.441,3.438-6.755,5.108C312.288,125.2,311.019,122.734,309.75,120.269z"/>
	<path fill-rule="evenodd" clip-rule="evenodd" d="M536.902,319.137c5.53,1.661,5.153-4.431,8.034-6.333
		c2.662,7.273-0.637,12.29-9.22,15.002c-5.233,1.653-9.342,0.419-12.845-3.583c-1.092-1.248-2.195-2.486-3.335-3.69
		c-6.521-6.892-4.052-15.617,5.252-18.353c1.813-0.533,3.72-0.749,5.896-0.087c-2.985,1.263-5.971,2.525-9.832,4.157
		c4.476,4.169,8.209,7.646,11.942,11.123c-0.463,2.815-0.925,5.631-1.576,9.597c3.786-1.49,6.249-2.46,8.713-3.429
		c0.536-0.85,1.072-1.698,1.609-2.547C539.994,320.375,538.448,319.756,536.902,319.137z"/>
	<path fill-rule="evenodd" clip-rule="evenodd" d="M328.789,123.905c2.819-8.735,5.874-16.389,12.44-21.99
		c0.781-0.667,2.806-0.816,3.622-0.268c1.048,0.705,2.252,2.548,2.011,3.575c-1.51,6.418-3.304,12.777-5.254,19.077
		c-0.402,1.3-1.659,2.67-2.886,3.3c-1.934,0.993-4.686,2.461-6.156,1.762C330.747,128.495,329.883,125.622,328.789,123.905z"/>
	<path fill-rule="evenodd" clip-rule="evenodd" d="M338.625,67.589c-2.503-12.757,5.352-20.738,14.747-28.404
		c6.549,6.747,0.366,12.123-1.381,17.913C349.997,63.706,346.67,68.447,338.625,67.589z"/>
	<path fill-rule="evenodd" clip-rule="evenodd" d="M410.337,17.894c-2.03-0.619-4.058-1.251-6.092-1.855
		c-9.446-2.806-18.104-8.569-28.817-6.449c-8.183,1.618-16.46,2.52-23.212,8.604c0.325-0.723,0.458-1.675,1.005-2.133
		c8.043-6.743,17.448-9.247,27.817-10.359c9.883-1.061,18.084,3.945,27.186,5.461c1.313,0.219,2.151,3.275,3.209,5.02
		C411.067,16.752,410.702,17.322,410.337,17.894z"/>
	<path fill-rule="evenodd" clip-rule="evenodd" d="M307.166,91.77c-0.327,2.031-0.343,4.207-1.05,6.128
		c-2.267,6.162-4.59,12.323-7.354,18.27c-0.688,1.479-3.119,2.146-5.159,2.7c1.331-1.787,2.661-3.575,4.803-6.452
		c-3.469,0.248-5.636,0.403-7.761,0.556C294.131,99.177,300.092,91.707,307.166,91.77z"/>
	<path fill-rule="evenodd" clip-rule="evenodd" d="M101.06,176.496c-3.488,1.414-7.801,3.163-12.956,5.253
		c8.07,5.917,8.07,5.917,14.858,0.188c-0.696,2.301-1.421,5.643-2.805,8.687c-0.415,0.913-2.839,1.653-4.04,1.334
		c-3.959-1.053-7.78-2.626-11.592-3.979C85.418,179.545,94.833,173.887,101.06,176.496z"/>
	<path fill-rule="evenodd" clip-rule="evenodd" d="M396.089,141.849c-15.531-7.296-28.043-21.385-24.355-34.203
		c1.753,4.741,2.927,9.184,5.007,13.15c1.679,3.201,4.123,6.198,6.829,8.61c2.773,2.472,7.412,2.743,7.938,7.833
		C391.646,138.576,393.863,139.697,396.089,141.849z"/>
	<path fill-rule="evenodd" clip-rule="evenodd" fill="#FFFFFF" d="M243.447,382.808c-5.358-0.244-5.934-1.344-4.822-10.808
		c0.688,2.01,0.756,3.15,1.359,3.765c1.131,1.153,2.572,2.003,3.885,2.979c0.315-1.594,0.847-3.187,0.859-4.783
		c0.007-0.873-1.197-1.735-1.246-2.635c-0.054-0.99,0.302-2.428,1.007-2.926c0.89-0.63,2.479-0.963,3.465-0.602
		c1.493,0.545,2.727,1.801,4.264,2.892c-0.235,1.394-0.481,2.849-0.728,4.306C248.809,377.601,246.128,380.204,243.447,382.808z"/>
	<path fill-rule="evenodd" clip-rule="evenodd" d="M217.739,402.264c0.571-4.511,1.142-9.021,1.696-13.405
		c4.342-1.079,8.673-2.155,13.793-3.429c-5.195,6.084-9.886,11.577-14.577,17.069C218.347,402.421,218.043,402.342,217.739,402.264z
		"/>
	<path fill-rule="evenodd" clip-rule="evenodd" d="M380.004,18.596c2.027,6.602-1.779,24.603-5.778,26.852
		C377.703,37.15,373.32,27.191,380.004,18.596z"/>
	<path fill-rule="evenodd" clip-rule="evenodd" d="M212.795,376.17c-7.716-6.334-1.762-12.707-1.596-18.634
		c0.055-1.967,2.89-3.856,5.188-6.686C215.056,360.235,213.976,367.849,212.795,376.17z"/>
	<path fill-rule="evenodd" clip-rule="evenodd" d="M45.606,445.201c-1.263,0.928-3.739,2.817-6.294,4.593
		c-1.217,0.846-2.536,1.985-3.893,2.115c-7.932,0.763-15.889,1.265-23.837,1.854c-0.097-0.41-0.193-0.82-0.29-1.23
		C23.154,449.999,35.015,447.464,45.606,445.201z"/>
	<path fill-rule="evenodd" clip-rule="evenodd" d="M446.781,172.249c-11.216-7.184-22.432-14.368-33.647-21.552
		c0.242-0.408,0.484-0.817,0.727-1.226c5.635,3.476,11.297,6.909,16.897,10.44c5.665,3.572,11.27,7.241,16.9,10.868
		C447.366,171.27,447.073,171.76,446.781,172.249z"/>
	<path fill-rule="evenodd" clip-rule="evenodd" d="M55.977,262.812c-4.732,7.262-9.464,14.524-14.917,22.892
		C41.067,278.97,47.836,268.579,55.977,262.812z"/>
	<path fill-rule="evenodd" clip-rule="evenodd" d="M362.785,61.07c1.193,0.348,2.386,0.695,3.681,1.072
		c0.807-1.538,1.642-3.127,2.476-4.716c0.497,0.122,0.993,0.245,1.489,0.367c-0.327,4.412-0.653,8.823-0.98,13.235
		c-0.369,0.12-0.738,0.241-1.107,0.362c-2.161-3.087-4.322-6.173-6.483-9.26C362.168,61.778,362.477,61.424,362.785,61.07z"/>
	<path fill-rule="evenodd" clip-rule="evenodd" d="M286.036,237.989c-2.406-1.517-4.813-3.033-7.218-4.549
		c6.797-1.737,12.783,3.342,12.777,10.726c-1.171,0.378-2.305,0.743-3.443,1.108c-0.739-2.459-1.474-4.916-2.208-7.374
		L286.036,237.989z"/>
	<path fill-rule="evenodd" clip-rule="evenodd" fill="#FFFFFF" d="M536.902,319.137c1.546,0.619,3.092,1.238,4.639,1.857
		c-0.537,0.849-1.073,1.697-1.609,2.547c-2.464,0.969-4.927,1.938-8.713,3.429c0.651-3.966,1.113-6.781,1.576-9.597
		C534.164,317.961,535.533,318.549,536.902,319.137z"/>
	<path fill-rule="evenodd" clip-rule="evenodd" d="M518.374,125.324c2.453,3.535,4.474,2.249,6.304-1.156
		c0.447,0.43,0.894,0.859,1.341,1.289c-0.137,3.058-0.273,6.115-0.409,9.172c-0.443,0.293-0.887,0.587-1.331,0.88
		c-2.26-2.919-4.521-5.839-6.78-8.758C517.79,126.275,518.082,125.8,518.374,125.324z"/>
	<path fill-rule="evenodd" clip-rule="evenodd" d="M374.836,23.153c-0.909,7.573-1.817,15.146-2.727,22.72
		c-0.609-0.071-1.219-0.143-1.828-0.214c0.859-7.573,1.719-15.147,2.578-22.721C373.519,23.01,374.177,23.082,374.836,23.153z"/>
	<path fill-rule="evenodd" clip-rule="evenodd" d="M285.944,237.9c-0.233,1.44-0.904,2.978-0.616,4.305
		c0.814,3.754-0.892,4.58-3.981,3.737c-1.418-0.388-2.655-1.436-3.974-2.184c0.979-0.96,1.834-2.119,2.969-2.834
		c1.8-1.134,3.787-1.971,5.694-2.935C286.036,237.989,285.944,237.9,285.944,237.9z"/>
	<path fill-rule="evenodd" clip-rule="evenodd" d="M213.952,217.351c-5.81-1.027-11.086-1.961-16.361-2.894
		C202.44,212.311,212.512,214.257,213.952,217.351z"/>
	<path fill-rule="evenodd" clip-rule="evenodd" d="M526.538,107.854c-1.392-5.453-2.783-10.906-4.248-16.646
		C529.748,95.126,525.718,102.155,526.538,107.854z"/>
	<path fill-rule="evenodd" clip-rule="evenodd" d="M287.279,256.38c0,0,0.015-0.007,0.016-0.009
		c-5.712,5.126-11.425,10.255-17.138,15.383c-0.283-0.315-0.567-0.631-0.852-0.945c6.176-5.555,12.352-11.108,18.527-16.662
		c0.161,0.108,0.321,0.216,0.482,0.324C287.971,255.107,287.625,255.743,287.279,256.38z"/>
	<path fill-rule="evenodd" clip-rule="evenodd" d="M261.391,460.692c-1.703-1.223-4.424-2.146-4.89-3.731
		c-0.913-3.104,0.877-3.971,3.202-1.562c1.073,1.112,1.542,2.808,2.285,4.238C261.788,459.989,261.59,460.341,261.391,460.692z"/>
	<path fill-rule="evenodd" clip-rule="evenodd" d="M269.203,241.06c1.712-1.172,2.774-2.229,4.03-2.568
		c0.402-0.108,2.081,2.108,1.851,2.521c-0.608,1.088-1.843,2.048-3.037,2.474C271.58,243.652,270.556,242.259,269.203,241.06z"/>
	<path fill-rule="evenodd" clip-rule="evenodd" d="M342.732,30.237c-2.309,3.011-4.618,6.021-6.928,9.032
		c-0.381-0.296-0.762-0.591-1.142-0.887c2.295-3.021,4.59-6.042,6.885-9.063C341.942,29.625,342.338,29.931,342.732,30.237z"/>
	<path fill-rule="evenodd" clip-rule="evenodd" fill="#FFFFFF" d="M245.022,503.581c0.494,1.585,0.909,2.918,1.418,4.551
		c-6.807,2.164-13.721,5.637-22.538,4.63C229.897,504.62,237.593,503.447,245.022,503.581z"/>
	<path fill-rule="evenodd" clip-rule="evenodd" fill="#FFFFFF" d="M239.929,474.124c1.251,0.399,3.121,0.409,3.658,1.26
		c4.887,7.746,11.558,9.621,19.972,6.685c-4.45,2.026-8.9,4.052-14.657,6.672c-2.965-4.914-5.925-9.818-8.886-14.722
		C240.015,474.02,239.929,474.124,239.929,474.124z"/>
	<path fill-rule="evenodd" clip-rule="evenodd" fill="#FFFFFF" d="M75.38,276.534c8.842-11.47,18.734-20.451,24.588-24.794
		C94.863,256.889,85.448,266.382,75.38,276.534z"/>
	<path fill-rule="evenodd" clip-rule="evenodd" fill="#FFFFFF" d="M113.624,441.247c-5.689,0.271-12.471-7.897-14.146-17.242
		C104.032,429.557,108.587,435.107,113.624,441.247z"/>
	<path fill-rule="evenodd" clip-rule="evenodd" fill="#FFFFFF" d="M180.045,359.018c3,0.56,5.999,1.119,9.774,1.823
		c-1.485-1.007-2.346-1.59-3.207-2.173c0.244-0.389,0.488-0.776,0.732-1.165c2.174,1.481,4.395,2.904,6.437,4.55
		c0.176,0.142-1.065,2.622-1.269,2.569c-4.374-1.144-8.693-2.494-13.022-3.805C179.675,360.217,179.86,359.617,180.045,359.018z"/>
	<path fill-rule="evenodd" clip-rule="evenodd" fill="#FFFFFF" d="M96.465,422.058c-2.865-4.747-5.73-9.494-8.596-14.241
		c0.435-0.252,0.87-0.503,1.306-0.755c2.973,4.675,5.945,9.35,8.917,14.024C97.55,421.41,97.007,421.733,96.465,422.058z"/>
	<path fill-rule="evenodd" clip-rule="evenodd" fill="#FFFFFF" d="M282.597,365.365c0.956,3.2,1.49,4.992,1.966,6.587
		c1.554-0.157,3.309-0.334,5.064-0.512c0.194,0.474,0.389,0.947,0.584,1.42c-3.228,3.498-6.455,6.996-9.683,10.494
		c-0.379-0.239-0.758-0.479-1.137-0.717C280.652,377.454,277.631,371.69,282.597,365.365z"/>
	<path fill-rule="evenodd" clip-rule="evenodd" fill="#FFFFFF" d="M352.055,136.324c3.941-6.166,7.407-11.587,10.469-16.376
		C364.184,127.218,360.761,132.678,352.055,136.324z"/>
	<path fill-rule="evenodd" clip-rule="evenodd" fill="#FFFFFF" d="M448.397,244.762c-4.419,0.556-8.839,1.11-13.259,1.666
		c-0.075-0.359-0.151-0.719-0.227-1.078c0.653-0.273,1.307-0.547,1.96-0.82c-0.013-0.165-0.025-0.33-0.038-0.495
		c-2.672,0.278-5.345,0.557-8.018,0.835c-0.005-0.381-0.009-0.762-0.013-1.143c6.5,0,13.001,0,19.501,0
		C448.336,244.071,448.367,244.416,448.397,244.762z"/>
	<path fill-rule="evenodd" clip-rule="evenodd" fill="#FFFFFF" d="M458.182,239.516c5.381,0,10.761,0,16.053,0
		C470.649,242.125,461.772,242.648,458.182,239.516z"/>
	<path fill-rule="evenodd" clip-rule="evenodd" fill="#FFFFFF" d="M181.64,316.226c-1.622-2.201-7.335,0.288-5.651-4.849
		c0.398-1.215,2.97-2.767,4.153-2.491C184.861,309.984,181.718,313.486,181.64,316.226z"/>
	<path fill-rule="evenodd" clip-rule="evenodd" fill="#FFFFFF" d="M178.405,138.606c-1.487-2.241-2.975-4.483-4.462-6.725
		c-0.188,0.091-0.376,0.181-0.565,0.271c0.669,1.882,1.338,3.765,2.046,5.756c-15.275,1.551-18.661-0.543-26.35-16.461
		c6.208-1.299,12.212-2.722,18.29-3.677c1.124-0.177,3.145,1.241,3.726,2.427c2.896,5.902,5.449,11.973,8.123,17.984
		C178.944,138.323,178.675,138.465,178.405,138.606z M157.407,123.565c5.075-2.903,9.324-0.877,13.406,2.305
		C165.888,119.993,165.305,119.893,157.407,123.565z"/>
	<path fill-rule="evenodd" clip-rule="evenodd" fill="#FFFFFF" d="M240.353,247.325c0,3.012,0,4.775,0,7.483
		c-2.429-0.922-4.682-1.505-6.553-2.69c-0.432-0.273,0.004-3.36,0.812-3.831C236.038,247.455,238.057,247.639,240.353,247.325z"/>
	<path fill-rule="evenodd" clip-rule="evenodd" fill="#FFFFFF" d="M412.285,107.163c1.035,1.084,3.448,2.283,1.259,5.372
		c-3.532,4.983-4.952,5.252-10.818,1.639C405.744,111.96,408.8,109.719,412.285,107.163z"/>
	<path fill-rule="evenodd" clip-rule="evenodd" fill="#FFFFFF" d="M410.815,123.133c2.59-3.144,4.929-5.983,7.915-9.608
		c0.365,1.582,1.261,3.109,0.843,4.062C417.916,121.364,414.896,123.315,410.815,123.133z"/>
	<path fill-rule="evenodd" clip-rule="evenodd" fill="#FFFFFF" d="M460.937,107.995c0.199,0.62,0.538,1.677,1.018,3.171
		c-3.566,0.057-7.3,3.427-9.807-1.54C455.199,109.06,457.905,108.558,460.937,107.995z"/>
	<path fill-rule="evenodd" clip-rule="evenodd" fill="#FFFFFF" d="M503.41,106.034c-3.069-2.386-4.904-3.813-6.946-5.398
		c2.406-1.128,4.369-2.048,6.946-3.256C503.41,100.132,503.41,102.314,503.41,106.034z"/>
	<path fill-rule="evenodd" clip-rule="evenodd" fill="#FFFFFF" d="M471.334,400.453c-7.852,5.937-12.082,5.503-19.135-1.155
		c3.398-1.611,6.935-3.288,11.175-5.3C465.541,395.756,468.364,398.045,471.334,400.453z"/>
	<path fill-rule="evenodd" clip-rule="evenodd" d="M157.407,123.565c7.898-3.673,8.481-3.572,13.406,2.305
		C166.731,122.688,162.482,120.662,157.407,123.565z"/>
</g>
</svg>
