<?xml version="1.0" encoding="utf-8"?>
<!-- Generator: Adobe Illustrator 16.0.0, SVG Export Plug-In . SVG Version: 6.00 Build 0)  -->
<!DOCTYPE svg PUBLIC "-//W3C//DTD SVG 1.1//EN" "http://www.w3.org/Graphics/SVG/1.1/DTD/svg11.dtd">
<svg version="1.1" id="Layer_1" xmlns="http://www.w3.org/2000/svg" xmlns:xlink="http://www.w3.org/1999/xlink" x="0px" y="0px"
	 width="705px" height="266px" viewBox="0 0 705 266" enable-background="new 0 0 705 266" xml:space="preserve">
<g>
	<g>
		<path fill="#ED1C24" d="M342.52,118.749c-0.26-0.213-1.491-0.907-6.387-0.907h-56.316v-7.011l1.026-0.342
			c2.763-0.921,3.874-1.733,4.319-2.253c0.33-0.385,0.884-1.445,0.884-4.214V28.441c0-2.985-0.624-4.119-0.996-4.529l-0.072-0.086
			c-0.161-0.207-0.933-0.96-4.121-1.985l-1.041-0.334v-7.023h43.559v7.137l-1.179,0.258c-3.404,0.745-4.571,1.68-4.963,2.17
			c-0.482,0.603-1.056,1.974-1.056,5.085v62.568c0,9.966,1.785,12.483,2.848,13.097c0.821,0.521,1.994,0.769,3.542,0.769
			c5.664,0,11.318-3.622,16.806-10.765c4.214-5.56,7.633-12.08,10.154-19.371l0.349-1.01h5.172l-10.663,45.851L342.52,118.749z"/>
		<path fill="#FFFFFF" d="M321.875,15.983v4.43c-2.955,0.646-4.893,1.546-5.814,2.699c-0.923,1.155-1.384,3.162-1.384,6.021v62.568
			c0,8.214,1.198,13.012,3.599,14.396c1.015,0.647,2.444,0.969,4.291,0.969c6.182,0,12.182-3.783,17.996-11.351
			c4.336-5.721,7.797-12.32,10.382-19.795h2.215l-9.69,41.666c-1.017-0.831-3.46-1.246-7.336-1.246h-54.816v-4.43
			c2.492-0.831,4.153-1.73,4.983-2.699s1.246-2.699,1.246-5.191V28.441c0-2.675-0.463-4.52-1.384-5.537
			c-0.646-0.831-2.262-1.661-4.845-2.492v-4.43H321.875 M324.875,12.983h-3h-40.559h-3v3v4.43V22.6l2.082,0.669
			c2.621,0.843,3.324,1.422,3.42,1.51l0.044,0.057l0.076,0.083c0.024,0.027,0.607,0.702,0.607,3.522v75.581
			c0,2.598-0.518,3.232-0.523,3.238c-0.118,0.137-0.848,0.87-3.655,1.806l-2.051,0.684v2.162v4.43v3h3h54.816
			c4.165,0,5.322,0.52,5.479,0.602l3.689,3.014l1.091-4.69l9.69-41.666l0.856-3.68h-3.778h-2.215h-2.137l-0.698,2.02
			c-2.469,7.142-5.813,13.521-9.937,18.963c-5.177,6.738-10.431,10.163-15.605,10.163c-1.649,0-2.386-0.313-2.678-0.499
			l-0.056-0.036l-0.058-0.034c-0.086-0.049-2.098-1.33-2.098-11.797V29.134c0-3.082,0.606-3.996,0.728-4.148
			c0.074-0.093,0.814-0.92,4.112-1.642l2.359-0.516v-2.415v-4.43V12.983L324.875,12.983z"/>
	</g>
	<g>
		<path fill="#ED1C24" d="M353.457,117.842v-7.038l1.059-0.325c2.604-0.8,3.71-1.674,4.18-2.267
			c0.648-0.819,0.991-2.316,0.991-4.329V28.026c0-1.882-0.344-3.257-0.996-3.976c-0.506-0.555-1.646-1.392-4.192-2.209l-1.042-0.334
			v-7.024h43.42v7.056l-1.082,0.314c-3.539,1.027-4.505,1.722-4.756,1.973c-0.815,0.75-1.222,2.188-1.222,4.2v75.303
			c0,2.853,0.588,4.124,1.082,4.688c0.533,0.609,1.818,1.531,4.909,2.458l1.069,0.32v7.046H353.457z"/>
		<path fill="#FFFFFF" d="M395.377,15.983v4.43c-2.861,0.831-4.661,1.616-5.398,2.353c-1.107,1.017-1.661,2.769-1.661,5.26v75.303
			c0,2.678,0.484,4.568,1.453,5.676c0.969,1.107,2.838,2.076,5.606,2.907v4.43h-40.42v-4.43c2.399-0.737,4.036-1.661,4.914-2.769
			c0.876-1.107,1.315-2.859,1.315-5.26V28.026c0-2.306-0.463-3.967-1.384-4.983c-0.924-1.014-2.54-1.89-4.845-2.63v-4.43H395.377
			 M398.377,12.983h-3h-40.42h-3v3v4.43v2.188l2.083,0.668c2.436,0.782,3.29,1.515,3.544,1.794c0.289,0.318,0.602,1.268,0.602,2.963
			v75.857c0,2.37-0.512,3.201-0.668,3.399c-0.22,0.278-1.001,1.012-3.442,1.762l-2.119,0.651v2.216v4.43v3h3h40.42h3v-3v-4.43
			v-2.232l-2.138-0.642c-3.086-0.926-4.003-1.772-4.211-2.009c-0.118-0.135-0.71-0.952-0.71-3.7V28.026
			c0-1.782,0.356-2.744,0.69-3.05l0.047-0.043l0.045-0.045c0.008-0.005,0.75-0.617,4.114-1.594l2.164-0.628v-2.253v-4.43V12.983
			L398.377,12.983z"/>
	</g>
	<g>
		<path fill="#ED1C24" d="M449.385,117.842v-6.87l0.846-0.41c2.539-1.23,3.723-3.088,3.723-5.848c0-2.427-0.354-4.871-1.049-7.264
			c-0.701-2.406-1.721-4.732-3.029-6.914c-1.31-2.181-2.883-4.176-4.676-5.928c-1.793-1.749-3.769-3.258-5.868-4.484
			c-2.866-1.672-6.791-2.735-11.681-3.166l-4.385,16.514c-0.277,1.018-0.621,2.344-1.033,3.993c-0.416,1.666-0.902,3.563-1.457,5.69
			c-0.064,0.333-0.128,0.726-0.168,1.1c-0.041,0.354-0.061,0.644-0.061,0.875c0,2.093,1.459,3.877,4.459,5.455l0.801,0.422v6.835
			H397.89v-6.69l0.613-0.45c2.483-1.82,4.253-4.489,5.261-7.932l23.261-75.875c0.509-1.61,0.765-2.901,0.765-3.852
			c0-1.567-0.614-1.964-1.278-2.161l-1.074-0.317v-6.082h42.035v6.006l-0.803,0.421c-1.886,0.989-2.104,2.086-2.104,2.825
			c0,0.819,0.129,1.884,0.386,3.167l17.984,76.5c0.718,3.229,1.241,3.958,1.339,4.072l0.063,0.078
			c0.119,0.159,0.438,0.529,1.234,1.218c0.641,0.556,1.496,1.192,2.549,1.893l0.67,0.445v6.733H449.385z M430.992,64.743
			c5.023,0.164,10.221,1.868,15.5,5.076l-7.652-32.87L430.992,64.743z"/>
		<path fill="#FFFFFF" d="M465.973,15.983v3.599c-1.938,1.017-2.906,2.401-2.906,4.153c0,0.923,0.139,2.076,0.415,3.46
			l17.995,76.549c0.554,2.492,1.107,4.062,1.661,4.707c0.276,0.37,0.761,0.854,1.454,1.453c0.691,0.602,1.592,1.27,2.699,2.007v4.43
			h-36.406v-4.43c3.045-1.475,4.568-3.876,4.568-7.198c0-2.583-0.37-5.143-1.107-7.683c-0.74-2.537-1.8-4.959-3.184-7.267
			c-1.385-2.306-3.024-4.382-4.914-6.229c-1.893-1.845-3.945-3.413-6.16-4.707c-3.322-1.938-7.846-3.091-13.566-3.461l-4.706,17.719
			c-0.276,1.017-0.623,2.353-1.038,4.014c-0.416,1.661-0.9,3.554-1.453,5.675c-0.094,0.463-0.163,0.9-0.209,1.315
			c-0.047,0.415-0.068,0.761-0.068,1.038c0,2.678,1.752,4.938,5.26,6.783v4.43H399.39v-4.43c2.768-2.029,4.707-4.936,5.814-8.721
			l23.255-75.857c0.555-1.752,0.831-3.184,0.831-4.291c0-1.938-0.785-3.136-2.353-3.599v-3.46H465.973 M429.014,66.232h0.83
			c0.115-0.001,0.23-0.002,0.347-0.002c5.983,0,12.188,2.306,18.618,6.923l-9.828-42.22L429.014,66.232 M468.973,12.983h-3h-39.035
			h-3v3v3.46v2.242l2.15,0.635c0.056,0.016,0.094,0.031,0.117,0.042c0.032,0.086,0.085,0.302,0.085,0.68
			c0,0.548-0.12,1.58-0.69,3.387l-23.264,75.882c-0.937,3.201-2.477,5.537-4.719,7.18l-1.227,0.899v1.521v4.43v3h3h24.917h3v-3
			v-4.43V110.1l-1.604-0.843c-3.656-1.923-3.656-3.582-3.656-4.127c0-0.099,0.006-0.32,0.049-0.698
			c0.035-0.312,0.086-0.639,0.153-0.984c0.548-2.098,1.026-3.972,1.438-5.62c0.403-1.613,0.748-2.943,1.022-3.953l4.063-15.295
			c4.081,0.47,7.372,1.423,9.804,2.841c1.992,1.164,3.869,2.599,5.577,4.263c1.699,1.66,3.192,3.553,4.437,5.625
			c1.242,2.07,2.209,4.278,2.875,6.563c0.655,2.254,0.988,4.558,0.988,6.843c0,2.177-0.86,3.522-2.876,4.499l-1.692,0.819v1.88v4.43
			v3h3h36.406h3v-3v-4.43v-1.606l-1.338-0.891c-1-0.666-1.805-1.263-2.394-1.774c-0.776-0.672-0.998-0.957-1.021-0.987l-0.061-0.081
			l-0.025-0.029c-0.086-0.145-0.482-0.905-1.048-3.449l-17.991-76.535c-0.23-1.163-0.348-2.113-0.348-2.824
			c0-0.284,0-0.814,1.301-1.496l1.605-0.843v-1.814v-3.599V12.983L468.973,12.983z M432.938,63.374l5.763-20.41l5.563,23.898
			C440.439,64.928,436.652,63.76,432.938,63.374L432.938,63.374z"/>
	</g>
	<g>
		<path fill="#ED1C24" d="M543.791,117.842v-7.011l1.025-0.342c2.162-0.719,3.127-2.031,3.127-4.252
			c0-2.494-1.184-7.173-3.516-13.905c-1.17-3.146-2.879-7.137-5.064-11.832c-2.061-4.418-4.637-9.609-7.664-15.442l-5.535,2.075
			v35.782c0,4.371,1.648,6.764,5.188,7.532l1.182,0.256v7.139h-42.729v-7.05l1.074-0.318c2.683-0.794,3.76-1.675,4.191-2.275
			c0.439-0.611,0.963-1.926,0.963-4.73V28.441c0-2.641-0.528-3.837-0.973-4.375c-0.468-0.566-1.578-1.413-4.198-2.22l-1.058-0.327
			v-7.037h60.746c15.691,0,23.648,5.348,23.648,15.896c0,5.074-2.229,10.073-6.625,14.857c-1.279,1.281-2.924,2.736-4.934,4.371
			c-1.742,1.418-3.865,3.037-6.318,4.823c4.547,7.12,8.936,15.827,13.059,25.906c0.758,2.084,2.002,5.448,3.754,10.149
			c1.756,4.714,3.992,10.868,6.65,18.291c0.256,0.727,0.732,1.484,2.336,1.643l1.352,0.134v7.288H543.791z M533.523,25.65
			c-2.121,0-3.734,0.306-4.793,0.91c-0.926,0.58-2.566,2.846-2.566,11.156v15.52c12.041-4.116,17.902-10.656,17.902-19.95
			C544.066,30.008,542.975,25.65,533.523,25.65z"/>
		<path fill="#FFFFFF" d="M550.551,15.983c14.764,0,22.148,4.799,22.148,14.396c0,4.707-2.076,9.322-6.23,13.843
			c-1.199,1.2-2.791,2.608-4.775,4.222c-1.984,1.615-4.453,3.484-7.406,5.606c4.799,7.291,9.365,16.243,13.705,26.854
			c0.738,2.031,1.982,5.398,3.738,10.105c1.752,4.707,3.967,10.797,6.643,18.272c0.555,1.57,1.752,2.446,3.6,2.63v4.43h-36.682
			v-4.43c2.768-0.921,4.152-2.814,4.152-5.675c0-2.676-1.201-7.475-3.6-14.396c-1.199-3.229-2.906-7.22-5.121-11.974
			c-2.215-4.752-4.984-10.313-8.307-16.68l-7.752,2.907v36.821c0,5.076,2.123,8.076,6.369,8.998v4.43h-39.729v-4.43
			c2.491-0.737,4.152-1.683,4.982-2.838c0.831-1.152,1.246-3.021,1.246-5.606V28.441c0-2.492-0.439-4.267-1.314-5.329
			c-0.879-1.06-2.516-1.959-4.914-2.699v-4.43H550.551 M524.664,55.296c13.934-4.244,20.902-11.581,20.902-22.01
			c0-6.091-4.014-9.136-12.043-9.136c-2.4,0-4.244,0.37-5.537,1.107c-2.215,1.384-3.322,5.537-3.322,12.458V55.296 M550.551,12.983
			h-59.246h-3v3v4.43v2.214l2.115,0.652c2.545,0.785,3.313,1.535,3.488,1.746c0.102,0.123,0.625,0.887,0.625,3.416v75.027
			c0,2.699-0.52,3.63-0.68,3.852c-0.153,0.213-0.846,0.959-3.4,1.715l-2.148,0.636v2.241v4.43v3h3h39.729h3v-3v-4.43v-2.419
			l-2.365-0.513c-2.078-0.451-4.004-1.499-4.004-6.066V68.172l3.314-1.243c2.756,5.335,5.113,10.105,7.025,14.205
			c2.162,4.642,3.85,8.585,5.016,11.72c2.83,8.167,3.424,11.785,3.424,13.383c0,1.573-0.551,2.313-2.1,2.829l-2.053,0.683v2.164
			v4.43v3h3h36.682h3v-3v-4.43v-2.717l-2.703-0.269c-0.871-0.086-0.957-0.332-1.066-0.642c-2.666-7.443-4.904-13.603-6.662-18.321
			c-1.723-4.62-2.977-8.012-3.73-10.083l-0.02-0.056l-0.023-0.055c-3.928-9.609-8.104-17.988-12.432-24.955
			c2.002-1.477,3.762-2.832,5.252-4.043c2.049-1.667,3.732-3.157,5.002-4.428l0.045-0.045l0.043-0.047
			c4.658-5.07,7.021-10.411,7.021-15.873C575.699,22.443,571.336,12.983,550.551,12.983L550.551,12.983z M529.547,27.823
			c0.594-0.316,1.758-0.673,3.977-0.673c9.043,0,9.043,4.145,9.043,6.136c0,8.054-4.885,13.904-14.902,17.806V37.716
			C527.664,29.591,529.295,28.018,529.547,27.823L529.547,27.823z"/>
	</g>
	<g>
		<path fill="#ED1C24" d="M582.678,49.044l10.496-26.688c0.748-1.75,1.035-3.893,0.867-6.412l-0.107-1.6h21.504l-15.607,34.7
			H582.678z"/>
		<path fill="#FFFFFF" d="M613.117,15.845l-14.258,31.7h-13.98l9.689-24.64c0.832-1.938,1.154-4.292,0.969-7.06H613.117
			 M617.756,12.845h-4.639h-17.58h-3.207l0.215,3.2c0.15,2.28-0.096,4.19-0.732,5.678l-0.02,0.042l-0.016,0.042l-9.689,24.64
			l-1.611,4.098h4.402h13.98h1.941l0.795-1.77l14.258-31.7L617.756,12.845L617.756,12.845z"/>
	</g>
	<g>
		<path fill="#ED1C24" d="M650.768,118.949c-3.166,0-6.406-0.166-9.633-0.492c-3.238-0.33-6.611-0.825-10.025-1.472
			c-1.623-0.379-2.826-0.62-3.738-0.75c-1.281-0.183-1.605-0.192-1.658-0.192c-0.141,0.006-1.088,0.13-5.207,1.948l-1.947,0.859
			l-3.318-45.259h5.158l0.27,1.161c2.059,8.86,5.443,16.099,10.063,21.515c5.572,6.634,12.17,9.855,20.176,9.855
			c5.248,0,9.541-1.33,12.756-3.954c3.732-2.969,5.539-6.796,5.539-11.711c0-4.119-1.865-7.379-5.705-9.969
			c-2.039-1.416-6.037-3.318-11.9-5.665l-7.895-3.185c-3.971-1.568-7.285-2.979-9.84-4.188c-2.658-1.254-4.582-2.351-5.881-3.352
			c-4.688-3.417-7.771-8.472-9.135-15.001c-0.297-1.585-0.445-3.355-0.445-5.29c0-9.787,3.889-17.554,11.557-23.087
			c6.795-4.784,15.234-7.205,25.104-7.205c2.156,0,4.809,0.142,7.887,0.422c3.039,0.276,6.66,0.746,10.758,1.396
			c4.355,0.707,5.625,0.812,5.994,0.812c0.734,0,2.277-0.312,5.457-1.797l2.135-0.998v37.355h-4.639l-0.264-1.171
			c-3.551-15.792-11.447-23.469-24.145-23.469c-3.385,0-6.277,0.758-8.602,2.253c-2.406,1.709-3.604,4.026-3.604,7.044
			c0,4.212,4.07,8.079,12.1,11.493c14.703,6.277,22.742,9.89,24.576,11.047c9.197,6.004,13.85,14.251,13.85,24.524
			c0,12.006-4.924,21.458-14.635,28.093C673.586,116.116,663.105,118.949,650.768,118.949z"/>
		<path fill="#FFFFFF" d="M655.061,15.014c2.121,0,4.705,0.139,7.75,0.416c3.047,0.277,6.598,0.74,10.66,1.384
			c3.412,0.554,5.488,0.831,6.229,0.831c1.291,0,3.322-0.645,6.092-1.938v33.499h-1.939c-3.691-16.425-12.229-24.64-25.607-24.64
			c-3.693,0-6.832,0.831-9.414,2.491c-2.861,2.031-4.291,4.8-4.291,8.306c0,4.893,4.336,9.184,13.012,12.874
			c14.488,6.184,22.609,9.828,24.363,10.936c8.766,5.723,13.15,13.475,13.15,23.256c0,11.537-4.66,20.487-13.98,26.854
			c-8.121,5.446-18.227,8.167-30.316,8.167c-3.137,0-6.297-0.162-9.48-0.484c-3.186-0.325-6.484-0.807-9.898-1.454
			c-1.57-0.368-2.838-0.623-3.807-0.761c-0.969-0.139-1.592-0.208-1.869-0.208c-0.738,0-2.678,0.692-5.813,2.076l-3.047-41.528
			h2.354c2.123,9.136,5.582,16.521,10.383,22.148c5.813,6.921,12.918,10.382,21.316,10.382c5.629,0,10.197-1.43,13.705-4.292
			c4.059-3.229,6.09-7.52,6.09-12.874c0-4.613-2.123-8.351-6.367-11.212c-2.123-1.475-6.184-3.413-12.182-5.814l-7.891-3.184
			c-3.969-1.568-7.221-2.952-9.758-4.153c-2.539-1.198-4.408-2.26-5.607-3.184c-4.43-3.229-7.291-7.936-8.582-14.12
			c-0.277-1.475-0.414-3.136-0.414-4.983c0-9.32,3.645-16.611,10.936-21.871C637.387,17.322,645.461,15.014,655.061,15.014
			 M688.791,10.994l-4.27,1.995c-3.289,1.536-4.521,1.656-4.822,1.656c-0.145,0-1.107-0.039-5.748-0.792
			c-4.143-0.657-7.795-1.131-10.869-1.411c-3.121-0.284-5.82-0.428-8.021-0.428c-10.184,0-18.916,2.513-25.953,7.469
			c-8.109,5.851-12.207,14.028-12.207,24.324c0,2.027,0.156,3.891,0.467,5.538l0.006,0.03l0.006,0.029
			c1.438,6.89,4.707,12.241,9.719,15.907c1.385,1.061,3.389,2.204,6.125,3.496c2.582,1.222,5.926,2.646,9.938,4.23l7.871,3.176
			c7.178,2.874,10.266,4.574,11.592,5.496c3.428,2.313,5.078,5.167,5.078,8.749c0,4.429-1.621,7.872-4.957,10.526
			c-3.012,2.457-6.875,3.639-11.838,3.639c-7.535,0-13.756-3.046-19.02-9.312c-4.477-5.248-7.754-12.273-9.758-20.897l-0.539-2.321
			h-2.383h-2.354h-3.229l0.236,3.219l3.047,41.528l0.311,4.244l3.893-1.718c3.256-1.438,4.389-1.749,4.686-1.814
			c0.152,0.014,0.539,0.053,1.361,0.171c0.857,0.123,2.051,0.362,3.547,0.712l0.063,0.015l0.063,0.012
			c3.457,0.654,6.873,1.156,10.152,1.49c3.277,0.332,6.568,0.5,9.785,0.5c12.641,0,23.402-2.919,31.986-8.675
			c10.168-6.946,15.311-16.814,15.311-29.346c0-10.812-4.881-19.481-14.51-25.768c-1.252-0.791-5.143-2.78-24.826-11.183
			c-5.105-2.172-11.189-5.688-11.189-10.114c0-2.508,0.945-4.359,2.973-5.82c2.068-1.312,4.67-1.977,7.732-1.977
			c11.889,0,19.309,7.293,22.682,22.298l0.525,2.342h2.4h1.939h3v-3V15.707V10.994L688.791,10.994z"/>
	</g>
</g>
<g>
	<g>
		<path fill="#ED1C24" d="M275.538,250.226v-7.26l1.088-0.312c2.28-0.651,3.805-1.523,4.41-2.52
			c0.461-0.761,1.012-2.322,1.012-5.442v-77.396c0-2.946-0.555-4.337-1.02-4.983c-0.457-0.633-1.594-1.565-4.417-2.403l-1.073-0.318
			v-7.249h40.416c11.704,0,21.185,1.398,28.181,4.155c8.954,3.483,16.166,9.782,21.43,18.717c5.611,9.649,8.454,21.146,8.454,34.18
			c0,11.599-2.503,21.735-7.44,30.129c-4.875,8.355-11.209,14.119-18.826,17.127c-5.832,2.371-14.247,3.576-25,3.576H275.538z
			 M320.148,156.48c-2.314,0-3.959,0.459-4.755,1.324c-0.881,0.957-1.524,2.801-1.86,5.33c-0.088,0.88-0.158,2.087-0.205,3.54
			c-0.048,1.445-0.071,3.109-0.071,5.088v49.477c0,15.426,7.037,15.426,9.35,15.426c1.28,0,2.435-0.169,3.431-0.502l0.112-0.032
			c9.998-2.498,15.066-13.593,15.066-32.976c0-15.483-2.468-27.797-7.335-36.599c-1.924-3.662-3.724-6.119-5.365-7.331
			C326.21,157.365,323.489,156.48,320.148,156.48z"/>
		<path fill="#FFFFFF" d="M315.953,143.842c11.573,0,20.782,1.352,27.631,4.051c8.68,3.377,15.574,9.403,20.688,18.083
			c5.497,9.453,8.246,20.593,8.246,33.418c0,11.382-2.412,21.172-7.233,29.368c-4.727,8.102-10.755,13.599-18.083,16.492
			c-5.692,2.314-13.841,3.472-24.449,3.472h-45.715v-4.629c2.699-0.771,4.459-1.831,5.28-3.184c0.818-1.349,1.229-3.422,1.229-6.221
			v-77.396c0-2.699-0.434-4.651-1.302-5.858c-0.868-1.206-2.604-2.193-5.208-2.966v-4.629H315.953 M322.607,238.165
			c1.447,0,2.749-0.192,3.906-0.579c10.8-2.698,16.203-14.177,16.203-34.431c0-15.816-2.509-28.258-7.522-37.324
			c-2.025-3.856-3.956-6.46-5.787-7.812c-2.509-2.025-5.595-3.039-9.259-3.039c-2.798,0-4.751,0.604-5.859,1.809
			c-1.11,1.207-1.858,3.256-2.242,6.148c-0.097,0.966-0.169,2.195-0.217,3.689c-0.05,1.496-0.072,3.207-0.072,5.136v49.477
			C311.758,232.522,315.374,238.165,322.607,238.165 M315.953,140.842h-38.916h-3v3v4.629v2.239l2.146,0.638
			c2.714,0.805,3.462,1.614,3.627,1.843c0.22,0.306,0.736,1.324,0.736,4.105v77.396c0,2.92-0.498,4.176-0.794,4.664
			c-0.145,0.239-0.83,1.081-3.54,1.855l-2.175,0.622v2.263v4.629v3h3h45.715c11.101,0,19.468-1.208,25.579-3.692
			c7.908-3.123,14.494-9.102,19.545-17.76c5.069-8.617,7.642-19.01,7.642-30.88c0-13.302-2.911-25.053-8.653-34.926
			c-5.448-9.248-12.912-15.76-22.193-19.371C337.512,142.275,327.846,140.842,315.953,140.842L315.953,140.842z M315.027,163.285
			c0.394-2.92,1.09-4.051,1.471-4.465c0.181-0.197,0.979-0.84,3.651-0.84c2.984,0,5.396,0.776,7.375,2.373l0.05,0.041l0.052,0.037
			c1.002,0.74,2.668,2.521,4.913,6.795l0.015,0.028l0.016,0.028c4.743,8.576,7.148,20.646,7.148,35.872
			c0,18.606-4.687,29.211-13.93,31.521l-0.113,0.028l-0.11,0.036c-0.843,0.282-1.837,0.425-2.956,0.425c-2.147,0-7.85,0-7.85-13.926
			v-49.477c0-1.962,0.023-3.608,0.071-5.036C314.873,165.329,314.939,164.173,315.027,163.285L315.027,163.285z"/>
	</g>
	<g>
		<path fill="#ED1C24" d="M409.21,250.226v-7.236l1.059-0.326c2.739-0.843,3.905-1.766,4.401-2.392
			c0.687-0.868,1.05-2.447,1.05-4.566v-79.277c0-1.984-0.366-3.438-1.058-4.201c-0.535-0.586-1.735-1.469-4.41-2.327l-1.042-0.334
			v-7.224h45.243v7.256l-1.082,0.314c-3.714,1.078-4.734,1.813-5,2.08c-0.876,0.806-1.297,2.284-1.297,4.437v78.699
			c0,3.002,0.625,4.346,1.148,4.943c0.563,0.645,1.916,1.616,5.161,2.59l1.069,0.32v7.245H409.21z"/>
		<path fill="#FFFFFF" d="M452.953,143.842v4.629c-2.991,0.868-4.871,1.688-5.643,2.459c-1.157,1.062-1.736,2.894-1.736,5.497
			v78.699c0,2.798,0.507,4.774,1.52,5.932s2.965,2.17,5.859,3.038v4.629H410.71v-4.629c2.507-0.771,4.218-1.736,5.136-2.894
			c0.915-1.157,1.374-2.988,1.374-5.498v-79.277c0-2.41-0.483-4.146-1.446-5.208c-0.965-1.06-2.654-1.976-5.063-2.749v-4.629
			H452.953 M455.953,140.842h-3H410.71h-3v3v4.629v2.188l2.083,0.669c2.484,0.797,3.423,1.539,3.762,1.911
			c0.152,0.169,0.665,0.911,0.665,3.188v79.277c0,2.453-0.509,3.36-0.728,3.637c-0.238,0.301-1.076,1.091-3.664,1.888l-2.118,0.651
			v2.216v4.629v3h3h42.243h3v-3v-4.629v-2.232l-2.139-0.641c-3.17-0.951-4.178-1.814-4.463-2.141
			c-0.183-0.208-0.777-1.108-0.777-3.956v-78.699c0-2.398,0.586-3.122,0.765-3.287l0.048-0.043l0.045-0.046
			c0.016-0.012,0.786-0.663,4.357-1.7l2.164-0.627v-2.253v-4.629V140.842L455.953,140.842z"/>
	</g>
	<g>
		<path fill="#ED1C24" d="M563.637,251.261c-0.252-0.174-1.428-0.763-6-1.04c-0.176,0.003-0.447,0.005-0.814,0.005h-15.045
			c-9.285,0-16.844-0.951-22.465-2.826c-7.086-2.395-13.346-6.782-18.612-13.043c-8.298-9.876-12.504-23.196-12.504-39.592
			c0-3.141,0.174-6.218,0.517-9.145c0.342-2.936,0.863-5.867,1.551-8.713c3.666-14.968,12.418-25.675,26.012-31.828
			c5.488-2.395,11.773-3.605,18.701-3.605c4.527,0,8.883,0.501,12.941,1.489c3.268,0.771,5.725,1.349,7.365,1.733
			c0.906,0.214,1.596,0.376,2.113,0.537c1.17-0.045,3.207-0.674,6.441-3.281l2.209-1.782l3.539,44.088h-4.166l-0.334-1.041
			c-5.824-18.124-13.766-27.313-23.6-27.313c-7.805,0-13.363,4.104-16.994,12.547c-2.898,6.449-4.363,14.42-4.363,23.712
			c0,9.026,1.426,17.213,4.236,24.331c3.326,8.596,8.354,14.759,14.943,18.328c2.947,1.608,6.309,2.423,9.99,2.423
			c5.08,0,9.199-1.955,12.598-5.978c2.299-2.759,4.801-7.306,7.434-13.506l0.387-0.914h5.266l-9.598,35.625L563.637,251.261z"/>
		<path fill="#FFFFFF" d="M534.977,142.974c4.436,0,8.631,0.484,12.586,1.447c3.279,0.773,5.738,1.352,7.379,1.736
			c1.639,0.387,2.41,0.579,2.314,0.579c2.025,0,4.533-1.205,7.523-3.617l3.182,39.638h-1.447
			c-6.074-18.901-14.418-28.354-25.027-28.354c-8.391,0-14.516,4.484-18.371,13.454c-2.992,6.655-4.486,14.756-4.486,24.305
			c0,9.258,1.447,17.554,4.342,24.882c3.471,8.97,8.68,15.335,15.623,19.097c3.184,1.736,6.75,2.604,10.705,2.604
			c5.498,0,10.078-2.17,13.744-6.51c2.41-2.894,4.965-7.522,7.668-13.888h2.314l-8.535,31.682c-0.949-0.657-3.225-1.093-6.824-1.308
			c0.51-0.012-0.137-0.041-1.938-0.09c-0.617-0.021-1.266-0.038-1.945-0.049c0.754,0.018,1.402,0.034,1.945,0.049
			c0.684,0.023,1.33,0.054,1.938,0.09c-0.162,0.004-0.443,0.006-0.844,0.006c-1.932,0-6.945,0-15.045,0
			c-9.164,0-16.492-0.915-21.99-2.749c-6.85-2.314-12.828-6.51-17.939-12.586c-8.101-9.643-12.151-22.519-12.151-38.626
			c0-3.085,0.167-6.076,0.507-8.97c0.336-2.893,0.843-5.736,1.519-8.535c3.567-14.562,11.958-24.833,25.173-30.814
			C522.197,144.131,528.225,142.974,534.977,142.974 M567.314,137.219l-4.42,3.564c-2.771,2.236-4.43,2.816-5.301,2.928
			c-0.061-0.017-0.123-0.033-0.186-0.048c-0.395-0.098-0.988-0.241-1.777-0.427c-1.645-0.385-4.104-0.963-7.379-1.736
			c-4.154-1.011-8.627-1.527-13.275-1.527c-7.135,0-13.623,1.252-19.283,3.723c-14.071,6.369-23.105,17.415-26.886,32.85
			c-0.704,2.914-1.235,5.905-1.585,8.902c-0.35,2.982-0.526,6.117-0.526,9.316c0,16.758,4.325,30.402,12.854,40.556
			c5.447,6.476,11.932,11.017,19.277,13.498c5.785,1.931,13.502,2.907,22.949,2.907h15.045c0.338,0,0.598-0.001,0.779-0.004
			c4.133,0.255,5.121,0.743,5.221,0.798l3.498,2.42l1.066-4.132l8.535-31.682l1.018-3.78h-3.914h-2.314h-1.986l-0.775,1.828
			c-2.574,6.064-5.002,10.485-7.211,13.14c-3.084,3.648-6.828,5.43-11.439,5.43c-3.477,0-6.508-0.731-9.268-2.237
			c-6.275-3.399-11.072-9.302-14.264-17.546c-2.748-6.961-4.139-14.962-4.139-23.799c0-9.078,1.42-16.842,4.223-23.075
			c3.387-7.877,8.494-11.684,15.635-11.684c9.109,0,16.568,8.839,22.172,26.272l0.67,2.082h2.186h1.447h3.252l-0.262-3.24
			l-3.182-39.638L567.314,137.219L567.314,137.219z"/>
	</g>
	<g>
		<path fill="#ED1C24" d="M679.508,251.611c-3.123-0.92-5.998-1.386-8.545-1.386H607.4v-7.222l1.041-0.335
			c2.93-0.942,4.057-1.922,4.484-2.576c0.449-0.688,0.984-2.183,0.984-5.4v-77.396c0-2.952-0.518-4.306-0.953-4.921
			c-0.43-0.604-1.561-1.525-4.516-2.476l-1.041-0.334v-7.223h65.732c0.344,0,1.432-0.188,4.1-1.927l1.996-1.3l5.162,39.211h-4.352
			l-0.359-0.987c-2.99-8.223-6.223-14.016-9.604-17.218c-4.123-3.854-10.205-5.811-18.064-5.811c-4.934,0-5.73,1.918-5.994,2.549
			l-0.043,0.095c-0.318,0.638-0.854,2.509-0.854,7.864v7.425c2.723-0.085,5.025-0.19,6.863-0.314
			c2.498-0.166,3.686-0.467,4.244-0.69c3.457-1.236,5.072-4.221,4.988-9.143l-0.025-1.525h5.207l3.752,40.034h-4.934l-0.32-1.069
			c-1.645-5.484-3.588-9.241-5.775-11.167c-2.527-2.354-6.467-3.532-11.738-3.532h-1.881c-0.123,0-0.25,0.003-0.381,0.008v39.433
			c0,10.148,1.963,12.264,2.809,12.702c1.164,0.666,2.762,0.988,4.805,0.988c6.213,0,11.961-1.808,17.082-5.373
			c5.271-3.606,10.801-11.107,16.443-22.302l0.564-1.116l5.057,1.486l-10.891,41.385L679.508,251.611z"/>
		<path fill="#FFFFFF" d="M678.053,141.672l4.629,35.154h-1.592c-3.088-8.486-6.416-14.417-9.982-17.795
			c-4.438-4.145-10.803-6.221-19.096-6.221c-3.955,0-6.416,1.158-7.379,3.473c-0.676,1.352-1.012,4.195-1.012,8.535v8.97
			c3.473-0.095,6.293-0.217,8.463-0.362c2.17-0.145,3.736-0.408,4.701-0.795c4.051-1.447,6.027-4.967,5.932-10.561h2.314
			l3.473,37.034h-2.17c-1.736-5.786-3.811-9.74-6.221-11.862c-2.799-2.604-7.041-3.906-12.73-3.906c-0.58,0-1.207,0-1.881,0
			c-0.578,0-1.207,0.05-1.881,0.145v40.796c0,8.102,1.205,12.781,3.617,14.033c1.35,0.773,3.182,1.157,5.496,1.157
			c6.559,0,12.537-1.881,17.939-5.642c5.498-3.762,11.139-11.379,16.926-22.857l2.459,0.723l-10.127,38.481
			c-3.279-0.965-6.27-1.446-8.969-1.446H608.9v-4.629c2.699-0.868,4.461-1.929,5.281-3.184c0.818-1.252,1.229-3.327,1.229-6.221
			v-77.396c0-2.699-0.41-4.63-1.229-5.786c-0.82-1.158-2.582-2.17-5.281-3.039v-4.629h64.232
			C674.193,143.842,675.832,143.119,678.053,141.672 M680.404,136.558l-3.99,2.601c-2.43,1.584-3.279,1.681-3.314,1.684
			l-64.199-0.001h-3v3v4.629v2.187l2.082,0.669c2.949,0.948,3.643,1.763,3.752,1.917c0.156,0.223,0.676,1.181,0.676,4.052v77.396
			c0,3.197-0.566,4.313-0.74,4.579c-0.107,0.166-0.795,1.039-3.688,1.97l-2.082,0.669v2.187v4.629v3h3h62.063
			c2.402,0,5.135,0.445,8.123,1.324l2.961,0.872l0.787-2.986l10.127-38.481l0.742-2.82l-2.799-0.821l-2.459-0.723l-2.398-0.705
			l-1.125,2.232c-5.529,10.965-10.893,18.277-15.943,21.732c-4.953,3.447-10.26,5.117-16.244,5.117c-1.752,0-3.137-0.263-4.006-0.76
			l-0.053-0.031l-0.057-0.029c-0.02-0.01-1.998-1.155-1.998-11.37v-37.94h0.762c4.879,0,8.475,1.044,10.686,3.103l0.031,0.028
			l0.031,0.027c1.355,1.194,3.383,3.98,5.328,10.472l0.643,2.139h2.232h2.17h3.293l-0.307-3.28l-3.471-37.034l-0.148-1.574
			c0.414,0.319,0.811,0.655,1.189,1.009c3.195,3.025,6.299,8.625,9.209,16.627l0.719,1.975h2.102h1.592h3.42l-0.445-3.392
			l-4.629-35.154L680.404,136.558L680.404,136.558z M646.621,170.691v-5.873c0-5.521,0.58-6.961,0.695-7.193l0.047-0.094
			l0.039-0.096c0.559-1.343,2.814-1.625,4.609-1.625c5.787,0,10.535,1.095,14.17,3.26h-1.15h-2.314h-3.051l0.051,3.051
			c0.094,5.529-2.057,7.012-3.941,7.685l-0.053,0.02l-0.053,0.021c-0.301,0.12-1.271,0.418-3.785,0.586
			C650.422,170.53,648.66,170.617,646.621,170.691L646.621,170.691z"/>
	</g>
</g>
<g>
	<path fill-rule="evenodd" clip-rule="evenodd" d="M72.018,114.416c-4.588,3.07-8.225,7.137-11.766,11.309
		c3.836-3.864,8.037-7.329,11.983-11.069c3.578-2.178,7.652-1.947,11.585-2.412C79.745,112.194,75.389,110.604,72.018,114.416z
		 M49.523,196.539c1.25,1.98,2.5,3.96,3.75,5.939c0.534,0.192,0.437,0.695,0.542,1.099c0.34,0.639,0.681,1.277,1.021,1.916
		c0.741,3.396,3.363,5.503,5.764,7.983c-4.371,0.574-8.017,2.592-12.204,3.064c-3.291,0.371-6.917,0.927-9.287,4.325
		c-1.042,1.494-3.598,1.67-5.542,2.261c-3.39,1.03-6.762,2.122-10.141,3.189c-0.827,0.262-1.712,0.529-1.537,1.654
		c0.151,0.967,1.172,1.146,1.822,1.577c0.622,0.414,1.206-0.389,1.806-0.645c3.297-1.406,6.511-3.049,10.13-3.531l-0.066-0.035
		c-0.713,1.302-2.634,0.421-3.476,2.047c1.332-0.176,2.47-0.327,3.607-0.478c-2.748,0.726-4.576,2.492-6.147,4.931
		c5.699,1.719,10.368-2.045,15.72-2.719c-5.618,2.837-11.661,3.987-18.067,6.076c2.034,0.633,3.031-0.683,4.48-0.302
		c-1.403,1.277-3.346,1.366-4.813,2.967c4.603-0.563,8.294-3.032,12.562-3.15c0.085,0.612-1.056,0.374-0.826,0.988
		c8.147-1.947,16.275-3.89,24.404-5.833c-1.921,0.99-3.932,1.622-5.983,2.071c-4.546,0.994-9,2.313-13.438,3.689
		c-0.497,0.153-1.561,0.058-1.297,1.132c0.173,0.705,0.699,1.102,1.473,1.191c1.38,0.161,2.696-0.141,4.01-0.47
		c2.108-0.528,4.212-1.074,6.317-1.613c0.032,0.094,0.065,0.188,0.098,0.282c-1.485,0.629-2.97,1.259-4.455,1.888
		c4.098-0.364,8.165,0.461,12.329-1.136c-0.398,1.58-1.598,1.103-1.925,2.056c2.549,0.252,4.854-0.852,7.283-1.113
		c-4.015,2.253-8.635,2.844-13.478,4.849c2.548,0.657,4.329-0.086,6.118-0.072c2.111,0.016-0.1,0.903,0.201,1.097
		c3.874,0.646,7.443-0.894,11.216-1.121c-0.205,0.851-1.134,0.368-1.123,1.272c3.658-1.373,7.492,0.112,11.364-1.388
		c2.053-0.795,5.005-0.764,7.541-1.221c0.825-0.149,1.686-0.221,2.522-0.172c3.223,0.185,6.376-0.046,9.418-1.237
		c5.897-2.31,11.979-3.91,18.349-4.499c-1.682,0.592-3.363,1.184-5.044,1.775c16.056-3.052,31.055-9.823,47.813-12.347
		c-3.456-0.954-6.248-1.259-9.769-0.277c2.604-1.811,5.139-1.649,7.071-3.167c-2.475,1.168-4.986-0.074-7.638,0.308
		c1.628-1.258,4.47-1.741,2.875-4.737c1.651,0.935,3.268,0.872,5.115-0.332c-1.906-0.303-3.584-1.477-5.112,0.406
		c-0.829-1.319-1.802-0.158-2.666-0.081c-1.091,0.098-2.091,0.855-3.677,0.714c0.763-0.563,1.195-0.881,1.624-1.198
		c-0.662-0.662-1.841,0.565-2.217-0.643c-0.341-1.095,0.862-1.332,1.376-1.878c0.638-0.676,1.595-1.051,3.022-1.93
		c-4.052,0.926-7.457,1.704-10.862,2.481c-0.034-0.078-0.069-0.156-0.103-0.235c0.773-0.42,1.546-0.839,2.438-1.324
		c-0.482-0.176-0.845-0.31-1.241-0.454c0.716-1.04,2.239-0.556,3.082-1.741c-0.967,0.102-1.778,0.182-2.588,0.274
		c-1.122,0.129-2.492,0.841-3.234-0.345c-0.634-1.014,0.696-1.726,1.134-2.583c0.149-0.293,0.258-0.607,0.386-0.912
		c1.857-1.285,3.047-3.14,4.182-5.016c4.659-7.702,8.307-15.888,11.465-24.297c1.169-3.115,0.745-7.32-1.055-10.862
		c0.564,5.343,1.202,10.375-1.708,14.938c0.279-1.708,1.294-3.433,1.131-5.038c-0.537-5.298,0.216-10.907-2.917-15.689
		c-1.054-1.608-0.209-3.781-1.471-5.025c-1.525-1.505-1.208-2.877-0.579-4.468c1.521-1.476,0.053-2.896-0.082-4.34
		c-1.439-3.589-2.878-7.178-4.318-10.767c2.024,1.177,4.044,2.361,6.078,3.521c0.215,0.123,0.636,0.382,0.639-0.191
		c0.001-0.199-0.27-0.401-0.417-0.602c3.725,1.773,7.45,3.547,11.334,5.397c-0.875,0.403-1.544-0.579-2.291,0.239
		c5.159,1.859,9.749,4.842,15.111,5.875l-0.068-0.084c2.371,1.758,5.224,2.243,7.982,2.902c1.397,0.335,2.999,0.27,4.125-0.751
		c3.731-3.38,8.51-5.507,11.567-9.683c0.686-0.553,1.372-1.105,2.058-1.658c0.701,0.197,1.099-0.334,1.544-0.684
		c4.589-3.612,9.306-7.085,13.431-11.234c1.625-1.634,4.032-2.211,5.305-4.23c1.289-2.044,3.046-3.541,5.13-4.774
		c1.824-1.08,3.297-2.584,4.274-4.559c2.804-5.67,1.64-11.571,1.224-17.432c-0.215,1.161-0.217,2.333-0.215,3.504
		c0.001,1.27,0.071,2.544-0.005,3.81c-0.181,3.038-2.258,4.554-5.185,3.797c-1.39-0.359-2.739-0.878-4.132-1.221
		c-0.852-0.21-1.902-1.394-2.622,0.299c-0.021,0.047-1.151-0.787-2.36-0.459c2.234,1.147,3.922,2.503,5.968,3.357
		c1.78,0.743,3.679,1.709,2.221,4.421c-0.043-1.954-3.792-5.289-5.492-4.746c-2.479,0.79-4.411-0.88-4.91-2.245
		c-0.691-1.891-2.106-2.088-3.277-2.936c-0.988-0.715-2.833-0.491-3.159-0.779c-2.393-2.106-4.391-0.836-6.752-0.107
		c-1.388,0.429-4.308,2.08-4.256-1.877c0.011-0.827-0.865-0.568-1.422-0.633c-1.09-0.127-2.188-0.231-3.261-0.447
		c-0.557-0.111-1.332-0.303-1.542-0.703c-0.315-0.6,0.439-1.018,0.883-1.328c1.859-1.296,1.125-1.817-0.56-2.256
		c-1.467-0.382-3.086-0.628-3.866-2.401c1.27-0.246,2.122,0.59,3.108,0.594c0.834,0.003,1.67-0.244,2.63-0.4
		c-3.612-3.078-7.364-5.352-11.994-5.784c-1.308-0.662-2.615-1.323-3.922-1.984c-1.385-0.107-2.676-0.826-3.458-1.719
		c-1.558-1.782-3.7-2.619-5.437-4.043c-1.526-1.25-3.792-0.99-5.061-2.816c-0.367-0.528-1.555-0.104-2.245,0.566
		c-4.939,4.808-9.949,9.55-14.364,14.858c-0.794,0.954-1.239,2.184-2.21,3.041c-4.802,4.237-9.591,8.489-14.389,12.73
		c-0.186,0.164-0.417,0.27-0.525,0.126c-0.203-0.806,0.876-1.064,0.618-1.744c-0.61-0.41-1.044,0.68-1.604-0.026
		c1.669-1.879,3.417-3.632,5.681-5.402c-2.33,0.393-3.541,2.006-5.218,2.825c-0.217-3.202,0.312-6.007,1.634-8.712
		c0.582-1.19,0.729-2.594,1.063-3.903c0.265-1.039,0.332-2.213-0.679-2.739c-1.188-0.618-2.026,0.388-2.733,1.23
		c-1.205,1.436-1.892,3.201-2.891,4.749c-1.206,1.868-1.745,4.037-2.953,5.916c1.308-13.334,3.237-26.487,7.94-39.522
		c-1.327,1.506-2.085,2.81-2.512,4.292c-1.826,6.342-3.666,12.756-4.286,19.283c-0.976,10.27-3.913,20.262-4.017,30.66
		c-0.017,1.651,0.406,1.719,1.413,2.038c4.028,1.277,8.063,2.533,12.081,3.841c2.497,0.813,3.48,3.406,2.104,5.671
		c-0.602,0.99-1.313,1.918-2.197,2.739c-2.206,2.052-3.559,4.861-6.107,6.635c2.048-0.262,2.476-2.742,4.565-2.816
		c-0.001,0.166-0.003,0.331-0.004,0.496c-1.195,2.164-3.842,2.94-5.081,5.205c1.503,0.876,2.908,1.331,4.344,0.038
		c0.55,1.278-0.474,1.654-0.911,2.292c-0.409,0.596-1.486,0.812-1.262,1.732c0.24,0.984,1.404-0.493,1.81,0.487
		c-0.76,0.923-1.913,1.422-2.426,2.508c0.563,0.761,1.607-0.632,1.946,0.454c0.251,0.806-0.683,1.052-1.074,1.555
		c-0.206,0.265-0.499,0.461-0.707,0.724c-0.601,0.758-1.757,1.267-1.418,2.483c0.367,1.318,1.848,1.756,2.752,2.003
		c3.766,1.025,6.287,3.917,6.275,7.895c-0.002,0.759,0.357,0.962,1.014,1.151c2.58,0.745,3.022,1.637,1.86,4.222
		c-1.3,2.891-1.604,5.959-1.967,9.033l0.06-0.062c-0.898-1.822-0.271-3.997-1.521-5.795c-1.791-2.577-3.325-2.756-5.45-0.528
		c-2.527,2.65-3.505,5.902-3.909,9.395c-0.208,1.81,0.198,3.535,1.202,5.071c1.265,1.935,3.058,2.077,4.584,0.384
		c0.443-0.492,0.82-1.044,1.228-1.569c0.054-0.036,0.158-0.101,0.311-0.193c1.295-1.784,3.086-3.059,4.719-4.484
		c0.584-0.51,1.265-1.44,1.665,0.59c0.522,2.656,1.33,5.882,5.773,4.868c-0.897,1.647-1.594,2.928-2.393,4.396
		c1.562-0.29,2.05-1.709,3.457-2.182c-1.201,2.83-3.7,4.52-5.022,7.014c3.404-1.268,4.626-5.235,8.385-6.253
		c-2.859,6.507-5.837,12.731-10.16,18.214c-3.128,2.96-5.615,6.485-8.029,9.978c-3.174,4.591-6.74,8.603-11.6,11.366
		c0.877-2.283,3.338-3.24,5.052-5.742c-2.159,1.196-3.196,2.919-4.979,3.195c-1.914,0.296-2.745-1.586-4.198-3.028
		c0.84,2.713,2.453,4.173,4.131,5.58c-0.488,0.47-0.862,1.039-1.592,0.149c-1.772-2.16-3.237-4.497-5.321-6.514
		c-2.02-1.954-3.387-5.188-4.379-7.806c-3.327-8.78-7.019-17.396-10.709-26.016c-0.734-1.714-1.197-3.38-1.208-5.229
		c0.853,1.562,1.516,3.188,2.169,4.82c0.237,0.593,0.238,1.628,1.097,1.402c1.015-0.266,0.414-1.264,0.355-1.939
		c-0.042-0.491-0.299-0.963-0.449-1.447c-1.355-4.382-2.098-8.717,0.992-12.757c0.019-0.025-0.141-0.188-0.377-0.494
		c-0.642,1.918-1.615,3.449-3.609,4.273c0.342-1.664,2.431-2.253,2.287-4.254c-1.365,1.493-2.755,2.688-4.412,3.547
		c-0.361,0.188-1.106,0.779-0.253,0.945c1.526,0.297,0.616,1.117,0.517,1.663c-0.16,0.879-0.905,1.25-1.722,1.142
		c-1.728-0.23-3.5-0.367-5.061-1.369c0.864-0.785,2.241,0.623,2.979-0.933c-1.568-0.909-3.44,0.173-4.883-0.816
		c-2.687-1.84-6.021-1.25-8.903-1.694c-2.652-0.409-5.503-0.944-8.254-0.979c-1.28-0.017-0.869-1.149-1.947-1.36
		c-3.053-0.596-2.853,1.253-2.81,3.271c-1.154-0.825-1.015-2.036-1.685-2.801c-0.359-0.41-0.516-0.842-1.331-0.633
		c-3.218,0.821-3.228,0.763-3.24-2.683c-0.001-0.313-0.113-0.627-0.181-0.978c-0.893,0.213-0.811,1.438-1.756,1.396l0.146,0.075
		c-0.672-2.198-2.258-3.047-4.447-3.418c-2.733-0.464-5.419-1.224-8.101-1.948c-0.686-0.186-1.784-0.24-1.874-1.06
		c-0.132-1.19,1.259-0.771,1.831-1.281c0.092-0.082,0.056-0.308,0.088-0.54c-1.074-0.226-2.145-0.451-3.26-0.686
		c0.803-1.187,1.874,0.137,2.729-0.4c-0.704-0.977-1.641-0.595-2.432-0.633c-5.733-0.275-7.287-2.81-4.831-8.021
		c0.467-0.99,1.079-1.914,1.648-2.854c2.755-4.549,6.603-8.119,10.46-11.685c1.748-1.615,1.717-1.648,2.092-3.352
		c-5.996,5.123-11.232,10.887-15.2,17.639c-2.522,4.29-5.57,8.768-3.652,14.15c1.438,4.033,3.463,7.857,5.43,12.226
		c0.555-2.012-1.036-3.144-0.787-4.762c0.903,0.97,1.075,2.184,2.056,2.815c0.127,0.492,0.254,0.985,0.38,1.478
		c1.29,2.475,3.708,4.336,3.991,7.356c-1.456-1.702-2.911-3.404-4.387-5.129c-0.235,0.489-0.319,0.999,0.048,1.424
		c2.559,2.968,3.98,6.639,6.129,9.855C47.092,193.205,47.582,195.393,49.523,196.539z M116.487,186.231
		c1.04-0.552,1.89-1.288,2.344-2.41c3.193-3.721,2.729-7.971,1.522-12.185c-0.493-1.722-2.063-2.145-3.709-1.228
		c-1.508,0.84-2.611,2.141-3.572,3.538c-2.712,3.946-3.096,9.384-0.925,12.443c1.41,1.986,2.807,1.97,4.312-0.041L116.487,186.231z
		 M208.944,193.298c-0.543,0.06-1.222-0.192-1.475,0.569c-0.154,0.461-0.148,1.301-0.662,0.152c-0.829-1.856-2.73-2.222-4.323-3.33
		c-0.516,2.195,0.035,3.417,1.877,4.523c2.257,1.354,4.186,1.606,6.302-0.025c0.585-0.451,1.279-0.761,1.923-1.136
		c0.159-0.586,0.898-1.168,0.276-1.762c-0.46-0.438-1.091,0.005-1.618,0.17C210.467,192.704,209.71,193.016,208.944,193.298z
		 M166.933,76.839c-0.052,1.371,0.933,2.612,1.668,3.158c1.302,0.966,2.947,1.515,4.186,2.711c0.436,0.421,1.132,1.104,1.69,0.236
		c0.453-0.705-0.421-0.962-0.832-1.262c-2.246-1.636-4.523-3.229-6.791-4.835c0.714-1.324,0.828-1.49-0.543-2.423
		c-1.669-1.136-1.945-2.613-1.74-4.384c0.126-1.092,0.278-2.182,0.372-3.277c0.093-1.095,0.129-2.195,0.19-3.293
		c0.055-1,0.557-2.041-0.132-3.187c-1.305,5.826-1.202,11.696-3.718,17.008c-0.106,0.225-0.254,0.655-0.183,0.705
		c1.458,1.024,0.265,1.616-0.448,1.92c-1.982,0.849-2.694,2.821-4.621,4.401c3.922-1.781,5.622-6.125,10.323-5.838
		C164.164,76.801,165.841,76.968,166.933,76.839z M150.752,77.445c0.953,1.061,1.707,0.265,2.362-0.341
		c2.896-2.677,3.365-6.368,3.792-9.955c0.2-1.679-1.186-2.232-2.504-1.055c-2.868,2.56-4.583,5.799-5.068,9.647
		C149.572,76.504,149.028,77.919,150.752,77.445z M75.182,89.626c2.444-0.031,4.89-0.066,7.334-0.091
		c1.729-0.018,4.729-2.066,5.122-3.618c0.055-0.217-0.499-0.588-0.771-0.888c-2.281-1.895-3.58-4.457-4.797-7.073
		c-0.443-0.39-0.098-1.479-1.186-1.305c-3.345,0.534-6.717,0.044-10.069,0.256C69.34,77,67.518,80.06,68.253,81.213
		c1.696,2.659,3.491,5.255,5.203,7.904C73.926,89.843,74.321,90.414,75.182,89.626z M206.785,71.335
		c0.148-0.286,0.403-0.563,0.428-0.859c0.315-3.764-3.815-9.104-7.534-9.778c-2.072-0.376-3.454,0.704-3.604,2.815
		c-0.3,4.202,3.282,8.85,7.473,9.619c1.565,0.288,2.882-0.047,3.301-1.871L206.785,71.335z M71.625,126.738
		c-0.727,2.483,0.502,4.244,3.305,4.449c3.837,0.281,7.141-1.277,9.912-3.704c1.24-1.085,1.686-3.094,1.049-4.715
		c-0.657-1.672-2.54-1.984-4.108-1.911c-3.27,0.153-6.272,1.275-8.814,3.409c-0.775,0.65-1.465,1.42-1.431,2.557L71.625,126.738z
		 M80.052,144.881l-0.018-0.04c1.496,1.23,3.255,0.766,4.884,0.605c4.199-0.413,7.352-2.446,8.855-6.527
		c0.885-2.401,0.023-4.371-1.973-4.992c-4.121-1.28-10.939,1.178-13.326,4.804C76.651,141.501,77.079,143.168,80.052,144.881z
		 M99.14,148.311c-0.445,0.116-1.326,0.369-1.124,1.102c1.386,5.033-1.67,1.765-3.023,1.65c-0.313-0.026-0.63-0.172-0.932-0.139
		c-3.532,0.392-6.92,1.175-9.916,3.268c-1.959,1.369-3.556,4.447-3.067,6.543c0.592,2.538,2.578,3.392,4.87,3.747
		c4.63,0.72,8.252-1.046,11.051-4.654c0.712-0.919,1.893-2.124,1.72-2.962C98.11,153.921,100.467,151.363,99.14,148.311z
		 M54.377,155.067c3.924,0.137,7.068-1.465,9.572-4.349c1.451-1.671,2.24-3.692,1.292-5.834c-0.97-2.191-3.076-1.984-5.053-1.882
		c-3.354,0.173-6.104,1.755-8.724,3.659c-2.264,1.645-3.406,4.025-2.613,5.787C49.928,154.837,52.114,155.101,54.377,155.067z
		 M105.262,132.418c1.606-0.83,3.15-0.129,4.426-1.427c0.719-0.73,3.07-0.752,3.437,0.102c0.471,1.096,1.501,2.816,0.872,3.681
		c-0.656,0.902-2.454,0.599-3.768,0.229c-0.24-0.068-0.469-0.193-0.687-0.32c-1.447-0.842-2.812-0.604-4.183,0.154
		c2.94,3.276,6.523,2.758,10.135,2.063c2.436-0.469,4.441-1.666,5.83-3.729c1.337-1.986,1.107-4.044-0.458-5.225
		C116.708,124.811,107.636,127.214,105.262,132.418z M187.599,70.56c-1.096-3.747-7.078-8.25-10.14-8.003
		c-1.877,0.151-3.152,1.017-3.099,3.205c0.077,3.177,1.948,5.305,4.138,7.211c2.928,2.55,4.621,2.328,7.38-1.158
		c-0.737,0.496-1.052,0.745-1.398,0.934c-1.439,0.786-2.326-0.333-3.343-0.993c-0.571-0.372-0.885-1.163-0.58-1.52
		c0.815-0.956,2.507-0.467,3.234-1.742C184.406,70.168,186.142,69.422,187.599,70.56z M148.284,66.618
		c0.071-1.11-0.086-1.862-0.86-2.245c-0.702-0.348-1.326,0.059-1.849,0.487c-3.203,2.622-4.291,6.328-5.1,10.152
		c-0.119,0.561,0.076,1.241,0.706,1.492c0.776,0.309,1.559,0.007,2.083-0.523C145.931,73.284,147.735,70.114,148.284,66.618z
		 M217.892,63.284c0.977,0.708,2.013-0.21,2.977,0.205c0.75,0.323,1.052-0.419,1.397-0.808c0.561-0.633-0.129-1.079-0.474-1.481
		c-1.05-1.225-2.297-2.239-3.747-2.955c-0.81-0.399-1.716-0.977-2.6-0.293c-0.881,0.682-1.067,1.763-0.838,2.771
		c0.646,2.841,1.839,5.4,4.081,7.396c1.124,1.001,2.139,1.135,3.526-0.172C219.299,67.67,219.571,64.715,217.892,63.284z
		 M152.98,83.141c-0.309-1.006-0.393-1.736-1.954-0.85c-1.246,0.707-1.245,1.694-1.763,2.564c-0.349,0.585-0.535,1.368,0.004,1.903
		c0.749,0.743,1.158-0.28,1.696-0.528c1.109-0.512,1.091-0.551,1.324-0.144c0.465,0.814,0.552,0.865,0.85,0.362
		c1.438-2.43,3.651-4.205,5.344-6.419c2.835-3.706,3.695-7.988,4.133-12.856c-2.326,3.452-3.299,7.042-4.99,10.314
		C156.456,79.749,156.007,82.232,152.98,83.141z M152.01,49.473c-0.103,1.335-0.171,2.268,0.689,2.749
		c0.871,0.487,1.688-0.083,2.286-0.631c3.031-2.774,4.112-6.491,4.789-10.363c0.119-0.68-0.175-1.395-0.829-1.738
		c-0.84-0.44-1.475,0.186-2.001,0.685C154.138,42.837,152.718,46.223,152.01,49.473z M140.12,63.551
		c0.057-0.796-0.047-1.44-0.625-1.92c-0.576-0.478-1.235-0.268-1.608,0.12c-2.432,2.531-4.91,5.05-5.591,8.714
		c-0.178,0.956,0.136,1.07,1.081,1.023c0.975-0.048,2.093-2.804,2.98,0.055c0.192-0.15,0.453-0.26,0.565-0.456
		C138.309,68.676,139.496,66.179,140.12,63.551z M239.825,155.107c-2.803,1.603-4.908,0.411-6.889-1.356
		c-0.623-0.556-1.341-1.007-1.937-1.588c-0.607-0.593-0.89-0.924-1.331,0.218c-1.102,2.852-0.813,4.154,1.563,5.908
		c0.744,0.548,1.445,1.157,2.14,1.768c1.107,0.971,1.743,0.883,1.835-0.729c0.095-1.654,1.006-2.498,2.642-2.782
		C238.555,156.424,239.468,156.328,239.825,155.107z M157.73,32.508c1.958-1.916,3.581-4.672,6.216-5.245
		c2.439-0.531,4.913-1.562,7.582-1.196c2.74,0.375,5.339,1.271,8,1.934C168.212,22.278,164.338,23.513,157.73,32.508z
		 M232.812,88.045c0.101-3.087,1.015-6.241-0.347-9.245c-0.303-0.669-0.335-1.419,0.094-1.943c1.304-1.591,0.963-3.262,0.279-5.527
		c0.209,2.095-0.057,3.625-1.562,4.33c-2.421,1.134-1.486,2.508-0.266,3.631c1.384,1.274,1.917,2.688,1.817,4.499
		C232.749,85.205,232.812,86.627,232.812,88.045z M232.443,69.411c0.817-7.512-0.467-9.189-8.051-13.964
		C228.977,59.008,233.139,62.808,232.443,69.411z M106.036,199.766c-0.55-2.15,0.08-4.045,1.402-5.616
		c0.729-0.867-0.834-1.813,0.228-2.296c0.77-0.35,1.571-0.204,0.946-1.493c-0.543-1.12-1.308-0.105-1.995-0.39
		c-0.873-0.362-0.435,0.878-0.412,1.33c0.075,1.464-0.186,2.848-0.694,4.192C104.946,196.989,105,198.396,106.036,199.766z
		 M130.285,125.179c2.4,1.165,2.446,3.32,3.382,4.92c0.531,0.906,0.879,0.146,1.018,0.042c0.78-0.591,0.94-1.499,1.003-2.427
		c0.059-0.872,0.032-1.968-0.797-2.209c-1.382-0.402-0.288,1.396-1.214,1.662C132.815,126.427,132.456,124.92,130.285,125.179z
		 M240.458,158.483c2.315-3.67,2.31-3.661-1.074-5.945c-0.766-0.518-1.476-1.118-2.22-1.67c-0.768-0.57-1.563-1.021-2.817-0.485
		c2.573,0.758,4.168,2.656,6.334,3.578c0.937,0.398,0.772,1.237,0.624,1.939C241.118,156.781,240.748,157.624,240.458,158.483z
		 M168.432,27.075c1.736,3.133-0.554,5.665-0.403,8.955c1.275-2.159,0.521-4.489,1.847-5.855
		C171.764,28.229,170.13,27.971,168.432,27.075z M164.87,48.799c-1.091,0.968-1.091,0.968,0.033,4.729
		C165.375,51.749,165.375,51.749,164.87,48.799z M47.6,105.471c3.157,1.807,4.969,3.063,6.018-1.479
		C52.329,107.48,49.959,106.18,47.6,105.471z"/>
	<path fill-rule="evenodd" clip-rule="evenodd" d="M182.83,90.073c4.63,0.432,8.382,2.706,11.994,5.784
		c-0.96,0.156-1.796,0.403-2.63,0.4c-0.986-0.004-1.838-0.84-3.108-0.594c0.78,1.773,2.399,2.02,3.866,2.401
		c1.685,0.438,2.419,0.96,0.56,2.256c-0.444,0.31-1.198,0.728-0.883,1.328c0.21,0.4,0.984,0.591,1.542,0.703
		c1.074,0.216,2.171,0.32,3.261,0.447c0.557,0.064,1.433-0.194,1.422,0.633c-0.052,3.957,2.868,2.306,4.256,1.877
		c2.362-0.729,4.359-1.999,6.752,0.107c0.327,0.288,2.171,0.063,3.159,0.779c1.171,0.848,2.586,1.045,3.277,2.936
		c0.499,1.365,2.431,3.035,4.91,2.245c1.701-0.542,5.449,2.792,5.492,4.746c1.458-2.712-0.44-3.678-2.221-4.421
		c-2.046-0.854-3.734-2.21-5.968-3.357c1.209-0.328,2.339,0.506,2.36,0.459c0.72-1.693,1.77-0.509,2.622-0.299
		c1.393,0.343,2.742,0.861,4.132,1.221c2.927,0.757,5.004-0.759,5.185-3.797c0.076-1.266,0.006-2.54,0.005-3.81
		c-0.002-1.172,0-2.344,0.215-3.504c0.416,5.86,1.58,11.762-1.224,17.432c-0.977,1.975-2.45,3.479-4.274,4.559
		c-2.084,1.233-3.841,2.73-5.13,4.774c-1.273,2.019-3.68,2.596-5.305,4.23c-4.125,4.148-8.842,7.622-13.431,11.234
		c-0.445,0.35-0.843,0.881-1.544,0.684c3.039-2.667,6.081-5.333,9.117-8.003c4.013-3.53,8.32-6.731,12.289-10.709
		c-1.924,0.275-27.423,21.732-29.599,24.863c2.306-1.688,4.22-3.09,6.135-4.492c-3.058,4.175-7.836,6.303-11.567,9.683
		c-1.127,1.021-2.728,1.086-4.125,0.751c-2.759-0.659-5.612-1.144-7.985-2.905c1.095-0.452,1.913,0.371,2.844,0.645
		c4.08,1.198,8.101,2.067,11.508-1.67c-2.259,1.444-4.654,1.808-7.315,1.563c-2.581-0.236-4.937-1.344-7.547-1.665
		c0.24,0.501,0.41,0.858,0.581,1.215c-5.362-1.032-9.952-4.015-15.111-5.875c0.747-0.818,1.417,0.164,2.291-0.239
		c-3.884-1.85-7.609-3.624-11.325-5.384c-1.58-0.967-3.169-1.948-4.76-2.927c-0.564-0.347-1.085-0.306-1.55,0.186
		c1.439,3.589,2.879,7.178,4.318,10.767c-0.622-0.126-1.181-0.98-1.886-0.009c-0.544,0.749-0.489,1.592,0.054,1.98
		c0.898,0.641,0.796,1.991,1.914,2.37c-0.629,1.591-0.946,2.963,0.579,4.468c1.262,1.244,0.417,3.417,1.471,5.025
		c3.133,4.782,2.38,10.392,2.917,15.689c0.163,1.605-0.853,3.33-1.131,5.038c2.91-4.563,2.272-9.596,1.708-14.938
		c1.799,3.542,2.224,7.747,1.055,10.862c-3.158,8.409-6.806,16.595-11.465,24.297c-1.135,1.876-2.325,3.73-4.182,5.016l-0.151-0.137
		c4.322-5.482,7.3-11.707,10.16-18.214c-3.759,1.018-4.981,4.985-8.385,6.253c1.322-2.494,3.822-4.184,5.022-7.014
		c-1.407,0.473-1.895,1.892-3.457,2.182c0.799-1.468,1.496-2.748,2.393-4.396c-4.444,1.014-5.251-2.212-5.773-4.868
		c-0.4-2.03-1.081-1.1-1.665-0.59c-1.633,1.426-3.423,2.7-4.714,4.48c0.122-0.403,0.275-0.795,0.348-1.202
		c0.142-0.793,0.963-2.213-0.659-1.925c-1.176,0.208-3.655-2.17-3.629,1.356c0.01,1.288-1.122,3.041,0.093,3.743
		c1.354,0.781,2.314-1.175,3.533-1.775c-0.407,0.525-0.784,1.077-1.228,1.569c-1.526,1.693-3.319,1.551-4.584-0.384
		c-1.003-1.536-1.41-3.262-1.202-5.071c0.403-3.492,1.382-6.744,3.909-9.395c2.125-2.228,3.66-2.049,5.45,0.528
		c1.25,1.798,0.623,3.973,1.52,5.795c-0.713,0.655-0.911,1.479-0.973,2.569c4.052-3.768,4.052-3.768,4.092-6.692
		c-1.202,1.583-2.19,2.884-3.178,4.185c0.363-3.074,0.667-6.143,1.967-9.033c1.162-2.585,0.72-3.477-1.86-4.222
		c-0.657-0.189-1.017-0.393-1.014-1.151c0.012-3.978-2.509-6.869-6.275-7.895c-0.904-0.247-2.385-0.685-2.752-2.003
		c-0.339-1.217,0.818-1.726,1.418-2.483c0.208-0.263,0.5-0.459,0.707-0.724c0.392-0.503,1.325-0.749,1.074-1.555
		c-0.339-1.086-1.383,0.307-1.946-0.454c0.513-1.086,1.666-1.584,2.426-2.508c-0.406-0.979-1.57,0.497-1.81-0.487
		c-0.224-0.921,0.854-1.137,1.262-1.732c0.437-0.637,1.461-1.014,0.911-2.292c-1.437,1.292-2.841,0.838-4.344-0.038
		c1.238-2.264,3.885-3.041,5.081-5.205c2.375-0.386,3.528-2.668,5.562-3.599c0.347-0.159,0.623-0.736,0.284-1.054
		c-0.313-0.292-0.844-0.479-1.236,0.148c-1.124,1.797-3.029,2.718-4.604,4.008c-2.089,0.074-2.517,2.554-4.565,2.816
		c2.549-1.773,3.901-4.583,6.107-6.635c0.883-0.821,1.595-1.75,2.197-2.739c1.376-2.265,0.393-4.858-2.104-5.671
		c-4.018-1.308-8.053-2.564-12.081-3.841c-1.007-0.319-1.43-0.386-1.413-2.038c0.104-10.398,3.041-20.39,4.017-30.66
		c0.62-6.526,2.46-12.94,4.286-19.283c0.427-1.482,1.185-2.786,2.512-4.292c-4.704,13.036-6.633,26.188-7.94,39.522
		c1.208-1.878,1.748-4.047,2.953-5.916c0.999-1.548,1.686-3.313,2.891-4.749c0.708-0.842,1.545-1.848,2.733-1.23
		c1.011,0.526,0.944,1.7,0.679,2.739c-0.334,1.31-0.481,2.713-1.063,3.903c-1.322,2.705-1.851,5.51-1.634,8.712
		c1.677-0.818,2.889-2.432,5.218-2.825c-2.265,1.77-4.012,3.523-5.681,5.402c0.56,0.706,0.995-0.384,1.604,0.026
		c0.258,0.68-0.821,0.938-0.618,1.744c0.107,0.143,0.339,0.037,0.525-0.126c4.798-4.241,9.587-8.493,14.389-12.73
		c0.971-0.856,1.416-2.086,2.21-3.041c4.415-5.309,9.424-10.051,14.364-14.858c0.69-0.671,1.877-1.095,2.245-0.566
		c1.269,1.826,3.535,1.565,5.061,2.816c1.737,1.424,3.879,2.261,5.437,4.043c0.781,0.893,2.072,1.611,3.458,1.719
		c0.809,1.25-0.016,2.034-1.335,2.906C179.771,91.16,181.519,91.841,182.83,90.073z M147.883,143.035
		c-1.894-4.343-3.418-8.694-6.319-12.337c0.859,3.528,2.692,6.608,4.194,9.833C146.188,141.454,145.199,143.462,147.883,143.035z
		 M123.786,103.857c-0.694,3.934-1.492,7.372-1.26,11.155c1.957-0.477,3.206-1.591,4.811-3.015
		c-4.186,1.525-4.544,1.193-3.806-3.096c0.125-0.729,0.452-1.427,0.722-2.125C124.593,105.899,124.636,105.081,123.786,103.857z
		 M125.808,103.673c-0.313,1.318-0.536,2.195-0.728,3.08c-0.32,1.473-1.133,3.561,0.064,4.273c1.465,0.871,2.703-1.078,3.896-2.058
		c0.067-0.055,0.009-0.262,0.009-0.542c-0.351,0.118-0.653,0.208-0.946,0.319c-0.751,0.285-1.5,1.256-2.278,0.571
		c-0.798-0.703-0.373-1.618,0.131-2.509C126.392,106.037,126.449,105.069,125.808,103.673z M124.63,119.042
		c1.281-2.651,3.804-4.383,5.268-6.898C127.944,114.297,124.966,115.691,124.63,119.042z M146.368,182.438
		c0.981,0.504,1.566-0.301,1.54-1.158c-0.043-1.421-1.565-0.502-2.293-1.092c-0.401-0.325-1.213,0.153-1.108,0.902
		C144.629,181.962,145.026,182.729,146.368,182.438z M232.339,109.732c-2.028,0.625-3.483,0.893-5.328,0.922
		C229.495,111.894,230.308,111.773,232.339,109.732z"/>
	<path fill-rule="evenodd" clip-rule="evenodd" d="M39.788,176.509c-0.98-0.632-1.153-1.846-2.056-2.815
		c-0.249,1.618,1.342,2.75,0.787,4.762c-1.967-4.368-3.993-8.192-5.43-12.226c-1.918-5.383,1.13-9.86,3.652-14.15
		c3.968-6.751,9.205-12.516,15.2-17.639c-0.375,1.704-0.344,1.737-2.092,3.352c-3.858,3.566-7.705,7.136-10.46,11.685
		c-0.569,0.939-1.181,1.863-1.648,2.854c-2.456,5.211-0.902,7.745,4.831,8.021c0.791,0.038,1.728-0.344,2.432,0.633
		c-0.855,0.537-1.926-0.786-2.729,0.4c1.115,0.234,2.186,0.46,3.26,0.686c-0.033,0.232,0.003,0.458-0.088,0.54
		c-0.572,0.511-1.963,0.091-1.831,1.281c0.09,0.819,1.188,0.874,1.874,1.06c2.682,0.725,5.368,1.484,8.101,1.948
		c2.188,0.371,3.775,1.22,4.447,3.417c-0.648-0.4-1.224-0.856-1.559-1.583c-0.163-0.353-0.466-0.865-0.917-0.482
		c-0.774,0.656-0.867,1.454-0.502,2.484c0.389,1.096,0.823,1.847,2.095,1.56c1.263-0.286,1.387-1.047,0.737-2.053
		c0.945,0.042,0.863-1.183,1.756-1.396c0.067,0.351,0.179,0.664,0.181,0.978c0.012,3.445,0.022,3.504,3.24,2.683
		c0.815-0.209,0.972,0.223,1.331,0.633c0.67,0.765,0.53,1.976,1.685,2.801c-0.043-2.018-0.243-3.866,2.81-3.271
		c1.078,0.211,0.667,1.344,1.947,1.36c2.751,0.035,5.603,0.57,8.254,0.979c2.882,0.444,6.216-0.146,8.903,1.694
		c1.443,0.989,3.315-0.093,4.883,0.816c-0.738,1.556-2.116,0.147-2.979,0.933c1.561,1.002,3.333,1.139,5.061,1.369
		c0.816,0.108,1.562-0.263,1.722-1.142c0.099-0.546,1.01-1.366-0.517-1.663c-0.854-0.166-0.108-0.758,0.253-0.945
		c1.657-0.858,3.047-2.054,4.412-3.547c0.144,2.001-1.945,2.59-2.287,4.254c1.994-0.824,2.967-2.355,3.609-4.273
		c0.237,0.307,0.396,0.469,0.377,0.494c-3.09,4.04-2.348,8.375-0.992,12.757c0.15,0.484,0.407,0.956,0.449,1.447
		c0.059,0.676,0.66,1.674-0.355,1.939c-0.859,0.226-0.86-0.81-1.097-1.402c-0.653-1.632-1.316-3.259-2.169-4.82
		c0.011,1.85,0.474,3.516,1.208,5.229c3.69,8.62,7.382,17.235,10.709,26.016c0.992,2.617,2.359,5.852,4.379,7.806
		c2.083,2.017,3.548,4.354,5.321,6.514c0.73,0.89,1.104,0.32,1.592-0.149l-0.018,0.005c4.873-2.773,8.438-6.785,11.612-11.376
		c2.414-3.492,4.901-7.018,8.029-9.978l0.151,0.137c-0.128,0.305-0.237,0.619-0.386,0.912c-0.438,0.857-1.768,1.569-1.134,2.583
		c0.742,1.186,2.112,0.474,3.234,0.345c0.81-0.093,1.622-0.173,2.588-0.274c-0.843,1.186-2.366,0.701-3.082,1.741
		c0.396,0.145,0.759,0.278,1.241,0.454c-0.893,0.485-1.666,0.904-2.438,1.324c0.034,0.079,0.069,0.157,0.103,0.235
		c3.405-0.777,6.81-1.556,10.862-2.481c-1.427,0.879-2.384,1.254-3.022,1.93c-0.515,0.546-1.717,0.783-1.376,1.878
		c0.376,1.208,1.555-0.02,2.217,0.643c-0.429,0.317-0.861,0.636-1.624,1.198c1.586,0.142,2.586-0.616,3.677-0.714
		c0.864-0.077,1.837-1.238,2.667,0.081c0.001-0.001-0.003-0.074-0.003-0.074c1.595,2.996-1.248,3.479-2.875,4.737
		c2.652-0.382,5.163,0.86,7.638-0.308c-1.932,1.518-4.467,1.356-7.071,3.167c3.521-0.981,6.313-0.677,9.769,0.277
		c-16.758,2.523-31.757,9.295-47.813,12.347c1.681-0.592,3.363-1.184,5.044-1.775c-6.37,0.589-12.451,2.189-18.349,4.499
		c-3.042,1.191-6.195,1.422-9.418,1.237c-0.836-0.049-1.697,0.022-2.522,0.172c-2.535,0.457-5.487,0.426-7.541,1.221
		c-3.872,1.5-7.706,0.015-11.364,1.388c-0.011-0.904,0.918-0.422,1.123-1.272c-3.773,0.228-7.342,1.767-11.216,1.121
		c-0.3-0.193,1.91-1.081-0.201-1.097c-1.79-0.014-3.57,0.729-6.118,0.072c4.843-2.005,9.463-2.596,13.478-4.849
		c-2.429,0.262-4.733,1.365-7.283,1.113c0.327-0.953,1.527-0.476,1.925-2.056c-4.164,1.597-8.231,0.771-12.329,1.136
		c1.485-0.629,2.97-1.259,4.455-1.888c-0.033-0.094-0.066-0.188-0.098-0.282c-2.105,0.539-4.209,1.085-6.317,1.613
		c-1.314,0.329-2.63,0.631-4.01,0.47c-0.774-0.09-1.3-0.486-1.473-1.191c-0.264-1.074,0.8-0.979,1.297-1.132
		c4.438-1.376,8.892-2.695,13.438-3.689c2.051-0.449,4.063-1.081,5.983-2.071c-8.129,1.943-16.257,3.886-24.404,5.833
		c-0.23-0.614,0.912-0.376,0.826-0.992c-4.267,0.122-7.958,2.591-12.562,3.154c1.467-1.601,3.41-1.689,4.813-2.967
		c-1.449-0.381-2.446,0.935-4.48,0.302c6.407-2.089,12.449-3.239,18.067-6.076c-5.352,0.674-10.021,4.438-15.72,2.719
		c1.571-2.438,3.399-4.205,6.147-4.931c-1.138,0.15-2.275,0.302-3.607,0.478c0.841-1.626,2.762-0.745,3.474-2.047
		c3.645-0.32,6.613-2.436,9.919-3.676c-4.006,0.659-7.954,1.489-11.968,2.946c0.878,0.317,1.497,0.541,2.117,0.765
		c-3.619,0.482-6.833,2.125-10.13,3.531c-0.601,0.256-1.184,1.059-1.806,0.645c-0.65-0.432-1.671-0.61-1.822-1.577
		c-0.176-1.125,0.71-1.393,1.537-1.654c3.379-1.067,6.75-2.159,10.141-3.189c1.944-0.591,4.5-0.767,5.542-2.261
		c2.37-3.398,5.996-3.954,9.287-4.325c4.187-0.473,7.833-2.49,12.204-3.064c-2.4-2.48-5.022-4.588-5.764-7.983
		c2.674,3.054,4.591,7.013,9.368,7.716c-1.818-1.101-3.467-2.225-4.914-3.65c-1.457-1.436-2.632-3.064-3.782-4.73
		c-0.416-0.602-0.705-1.408-1.692-1.251c-0.105-0.403-0.008-0.906-0.542-1.099c-0.006-0.685-0.012-1.369-0.017-2.055
		c0.391-0.089,0.781-0.178,1.172-0.267c-0.292,0.204-0.566,0.495-0.341,0.824c1.398,2.038,2.832,4.051,4.254,6.071
		c0.142-0.088,0.284-0.176,0.425-0.264c-0.991-1.996-1.982-3.991-2.974-5.987c1.269-0.692,1.696-2.885,3.856-2.075
		c0.37,0.138,0.236-0.642,0.282-1.032c0.43-3.674-3.524-3.171-4.854-5.143c-0.429-0.637-0.964-0.502-1.533-0.51
		c-1.042-0.015-1.767,0.315-1.974,1.472c-0.115,0.645-0.412,1.257-0.627,1.885c-0.125-0.029-0.249-0.064-0.37-0.104
		c-0.453,0.011-0.905,0.021-1.357,0.031l0.059,0.084c0.243-0.887,0.583-1.76,0.706-2.662c0.211-1.559,0.289-3.636-1.577-3.728
		c-1.441-0.072-1.1-0.881-1.623-1.361c-1.311-1.206,0.629-1.917,0.143-2.939c-0.869,0.468-1.067,1.792-2.27,1.722
		c-0.166-0.366-0.332-0.731-0.497-1.098c-0.283-3.021-2.701-4.882-3.989-7.354c0.596,0.35,1.738,0.323,1.45-0.223
		c-1.08-2.044,0.782-3.064,1.473-4.767C40.967,173.544,40.396,175.044,39.788,176.509z M36.406,171.482
		c0.589-2.439-1.403-4.354,0.043-6.292c0.247-0.33,0.681-0.921-0.048-1.24c-0.606-0.265-0.896,0.292-1.156,0.697
		C33.655,167.12,35.36,168.981,36.406,171.482z"/>
	<path fill-rule="evenodd" clip-rule="evenodd" d="M99.14,148.311c1.328,3.053-1.029,5.61-0.422,8.555
		c0.173,0.838-1.008,2.043-1.72,2.962c-2.798,3.608-6.421,5.374-11.051,4.654c-2.292-0.355-4.278-1.209-4.87-3.747
		c-0.489-2.096,1.108-5.174,3.067-6.543c2.995-2.093,6.383-2.876,9.916-3.268c0.302-0.033,0.619,0.112,0.932,0.139
		c1.353,0.114,4.409,3.383,3.023-1.65C97.814,148.679,98.695,148.426,99.14,148.311z M82.843,156.303
		c-1.278,1.897-1.438,3.219-0.752,4.602c0.78,1.574,2.063,0.348,3.096,0.479c0.544,0.069,1.135-0.01,1.717,0.019
		c0.839,0.041,2.212,0.898,2.375-0.739c0.126-1.272,0.476-2.818-1.605-3.276c-1.965-0.432-3.367,0.692-5.043,1.358
		C82.683,158.142,82.732,157.577,82.843,156.303z"/>
	<path fill-rule="evenodd" clip-rule="evenodd" d="M54.377,155.067c-2.264,0.033-4.449-0.23-5.525-2.619
		c-0.793-1.762,0.349-4.142,2.613-5.787c2.619-1.904,5.37-3.486,8.724-3.659c1.977-0.103,4.083-0.31,5.053,1.882
		c0.948,2.142,0.159,4.164-1.292,5.834C61.445,153.603,58.302,155.204,54.377,155.067z M58.1,151.555
		c-0.478-0.675-1.23-1.255-1.275-1.886c-0.178-2.529-1.568-1.432-2.614-0.913c-1.32,0.655-2.217,2.08-4.132,1.536
		c-0.758-0.216-0.986,0.988-0.671,1.741c0.245,0.585,1.231,1.412,1.365,0.911c0.397-1.487,1.143-0.444,1.659-0.433
		C54.362,152.554,56.267,152.552,58.1,151.555z"/>
	<path fill-rule="evenodd" clip-rule="evenodd" d="M80.052,144.881c-2.973-1.713-3.4-3.38-1.578-6.149
		c2.387-3.626,9.205-6.084,13.326-4.804c1.997,0.621,2.858,2.59,1.973,4.992c-1.503,4.081-4.656,6.114-8.855,6.527
		c-1.628,0.16-3.388,0.625-4.893-0.618c1.171-1.437,2.45-2.465,4.547-2.022c0.505,0.107,2.08,0.364,1.942-0.794
		c-0.156-1.318-0.66-2.53-2.174-3.438c-2.243-1.345-3.196,0.479-4.664,1.131c-2.123,0.945-1.897,2.288-0.639,3.778
		C79.413,143.929,79.952,144.241,80.052,144.881z"/>
	<path fill-rule="evenodd" clip-rule="evenodd" d="M105.262,132.418c2.374-5.204,11.446-7.607,15.604-4.472
		c1.566,1.181,1.796,3.239,0.458,5.225c-1.389,2.063-3.395,3.26-5.83,3.729c-3.612,0.695-7.195,1.214-10.135-2.063
		c1.372-0.758,2.736-0.997,4.183-0.154c0.218,0.127,0.447,0.252,0.687,0.32c1.314,0.37,3.111,0.673,3.768-0.229
		c0.629-0.865-0.401-2.585-0.872-3.681c-0.367-0.854-2.718-0.833-3.437-0.102C108.412,132.289,106.868,131.588,105.262,132.418z"/>
	<path fill-rule="evenodd" clip-rule="evenodd" d="M116.463,186.342c-1.507,2.019-2.905,2.035-4.314,0.049
		c-2.171-3.06-1.787-8.497,0.925-12.443c0.96-1.397,2.064-2.698,3.572-3.538c1.646-0.917,3.216-0.494,3.709,1.228
		c1.207,4.214,1.671,8.464-1.522,12.185c0.055-0.247,0.14-0.492,0.16-0.742c0.055-0.707,0.945-1.518-0.383-2.05
		c-0.975-0.391-1.762-1.372-2.968-0.486c-0.884,0.649-1.531,1.313-1.136,2.524c0.181,0.557,0.256,1.147,0.379,1.722
		c-0.397-0.131-0.472-1.804-1.135-0.348c-0.311,0.683-1.042,1.744,0.025,2.511C114.85,187.726,115.647,186.912,116.463,186.342z"/>
	<path fill-rule="evenodd" clip-rule="evenodd" d="M82.07,77.956c1.217,2.616,2.516,5.178,4.797,7.073
		c0.061,0.875-0.462,1.14-1.219,1.222c-2.312,0.251-4.585,0.983-6.932,0.741c-1.306-0.135-2.232,0.372-3.082,1.226
		c0.044-1.12,1-1.751,1.85-2.873c-2.201,0.328-2.113,2.774-3.755,3.146c-0.125-0.268-0.193-0.346-0.188-0.419
		c0.009-0.145,0.011-0.352,0.101-0.42c2.559-1.945,1.684-3.971,0.163-6.021c-0.926-1.249-2.125-2.333-2.694-4.214
		C74.952,77.86,78.542,76.771,82.07,77.956z"/>
	<path fill-rule="evenodd" clip-rule="evenodd" d="M71.538,126.824c-0.034-1.137,0.656-1.907,1.431-2.557
		c2.542-2.134,5.544-3.256,8.814-3.409c1.568-0.074,3.451,0.239,4.108,1.911c0.637,1.621,0.191,3.629-1.049,4.715
		c-2.771,2.426-6.075,3.985-9.912,3.704c-2.802-0.205-4.032-1.965-3.304-4.45c0.025,2.082,0.658,3.032,1.266,2.35
		c1.057-1.186,1.921-0.998,3.214-0.444c1.551,0.665,2.518,0.128,2.146-1.834c-0.285-1.501-1.992-2.365-3.383-1.296
		C73.808,126.327,72.63,126.362,71.538,126.824z"/>
	<path fill-rule="evenodd" clip-rule="evenodd" d="M187.599,70.56c-1.457-1.137-3.193-0.391-3.808-2.066
		c-0.727,1.275-2.419,0.787-3.234,1.742c-0.305,0.357,0.009,1.148,0.58,1.52c1.017,0.66,1.904,1.778,3.343,0.993
		c0.346-0.189,0.661-0.438,1.398-0.934c-2.759,3.485-4.452,3.708-7.38,1.158c-2.189-1.906-4.061-4.034-4.138-7.211
		c-0.053-2.188,1.222-3.053,3.099-3.205C180.521,62.309,186.502,66.813,187.599,70.56z"/>
	<path fill-rule="evenodd" clip-rule="evenodd" d="M206.849,71.262c-0.419,1.824-1.735,2.159-3.301,1.871
		c-4.191-0.769-7.773-5.417-7.473-9.619c0.15-2.112,1.532-3.191,3.604-2.815c3.719,0.675,7.849,6.014,7.534,9.778
		c-0.025,0.296-0.28,0.573-0.427,0.859c1.039-2.281-1.396-2.981-2.291-4.039c-0.791-0.934-2.581,0.587-4.145,1.077
		c1.046,1.032,1.269,2.627,3.216,2.121c0.789-0.205,1.019,0.472,0.445,1.292c-0.698,0.999,0.052,1.219,0.8,0.896
		C205.556,72.361,206.175,71.748,206.849,71.262z"/>
	<path fill-rule="evenodd" clip-rule="evenodd" d="M82.07,77.956c-3.528-1.185-7.119-0.096-10.959-0.539
		c0.568,1.881,1.768,2.965,2.694,4.214c1.521,2.05,2.396,4.077-0.163,6.021c-0.09,0.068-0.092,0.275-0.101,0.42
		c-0.005,0.073,0.063,0.151,0.188,0.419c1.642-0.373,1.554-2.818,3.755-3.146c-0.85,1.122-1.805,1.753-1.85,2.873
		c-0.151,0.469-0.302,0.938-0.453,1.408c-0.86,0.788-1.256,0.217-1.725-0.509c-1.712-2.649-3.507-5.245-5.203-7.904
		C67.518,80.06,69.34,77,70.815,76.907c3.352-0.211,6.724,0.278,10.069-0.256C81.972,76.478,81.627,77.566,82.07,77.956z"/>
	<path fill-rule="evenodd" clip-rule="evenodd" d="M148.284,66.618c-0.549,3.496-2.354,6.666-5.02,9.362
		c-0.524,0.53-1.307,0.832-2.083,0.523c-0.629-0.25-0.824-0.931-0.706-1.492c0.809-3.824,1.897-7.53,5.1-10.152
		c0.523-0.428,1.147-0.834,1.849-0.487C148.198,64.756,148.355,65.508,148.284,66.618z"/>
	<path fill-rule="evenodd" clip-rule="evenodd" d="M217.892,63.284c1.679,1.431,1.407,4.386,4.323,4.663
		c-1.388,1.307-2.402,1.173-3.526,0.172c-2.241-1.996-3.435-4.554-4.081-7.396c-0.229-1.008-0.043-2.089,0.838-2.771
		c0.883-0.684,1.79-0.106,2.6,0.293c1.449,0.716,2.696,1.729,3.747,2.955c0.345,0.402,1.035,0.848,0.474,1.481
		c-0.345,0.388-0.647,1.131-1.397,0.808C219.905,63.074,218.869,63.993,217.892,63.284z"/>
	<path fill-rule="evenodd" clip-rule="evenodd" d="M149.333,75.741c0.486-3.848,2.2-7.087,5.068-9.647
		c1.318-1.177,2.705-0.624,2.504,1.055c-0.427,3.586-0.896,7.277-3.792,9.955c-0.656,0.606-1.409,1.402-2.362,0.341
		c0.228-0.226,0.682-0.494,0.649-0.672c-0.299-1.615,2.772-1.644,1.695-2.945C152.682,73.328,150.473,74.727,149.333,75.741z"/>
	<path fill-rule="evenodd" clip-rule="evenodd" d="M152.98,83.141c3.027-0.909,3.476-3.392,4.645-5.654
		c1.691-3.272,2.665-6.863,4.99-10.314c-0.438,4.868-1.298,9.15-4.133,12.856c-1.693,2.214-3.906,3.989-5.344,6.419
		c-0.298,0.503-0.385,0.452-0.85-0.362c-0.233-0.407-0.215-0.368-1.324,0.144c-0.538,0.248-0.947,1.271-1.696,0.528
		c-0.539-0.535-0.353-1.318-0.004-1.903c0.518-0.87,0.517-1.857,1.763-2.564C152.588,81.405,152.672,82.135,152.98,83.141z"/>
	<path fill-rule="evenodd" clip-rule="evenodd" d="M152.01,49.473c0.708-3.25,2.128-6.636,4.934-9.299
		c0.526-0.499,1.161-1.125,2.001-0.685c0.654,0.343,0.948,1.058,0.829,1.738c-0.676,3.873-1.757,7.589-4.789,10.363
		c-0.598,0.547-1.415,1.118-2.286,0.631C151.839,51.741,151.907,50.808,152.01,49.473z M156.295,48.575
		c0.067-0.601,0.127-1.014-0.281-1.104c-1.346-0.301-1.64,1.79-3.244,1.388c-0.562-0.141-0.348,1.121-0.292,1.751
		c0.091,1.015,0.663,1.279,1.559,0.829C155.333,50.788,155.485,49.292,156.295,48.575z"/>
	<path fill-rule="evenodd" clip-rule="evenodd" d="M166.933,76.839c-1.092,0.129-2.77-0.038-0.579,1.64
		c-4.701-0.287-6.4,4.057-10.323,5.838c1.927-1.581,2.639-3.553,4.621-4.401c0.713-0.305,1.905-0.896,0.448-1.92
		c-0.071-0.05,0.077-0.48,0.183-0.705c2.516-5.313,2.413-11.182,3.718-17.008c0.689,1.146,0.188,2.187,0.132,3.187
		c-0.062,1.098-0.097,2.198-0.19,3.293c-0.094,1.095-0.245,2.185-0.372,3.277c-0.205,1.771,0.071,3.248,1.74,4.384
		c1.371,0.934,1.257,1.1,0.543,2.424C166.856,76.848,166.933,76.839,166.933,76.839z"/>
	<path fill-rule="evenodd" clip-rule="evenodd" d="M140.12,63.551c-0.624,2.628-1.811,5.125-3.198,7.536
		c-0.112,0.195-0.373,0.306-0.565,0.456c-0.887-2.859-2.006-0.103-2.98-0.055c-0.945,0.047-1.259-0.068-1.081-1.023
		c0.681-3.664,3.159-6.183,5.591-8.714c0.373-0.388,1.032-0.597,1.608-0.12C140.073,62.11,140.177,62.755,140.12,63.551z"/>
	<path fill-rule="evenodd" clip-rule="evenodd" d="M200.063,143.182c-1.915,1.402-3.83,2.804-6.135,4.492
		c2.175-3.13,27.675-24.588,29.599-24.863c-3.968,3.979-8.275,7.179-12.289,10.709c-3.036,2.671-6.078,5.336-9.117,8.003
		C201.435,142.076,200.749,142.629,200.063,143.182z"/>
	<path fill-rule="evenodd" clip-rule="evenodd" d="M239.825,155.107c-0.357,1.221-1.27,1.316-1.977,1.438
		c-1.636,0.284-2.547,1.128-2.642,2.782c-0.092,1.611-0.728,1.699-1.835,0.729c-0.695-0.61-1.396-1.22-2.14-1.768
		c-2.376-1.754-2.664-3.057-1.563-5.908c0.441-1.142,0.724-0.811,1.331-0.218c0.595,0.581,1.314,1.032,1.937,1.588
		C234.917,155.519,237.022,156.71,239.825,155.107z"/>
	<path fill-rule="evenodd" clip-rule="evenodd" d="M75.182,89.626c0.151-0.47,0.302-0.939,0.453-1.408
		c0.85-0.854,1.775-1.361,3.082-1.226c2.347,0.243,4.62-0.489,6.932-0.741c0.757-0.083,1.28-0.348,1.219-1.222
		c0.272,0.299,0.826,0.671,0.771,0.888c-0.394,1.552-3.393,3.601-5.122,3.618C80.071,89.56,77.626,89.595,75.182,89.626z"/>
	<path fill-rule="evenodd" clip-rule="evenodd" d="M157.73,32.508c6.608-8.995,10.482-10.23,21.797-4.507
		c-2.661-0.664-5.26-1.559-8-1.934c-2.668-0.366-5.142,0.665-7.582,1.196C161.311,27.836,159.688,30.592,157.73,32.508z"/>
	<path fill-rule="evenodd" clip-rule="evenodd" d="M212.586,194.052c-0.645,0.375-1.338,0.685-1.923,1.136
		c-2.116,1.632-4.045,1.38-6.302,0.025c-1.842-1.106-2.393-2.328-1.877-4.523c1.593,1.108,3.495,1.474,4.323,3.33
		c0.513,1.148,0.507,0.309,0.662-0.152c0.253-0.762,0.932-0.51,1.475-0.569c-0.692,0.629-1.597,1.206-1.009,2.297
		c0.048,0.088,1.348-0.529,2.08-0.773C210.864,194.538,211.729,194.306,212.586,194.052z"/>
	<path fill-rule="evenodd" clip-rule="evenodd" d="M114.883,184.789c-0.123-0.574-0.198-1.165-0.379-1.722
		c-0.395-1.211,0.252-1.875,1.136-2.524c1.206-0.886,1.993,0.096,2.968,0.486c1.328,0.532,0.438,1.343,0.383,2.05
		c-0.02,0.25-0.105,0.495-0.16,0.742c-0.455,1.122-1.305,1.858-2.344,2.41C115.952,185.751,115.417,185.271,114.883,184.789z"/>
	<path fill-rule="evenodd" clip-rule="evenodd" d="M134.466,185.019c-1.218,0.601-2.179,2.557-3.533,1.775
		c-1.214-0.702-0.083-2.455-0.093-3.743c-0.026-3.526,2.453-1.148,3.629-1.356c1.622-0.288,0.801,1.132,0.659,1.925
		c-0.072,0.407-0.226,0.799-0.348,1.202C134.624,184.918,134.52,184.982,134.466,185.019z"/>
	<path fill-rule="evenodd" clip-rule="evenodd" d="M232.812,88.045c0-1.418-0.063-2.841,0.016-4.255
		c0.101-1.811-0.433-3.224-1.817-4.499c-1.221-1.124-2.156-2.497,0.266-3.631c1.505-0.705,1.771-2.235,1.562-4.33
		c0.684,2.265,1.025,3.936-0.279,5.527c-0.429,0.524-0.397,1.274-0.094,1.943C233.827,81.805,232.913,84.958,232.812,88.045z"/>
	<path fill-rule="evenodd" clip-rule="evenodd" d="M44.159,185.343c0.166,0.366,0.332,0.731,0.497,1.098
		c0.771,3.386,2.789,6.129,4.621,8.969l-0.059-0.084c0.102,0.405,0.204,0.81,0.306,1.214c-1.941-1.146-2.431-3.334-3.574-5.046
		c-2.148-3.217-3.57-6.888-6.129-9.855c-0.367-0.425-0.283-0.935-0.048-1.424C41.248,181.938,42.703,183.641,44.159,185.343z"/>
	<path fill-rule="evenodd" clip-rule="evenodd" d="M232.443,69.411c0.695-6.603-3.467-10.403-8.051-13.964
		C231.977,60.222,233.26,61.899,232.443,69.411z"/>
	<path fill-rule="evenodd" clip-rule="evenodd" d="M166.933,76.839c0,0-0.077,0.009-0.078,0.008c2.267,1.606,4.544,3.199,6.79,4.835
		c0.411,0.299,1.285,0.557,0.832,1.262c-0.559,0.868-1.254,0.185-1.69-0.236c-1.239-1.196-2.884-1.745-4.186-2.711
		C167.866,79.451,166.881,78.21,166.933,76.839z"/>
	<path fill-rule="evenodd" clip-rule="evenodd" d="M106.036,199.766c-1.037-1.37-1.09-2.776-0.524-4.272
		c0.508-1.345,0.769-2.729,0.694-4.192c-0.023-0.452-0.461-1.692,0.412-1.33c0.687,0.284,1.452-0.73,1.995,0.39
		c0.625,1.289-0.177,1.144-0.946,1.493c-1.062,0.482,0.501,1.429-0.228,2.296C106.116,195.721,105.486,197.615,106.036,199.766z"/>
	<path fill-rule="evenodd" clip-rule="evenodd" d="M130.285,125.179c2.17-0.259,2.53,1.248,3.392,1.987
		c0.926-0.266-0.168-2.064,1.214-1.662c0.83,0.241,0.856,1.337,0.797,2.209c-0.063,0.928-0.223,1.836-1.003,2.427
		c-0.138,0.105-0.487,0.865-1.018-0.042C132.731,128.499,132.685,126.344,130.285,125.179z"/>
	<path fill-rule="evenodd" clip-rule="evenodd" d="M72.236,114.655c-3.947,3.74-8.147,7.205-11.983,11.069
		c3.541-4.171,7.178-8.238,11.766-11.309C72.091,114.496,72.164,114.575,72.236,114.655z"/>
	<path fill-rule="evenodd" clip-rule="evenodd" d="M121.576,228.336c-1.678-1.407-3.291-2.867-4.131-5.58
		c1.454,1.442,2.285,3.324,4.198,3.028c1.783-0.276,2.819-1.999,4.979-3.195c-1.713,2.502-4.174,3.459-5.058,5.747
		C121.558,228.341,121.576,228.336,121.576,228.336z"/>
	<path fill-rule="evenodd" clip-rule="evenodd" d="M53.814,203.577c0.987-0.157,1.277,0.649,1.692,1.251
		c1.15,1.666,2.326,3.295,3.782,4.73c1.447,1.426,3.096,2.55,4.914,3.65c-4.777-0.703-6.693-4.662-9.368-7.716
		C54.495,204.854,54.155,204.216,53.814,203.577z"/>
	<path fill-rule="evenodd" clip-rule="evenodd" d="M57.892,170.242c0.649,1.006,0.526,1.767-0.737,2.053
		c-1.271,0.287-1.706-0.464-2.095-1.56c-0.365-1.03-0.272-1.828,0.502-2.484c0.451-0.383,0.754,0.13,0.917,0.482
		c0.334,0.727,0.911,1.183,1.559,1.583C58.037,170.317,57.892,170.242,57.892,170.242z"/>
	<path fill-rule="evenodd" clip-rule="evenodd" d="M240.458,158.483c0.29-0.859,0.66-1.702,0.847-2.584
		c0.148-0.702,0.313-1.541-0.624-1.939c-2.166-0.922-3.761-2.819-6.334-3.578c1.253-0.535,2.049-0.084,2.817,0.485
		c0.744,0.552,1.454,1.153,2.22,1.67C242.768,154.822,242.773,154.813,240.458,158.483z"/>
	<path fill-rule="evenodd" clip-rule="evenodd" d="M72.018,114.416c3.371-3.812,7.727-2.222,11.803-2.173
		c-3.933,0.465-8.007,0.234-11.585,2.412C72.164,114.575,72.091,114.496,72.018,114.416z"/>
	<path fill-rule="evenodd" clip-rule="evenodd" d="M212.586,194.052c-0.858,0.254-1.723,0.486-2.571,0.77
		c-0.732,0.244-2.032,0.861-2.08,0.773c-0.588-1.091,0.316-1.668,1.009-2.297c0.766-0.282,1.522-0.594,2.301-0.838
		c0.526-0.165,1.157-0.608,1.618-0.17C213.484,192.884,212.746,193.466,212.586,194.052z"/>
	<path fill-rule="evenodd" clip-rule="evenodd" d="M150.4,151.667c-1.117-0.379-1.015-1.729-1.914-2.37
		c-0.543-0.388-0.599-1.231-0.054-1.98c0.706-0.971,1.265-0.117,1.886,0.009C150.453,148.771,151.921,150.191,150.4,151.667z"/>
	<path fill-rule="evenodd" clip-rule="evenodd" d="M182.83,90.073c-1.311,1.768-3.059,1.087-5.257,0.922
		c1.319-0.872,2.144-1.656,1.335-2.906C180.214,88.75,181.522,89.411,182.83,90.073z"/>
	<path fill-rule="evenodd" clip-rule="evenodd" d="M168.432,27.075c1.698,0.896,3.332,1.154,1.444,3.1
		c-1.326,1.366-0.572,3.697-1.847,5.855C167.878,32.739,170.168,30.208,168.432,27.075z"/>
	<path fill-rule="evenodd" clip-rule="evenodd" d="M39.788,176.509c0.609-1.465,1.18-2.965,3.305-3.509
		c-0.691,1.702-2.553,2.723-1.473,4.767c0.288,0.546-0.854,0.572-1.45,0.223C40.042,177.494,39.915,177.001,39.788,176.509z"/>
	<path fill-rule="evenodd" clip-rule="evenodd" d="M149.333,75.741c1.14-1.015,3.349-2.414,3.763-1.914
		c1.078,1.302-1.994,1.33-1.695,2.945c0.033,0.178-0.421,0.446-0.649,0.672C149.028,77.919,149.572,76.504,149.333,75.741z"/>
	<path fill-rule="evenodd" clip-rule="evenodd" d="M146,136.56c0.465-0.492,0.986-0.533,1.55-0.186
		c1.591,0.979,3.18,1.96,4.76,2.927c0.137,0.188,0.408,0.389,0.407,0.588c-0.003,0.573-0.424,0.314-0.639,0.191
		C150.044,138.92,148.024,137.737,146,136.56z"/>
	<path fill-rule="evenodd" clip-rule="evenodd" d="M133.121,135.846c1.576-1.29,3.481-2.21,4.604-4.008
		c0.392-0.628,0.924-0.441,1.236-0.148c0.339,0.317,0.063,0.895-0.284,1.054c-2.034,0.931-3.187,3.213-5.562,3.599
		C133.118,136.177,133.12,136.012,133.121,135.846z"/>
	<path fill-rule="evenodd" clip-rule="evenodd" d="M49.523,196.539c-0.102-0.404-0.204-0.809-0.306-1.214
		c0.453-0.011,0.905-0.021,1.356-0.031c-0.245,2.36,1.786,3.502,2.781,5.199l-0.098-0.069c0.005,0.686,0.011,1.37,0.017,2.055
		C52.023,200.499,50.773,198.52,49.523,196.539z"/>
	<path fill-rule="evenodd" clip-rule="evenodd" d="M114.883,184.789c0.535,0.481,1.069,0.962,1.604,1.442
		c0,0-0.027,0.118-0.026,0.114c-0.814,0.566-1.612,1.38-2.688,0.606c-1.067-0.767-0.336-1.828-0.025-2.511
		C114.411,182.985,114.485,184.658,114.883,184.789z"/>
	<path fill-rule="evenodd" clip-rule="evenodd" d="M154.874,216.904c0,0,0.005,0.073,0.003,0.074
		c1.527-1.883,3.206-0.709,5.111-0.406C158.142,217.776,156.524,217.839,154.874,216.904z"/>
	<path fill-rule="evenodd" clip-rule="evenodd" d="M164.87,48.799c0.505,2.95,0.505,2.95,0.033,4.729
		C163.778,49.767,163.778,49.767,164.87,48.799z"/>
	<path fill-rule="evenodd" clip-rule="evenodd" d="M47.6,105.471c2.359,0.709,4.729,2.01,6.018-1.479
		C52.569,108.533,50.757,107.278,47.6,105.471z"/>
	<path fill-rule="evenodd" clip-rule="evenodd" d="M147.883,143.035c-2.685,0.427-1.695-1.581-2.125-2.505
		c-1.502-3.225-3.335-6.305-4.194-9.833C144.465,134.341,145.99,138.692,147.883,143.035z"/>
	<path fill-rule="evenodd" clip-rule="evenodd" d="M176.456,150.798c-0.17-0.356-0.341-0.713-0.581-1.215
		c2.61,0.321,4.966,1.429,7.547,1.665c2.662,0.244,5.056-0.119,7.315-1.563c-3.407,3.737-7.428,2.868-11.508,1.67
		c-0.932-0.273-1.749-1.096-2.844-0.645C176.387,150.713,176.456,150.798,176.456,150.798z"/>
	<path fill-rule="evenodd" clip-rule="evenodd" d="M123.786,103.857c0.85,1.223,0.807,2.042,0.467,2.92
		c-0.271,0.698-0.597,1.396-0.722,2.125c-0.738,4.289-0.38,4.621,3.806,3.096c-1.604,1.424-2.854,2.538-4.811,3.015
		C122.294,111.229,123.092,107.791,123.786,103.857z"/>
	<path fill-rule="evenodd" clip-rule="evenodd" d="M125.808,103.673c0.642,1.396,0.584,2.364,0.149,3.134
		c-0.504,0.892-0.929,1.806-0.131,2.509c0.777,0.686,1.526-0.286,2.278-0.571c0.293-0.111,0.595-0.202,0.946-0.319
		c0,0.28,0.058,0.487-0.009,0.542c-1.193,0.98-2.432,2.929-3.896,2.058c-1.198-0.712-0.384-2.801-0.064-4.273
		C125.271,105.868,125.495,104.991,125.808,103.673z"/>
	<path fill-rule="evenodd" clip-rule="evenodd" d="M138.273,178.123c0.988-1.301,1.976-2.602,3.178-4.185
		c-0.041,2.925-0.041,2.925-4.092,6.692c0.062-1.09,0.26-1.914,0.973-2.569C138.333,178.062,138.273,178.123,138.273,178.123z"/>
	<path fill-rule="evenodd" clip-rule="evenodd" d="M124.63,119.042c0.336-3.35,3.314-4.745,5.268-6.898
		C128.434,114.659,125.911,116.391,124.63,119.042z"/>
	<path fill-rule="evenodd" clip-rule="evenodd" d="M146.368,182.438c-1.342,0.292-1.738-0.476-1.861-1.348
		c-0.105-0.749,0.707-1.228,1.108-0.902c0.728,0.59,2.25-0.329,2.293,1.092C147.934,182.137,147.349,182.941,146.368,182.438z"/>
	<path fill-rule="evenodd" clip-rule="evenodd" d="M232.339,109.732c-2.031,2.041-2.844,2.161-5.328,0.922
		C228.855,110.625,230.311,110.357,232.339,109.732z"/>
	<path fill-rule="evenodd" clip-rule="evenodd" d="M50.945,195.398c0.215-0.628,0.512-1.24,0.627-1.885
		c0.207-1.156,0.932-1.486,1.974-1.472c0.569,0.008,1.104-0.127,1.533,0.51c1.33,1.972,5.284,1.469,4.854,5.143
		c-0.046,0.391,0.088,1.17-0.282,1.032c-2.161-0.81-2.588,1.383-3.856,2.075c-0.334-0.471-0.733-0.805-1.365-0.645
		c-0.391,0.089-0.781,0.178-1.172,0.267l0.098,0.069C53.224,198.477,52.979,196.515,50.945,195.398z"/>
	<path fill-rule="evenodd" clip-rule="evenodd" d="M49.276,195.409c-1.832-2.84-3.849-5.583-4.621-8.969
		c1.203,0.07,1.401-1.254,2.27-1.722c0.487,1.022-1.454,1.733-0.143,2.939c0.522,0.48,0.181,1.289,1.623,1.361
		c1.866,0.092,1.789,2.169,1.577,3.728C49.86,193.649,49.519,194.522,49.276,195.409z"/>
	<path fill-rule="evenodd" clip-rule="evenodd" d="M35.647,225.372c-0.62-0.224-1.239-0.447-2.117-0.765
		c4.015-1.457,7.962-2.287,11.968-2.946c-3.306,1.24-6.274,3.355-9.919,3.676C35.581,225.337,35.647,225.372,35.647,225.372z"/>
	<path fill-rule="evenodd" clip-rule="evenodd" d="M54.428,200.157c0.632-0.16,1.031,0.174,1.365,0.645
		c0.991,1.996,1.982,3.991,2.974,5.987c-0.142,0.088-0.284,0.176-0.425,0.264c-1.422-2.021-2.856-4.033-4.254-6.071
		C53.861,200.652,54.136,200.361,54.428,200.157z"/>
	<path fill-rule="evenodd" clip-rule="evenodd" d="M36.406,171.482c-1.046-2.501-2.751-4.362-1.162-6.835
		c0.261-0.405,0.55-0.962,1.156-0.697c0.729,0.319,0.295,0.91,0.048,1.24C35.003,167.129,36.996,169.043,36.406,171.482z"/>
	<path fill-rule="evenodd" clip-rule="evenodd" d="M50.945,195.398c2.034,1.116,2.279,3.078,2.409,5.095
		c-0.995-1.697-3.026-2.839-2.781-5.199C50.696,195.334,50.82,195.369,50.945,195.398z"/>
	<path fill-rule="evenodd" clip-rule="evenodd" d="M82.843,156.303c-0.111,1.274-0.16,1.839-0.213,2.441
		c1.677-0.666,3.079-1.79,5.043-1.358c2.081,0.458,1.731,2.004,1.605,3.276c-0.163,1.638-1.536,0.78-2.375,0.739
		c-0.582-0.028-1.172,0.051-1.717-0.019c-1.033-0.131-2.316,1.096-3.096-0.479C81.406,159.521,81.565,158.2,82.843,156.303z"/>
	<path fill-rule="evenodd" clip-rule="evenodd" d="M58.1,151.555c-1.833,0.997-3.738,0.999-5.669,0.956
		c-0.516-0.012-1.262-1.055-1.659,0.433c-0.134,0.501-1.121-0.326-1.365-0.911c-0.315-0.753-0.086-1.957,0.671-1.741
		c1.916,0.544,2.812-0.88,4.132-1.536c1.046-0.519,2.436-1.616,2.614,0.913C56.869,150.299,57.622,150.88,58.1,151.555z"/>
	<path fill-rule="evenodd" clip-rule="evenodd" d="M80.052,144.881c-0.1-0.641-0.639-0.953-1.014-1.397
		c-1.258-1.49-1.483-2.833,0.639-3.778c1.468-0.653,2.421-2.476,4.664-1.131c1.514,0.908,2.018,2.12,2.174,3.438
		c0.137,1.158-1.437,0.901-1.942,0.794c-2.097-0.443-3.375,0.585-4.547,2.022C80.034,144.841,80.052,144.881,80.052,144.881z"/>
	<path fill-rule="evenodd" clip-rule="evenodd" d="M71.538,126.824c1.092-0.461,2.27-0.497,3.33-1.312
		c1.391-1.068,3.099-0.205,3.383,1.296c0.372,1.962-0.595,2.499-2.146,1.834c-1.293-0.554-2.157-0.742-3.214,0.444
		c-0.607,0.682-1.24-0.269-1.266-2.35C71.625,126.738,71.538,126.824,71.538,126.824z"/>
	<path fill-rule="evenodd" clip-rule="evenodd" d="M206.849,71.262c-0.674,0.486-1.293,1.1-2.038,1.421
		c-0.748,0.324-1.499,0.104-0.8-0.896c0.574-0.82,0.344-1.498-0.445-1.292c-1.947,0.506-2.17-1.088-3.216-2.121
		c1.564-0.49,3.354-2.011,4.145-1.077c0.895,1.057,3.329,1.757,2.291,4.039C206.785,71.335,206.849,71.262,206.849,71.262z"/>
	<path fill-rule="evenodd" clip-rule="evenodd" d="M156.295,48.575c-0.811,0.717-0.963,2.213-2.257,2.864
		c-0.896,0.45-1.467,0.187-1.559-0.829c-0.056-0.631-0.271-1.892,0.292-1.751c1.604,0.402,1.897-1.689,3.244-1.388
		C156.423,47.562,156.363,47.975,156.295,48.575z"/>
</g>
</svg>
