<?xml version="1.0" encoding="utf-8"?>
<!-- Generator: Adobe Illustrator 16.0.0, SVG Export Plug-In . SVG Version: 6.00 Build 0)  -->
<!DOCTYPE svg PUBLIC "-//W3C//DTD SVG 1.1//EN" "http://www.w3.org/Graphics/SVG/1.1/DTD/svg11.dtd">
<svg version="1.1" id="Layer_1" xmlns="http://www.w3.org/2000/svg" xmlns:xlink="http://www.w3.org/1999/xlink" x="0px" y="0px"
	 width="612px" height="792px" viewBox="0 0 612 792" enable-background="new 0 0 612 792" xml:space="preserve">
<g>
	<path d="M84.977,260.99h23.804c12.894,0,22.018,0.595,27.573,1.587c27.969,4.761,55.74,30.548,55.74,67.047
		c0,31.342-20.432,55.146-45.426,63.675c-8.728,2.976-19.638,4.563-37.887,4.563H84.977V260.99z M158.372,329.426
		c0-18.845-13.885-35.706-39.673-35.706v71.411C144.486,365.131,158.372,348.271,158.372,329.426z"/>
	<path d="M397.598,395.481c-28.962-7.538-50.385-34.515-50.385-66.055c0-31.937,21.621-58.716,50.583-66.056
		c6.149-1.587,12.894-2.38,23.804-2.38h1.983v32.73H421.6c-11.307,0-19.242,2.182-25.59,6.546
		c-8.728,5.951-15.075,17.258-15.075,29.16s6.348,23.208,15.075,29.159c6.348,4.364,14.283,6.546,25.59,6.546h1.983v32.73H421.6
		C411.086,397.861,403.945,397.068,397.598,395.481z"/>
	<path d="M463.254,293.72v19.836h35.706v31.738h-35.706v19.836h52.566v32.73h-86.288V260.99h86.288v32.73H463.254z"/>
</g>
<g>
	<g>
		<path fill-rule="evenodd" clip-rule="evenodd" fill="none" d="M351.973,337.716c0,26.788-0.01,53.577,0.03,80.365
			c0.002,1.12-0.22,1.34-1.34,1.34c-53.686-0.035-107.372-0.035-161.057,0c-1.121,0-1.341-0.22-1.34-1.34
			c0.036-53.686,0.036-107.372,0-161.057c-0.001-1.12,0.22-1.341,1.34-1.34c53.686,0.036,107.371,0.036,161.057,0
			c1.12-0.001,1.342,0.219,1.34,1.34C351.963,283.921,351.973,310.819,351.973,337.716z M229.144,322.093
			c-2.955,1.977-5.296,4.596-7.577,7.282c2.471-2.488,5.175-4.72,7.717-7.128c1.13-0.519,2.223-1.104,3.526-1.15
			c1.225-0.044,2.446-0.218,3.668-0.335C232.059,320.163,231.053,320.361,229.144,322.093z M214.657,374.977
			c0.805,1.275,1.61,2.55,2.415,3.824c0.343,0.124,0.281,0.448,0.349,0.708c0.219,0.412,0.438,0.823,0.657,1.234
			c0.478,2.185,2.165,3.543,3.711,5.142c-1.491,0.218-2.692,0.749-3.942,1.092c-2.856,0.781-5.868,0.972-8.589,2.275
			c-0.293,0.141-0.851,0.238-0.86,0.382c-0.125,2.05-2,1.683-3.119,2.145c-2.356,0.973-4.835,1.647-7.268,2.434
			c-0.442,0.143-0.803,0.329-0.842,0.859c-0.037,0.499,0.432,0.547,0.664,0.81c0.561,0.635,1.012,0.285,1.571,0.017
			c2.034-0.973,4.091-1.895,6.318-2.354l-0.042-0.023c-0.397,0.723-1.491,0.34-1.856,1.184c0.69,0.354,1.304-0.361,2.018-0.134
			c-0.66,0.61-1.459,0.782-2.224,1.041c-0.208,0.07-0.748,0.25-0.518,0.405c1.277,0.857-0.189,0.693-0.351,0.959
			c-0.142,0.235-0.657,0.205-0.484,0.819c3.404,0.821,6.309-1.362,9.714-1.849c-3.643,1.745-7.384,2.594-10.945,3.951
			c0.859,0.343,1.537-0.38,2.706-0.263c-1.254,0.649-2.223,1.151-3.192,1.653c2.713,0.024,4.973-1.651,7.776-1.788
			c-0.357,0.325-0.569,0.519-0.788,0.716c5.299-1.267,10.561-2.524,15.822-3.782c-0.073,0.244-0.195,0.315-0.327,0.351
			c-4.04,1.109-8.084,2.205-12.116,3.34c-0.344,0.097-0.993,0.061-0.913,0.684c0.069,0.539,0.489,0.798,1.051,0.845
			c0.889,0.074,1.732-0.125,2.58-0.341c1.314-0.335,2.633-0.657,3.95-0.984c-0.844,0.672-1.929,0.786-3.09,1.775
			c2.978-0.671,5.578-0.176,8.364-1.103c-0.44,0.951-1.181,0.68-1.341,1.344c1.645-0.021,3.14-0.498,4.671-0.815
			c-2.544,1.555-5.585,1.824-8.206,3.199c1.177,0.11,2.3,0.016,3.425-0.021c0.134-0.006,0.792-0.32,0.483,0.246
			c-0.342,0.624-0.249,0.476,0.32,0.479c1.256,0.009,2.477-0.118,3.712-0.343c0.924-0.169,1.847-0.583,3.035-0.356
			c-0.421,0.24-0.664,0.378-0.906,0.517c1.401-0.354,2.768-0.241,4.122,0.108c0.472,0.122,0.721,0.068,1.143-0.308
			c0.478-0.426,1.331-0.709,1.969-0.631c2.738,0.337,5.258-1.053,8.018-0.789c2.885,0.276,5.507-1.124,8.136-2.115
			c2.578-0.973,5.32-0.929,7.963-1.516c-1.077,0.367-2.155,0.733-3.232,1.101c10.259-1.882,19.767-6.412,30.536-7.921
			c-2.278-0.607-4.079-0.855-6.354-0.175c1.673-1.201,3.321-1.068,4.565-2.022c-1.599,0.601-3.213-0.046-4.878,0.188
			c0.92-0.882,2.86-1.132,1.806-3.079c1.063,0.603,2.104,0.562,3.293-0.213c-1.227-0.195-2.308-0.95-3.292,0.262
			c-0.534-0.851-1.161-0.103-1.717-0.053c-0.703,0.063-1.346,0.551-2.367,0.459c0.491-0.362,0.769-0.567,1.045-0.771
			c-0.426-0.427-1.186,0.364-1.428-0.414c-0.219-0.705,0.555-0.857,0.887-1.209c0.411-0.435,1.027-0.676,1.946-1.242
			c-2.61,0.596-4.802,1.097-6.995,1.598c-0.022-0.051-0.044-0.101-0.066-0.152c0.498-0.271,0.995-0.541,1.57-0.853
			c-0.311-0.113-0.544-0.199-0.799-0.292c0.46-0.669,1.441-0.357,1.984-1.121c-0.622,0.066-1.145,0.117-1.667,0.177
			c-0.722,0.083-1.604,0.542-2.083-0.222c-0.408-0.652,0.448-1.111,0.73-1.663c0.097-0.189,0.167-0.391,0.249-0.587
			c1.196-0.828,1.962-2.022,2.693-3.23c3-4.96,5.35-10.231,7.383-15.646c0.753-2.006,0.479-4.714-0.567-6.774
			c0.034,7.664,0.019,7.776-1.431,9.7c0.399-1.4,1.053-2.511,0.948-3.544c-0.346-3.412,0.139-7.024-1.878-10.104
			c-0.679-1.036-0.135-2.435-0.947-3.237c-0.982-0.969-0.778-1.852-0.373-2.876c0.979-0.95,0.034-1.864-0.052-2.794
			c-0.927-2.312-1.854-4.623-2.781-6.934c1.304,0.757,2.604,1.52,3.914,2.267c0.138,0.079,0.409,0.245,0.411-0.124
			c0.001-0.129-0.174-0.258-0.268-0.388c2.399,1.142,4.797,2.284,7.299,3.476c-0.563,0.259-0.994-0.373-1.475,0.154
			c3.322,1.197,6.277,3.118,9.731,3.783l-0.044-0.054c1.405,1.132,3.183,1.308,4.818,1.825c0.898,0.284,1.927,0.211,2.651-0.442
			c2.405-2.173,5.481-3.544,7.45-6.234c0.441-0.356,0.884-0.711,1.325-1.067c0.451,0.127,0.708-0.215,0.994-0.44
			c2.954-2.326,5.993-4.563,8.648-7.234c1.047-1.053,2.596-1.423,3.416-2.724c0.829-1.316,1.962-2.28,3.303-3.074
			c1.176-0.696,2.124-1.664,2.753-2.935c1.806-3.652,1.059-7.454,0.788-11.229c-0.138,0.748-0.139,1.501-0.138,2.256
			c0.002,0.818,0.046,1.639-0.002,2.454c-0.116,1.957-1.453,2.935-3.338,2.448c-0.895-0.231-1.763-0.565-2.66-0.786
			c-0.549-0.135-1.224-0.898-1.688,0.193c-0.013,0.031-0.742-0.508-1.59-0.281c1.533,0.675,2.572,1.618,3.907,2.149
			c1.15,0.456,2.373,1.093,1.438,2.838c-0.032-1.248-2.398-3.246-3.548-3.088c-1.545,0.211-2.897-0.517-3.382-1.938
			c-0.167-0.49-0.483-0.665-0.863-0.861c-1.148-0.594-2.32-1.062-3.584-1.422c-0.994-0.283-1.927-0.583-2.767-0.068
			c-0.804,0.493-1.634,0.544-2.48,0.672c-0.729,0.111-1.389,0.169-1.192-0.987c0.102-0.604-0.313-0.928-1.03-0.904
			c-0.697,0.024-1.408-0.126-2.1-0.264c-0.358-0.072-0.855-0.192-0.995-0.45c-0.211-0.39,0.278-0.657,0.562-0.855
			c1.181-0.822,0.753-1.169-0.352-1.455c-0.946-0.244-1.989-0.406-2.498-1.543c0.817-0.168,1.365,0.375,1.999,0.377
			c0.541,0.002,1.081-0.154,1.705-0.253c-2.243-1.907-4.566-3.332-7.402-3.728c-0.842-0.426-1.684-0.852-2.526-1.278
			c-0.892-0.069-1.724-0.532-2.226-1.107c-1.003-1.147-2.383-1.686-3.502-2.604c-0.982-0.806-2.442-0.638-3.26-1.813
			c-0.237-0.341-1-0.066-1.445,0.366c-3.179,3.098-6.41,6.147-9.25,9.57c-0.511,0.615-0.807,1.397-1.422,1.959
			c-2.974,2.714-5.934,5.444-8.904,8.162c-0.099,0.09-0.234,0.27-0.454-0.01c0.179-0.3,0.375-0.628,0.514-0.863
			c-0.42-0.521-0.71,0.333-1.087-0.146c1.063-1.112,2.128-2.227,3.193-3.341c-0.056-0.054-0.112-0.107-0.167-0.161
			c-0.889,0.608-1.778,1.216-2.684,1.836c-0.218-2.14,0.265-3.976,1.093-5.772c0.358-0.777,0.461-1.674,0.656-2.523
			c0.143-0.619,0.105-1.284-0.478-1.608c-0.621-0.345-1.147,0.125-1.549,0.567c-0.848,0.936-1.388,2.069-1.993,3.169
			c-0.704,1.279-1.273,2.625-1.975,3.933c0.866-8.58,2.072-17.049,4.936-25.204c-0.608,0.722-1.143,1.478-1.402,2.38
			c-1.203,4.189-2.423,8.422-2.826,12.738c-0.611,6.562-2.53,12.939-2.555,19.585c-0.004,0.917,0.096,1.063,0.767,1.253
			c2.516,0.711,5.039,1.407,7.464,2.396c1.991,0.811,2.487,2.454,1.191,4.17c-1.398,1.851-2.529,3.946-4.554,5.265
			c-0.132,0.086-0.245,0.357,0.037,0.513c1.005-0.437,1.436-1.687,2.799-2.046c-0.643,1.872-2.713,2.225-3.322,3.84
			c1.73,0.518,1.73,0.518,2.819,0.048c0.314,0.775-0.419,1.033-0.74,1.473c-0.243,0.335-0.842,0.481-0.711,1.001
			c0.164,0.649,0.906-0.301,1.129,0.225c-0.547,0.594-1.051,1.141-1.547,1.68c0.386,0.529,1.064-0.375,1.279,0.333
			c0.157,0.52-0.446,0.677-0.699,1.003c-0.133,0.171-0.322,0.297-0.456,0.468c-0.385,0.49-1.116,0.809-0.906,1.609
			c0.213,0.815,1.146,1.095,1.647,1.274c2.287,0.819,3.925,2.736,3.847,5.045c-0.021,0.606,0.29,0.673,0.773,0.785
			c1.437,0.332,1.854,1.188,1.171,2.561c-0.939,1.892-1.137,3.927-1.368,5.967l0.038-0.039c-0.388-0.525-0.262-1.152-0.341-1.738
			c-0.174-1.286-0.617-2.332-1.833-3.075c-0.552-0.338-0.808-0.318-1.239-0.016c-2.189,1.539-3.832,6.087-3.105,8.682
			c0.3,1.071,0.73,2.154,1.97,2.354c1.294,0.208,1.711-0.901,2.201-1.807c0.061-0.053,0.118-0.109,0.174-0.168
			c0.804-1.106,1.927-1.882,2.932-2.774c0.4-0.355,0.799-0.857,1.062,0.4c0.354,1.69,0.813,3.844,3.741,3.073
			c-0.604,1.114-1.052,1.939-1.566,2.888c1.006-0.197,1.32-1.109,2.222-1.405c-0.767,1.819-2.384,2.899-3.223,4.511
			c2.183-0.825,2.977-3.368,5.4-4.031c-1.854,4.193-3.765,8.205-6.55,11.733c-1.264,1.121-2.245,2.479-3.181,3.867
			c-2.541,3.765-4.849,7.739-9.132,9.878c0.565-1.47,2.15-2.086,3.253-3.698c-1.391,0.771-2.058,1.88-3.206,2.058
			c-1.232,0.191-1.767-1.021-2.704-1.95c0.542,1.747,1.58,2.687,2.661,3.593c-0.315,0.303-0.555,0.669-1.025,0.097
			c-1.142-1.391-2.083-2.896-3.426-4.194c-1.301-1.257-2.181-3.341-2.819-5.026c-2.142-5.654-4.519-11.201-6.896-16.75
			c-0.473-1.105-0.77-2.181-0.781-3.373c0.55,1.004,0.977,2.052,1.398,3.103c0.153,0.381,0.152,1.048,0.704,0.907
			c0.659-0.168,0.27-0.812,0.233-1.246c-0.026-0.316-0.193-0.62-0.289-0.932c-0.867-2.82-1.359-5.612,0.636-8.214
			c0.014-0.019-0.087-0.125-0.185-0.26c-0.543,1.103-1.094,2.16-2.381,2.693c0.216-1.074,1.563-1.453,1.471-2.74
			c-0.877,0.957-1.77,1.727-2.835,2.278c-0.234,0.122-0.709,0.505-0.173,0.608c0.978,0.189,0.406,0.712,0.34,1.068
			c-0.104,0.568-0.58,0.808-1.105,0.741c-1.117-0.142-2.258-0.242-3.27-0.881c0.554-0.522,1.45,0.417,1.915-0.586
			c-1.097-0.617-2.413,0.068-3.443-0.636c-1.532-1.047-3.493-0.846-5.087-0.999c-1.778-0.171-3.556-0.608-5.328-0.627
			c-0.826-0.009-0.559-0.74-1.253-0.876c-1.97-0.386-1.833,0.811-1.803,2.51c-0.527-1.063-0.791-1.645-1.102-2.202
			c-0.17-0.305-0.321-0.548-0.846-0.414c-2.071,0.53-2.078,0.492-2.086-1.728c-0.001-0.202-0.073-0.404-0.117-0.629
			c-0.574,0.137-0.521,0.926-1.13,0.898l0.094,0.048c-0.433-1.416-1.455-1.961-2.864-2.201c-1.76-0.299-3.49-0.788-5.217-1.254
			c-0.442-0.12-1.149-0.155-1.207-0.683c-0.084-0.766,0.812-0.495,1.18-0.825c0.059-0.053,0.035-0.198,0.057-0.347
			c-0.692-0.146-1.381-0.291-2.099-0.442c0.517-0.763,1.207,0.088,1.757-0.258c-0.454-0.628-1.057-0.382-1.566-0.407
			c-3.692-0.178-4.692-1.81-3.11-5.166c0.301-0.637,0.695-1.232,1.062-1.837c1.774-2.93,4.252-5.229,6.736-7.525
			c1.125-1.041,1.106-1.062,1.346-2.157c-3.861,3.299-7.163,7.051-9.814,11.343c-1.883,3.049-3.005,6.299-1.847,9.938
			c0.749,2.352,1.891,4.528,3.024,7.042c0.353-1.276-0.672-2.005-0.512-3.047c0.582,0.625,0.692,1.407,1.324,1.813
			c0.082,0.317,0.164,0.634,0.246,0.952c0.83,1.593,2.387,2.792,2.569,4.737c-0.938-1.096-1.875-2.192-2.812-3.289
			c-0.191,0.301-0.214,0.632,0.019,0.902c1.647,1.912,2.563,4.275,3.946,6.347C213.092,372.83,213.407,374.238,214.657,374.977z
			 M257.452,368.339c0.669-0.355,1.217-0.83,1.509-1.552c2.057-2.397,1.758-5.133,0.98-7.847c-0.317-1.109-1.329-1.381-2.388-0.791
			c-0.971,0.541-1.682,1.378-2.3,2.278c-1.747,2.541-1.994,6.042-0.596,8.013c0.908,1.279,1.808,1.269,2.776-0.026L257.452,368.339z
			 M316.336,372.89c-0.351,0.038-0.787-0.125-0.95,0.366c-0.099,0.296-0.096,0.837-0.426,0.098c-0.534-1.195-1.759-1.43-2.784-2.144
			c-0.332,1.414,0.022,2.201,1.209,2.913c1.453,0.873,2.695,1.035,4.058-0.017c0.377-0.29,0.823-0.49,1.238-0.731
			c0.103-0.377,0.579-0.752,0.179-1.134c-0.297-0.283-0.703,0.002-1.042,0.109C317.315,372.507,316.829,372.708,316.336,372.89z
			 M289.61,297.895c-0.034,0.883,0.601,1.682,1.074,2.034c0.838,0.622,1.898,0.975,2.695,1.745c0.281,0.271,0.729,0.712,1.089,0.153
			c0.292-0.454-0.271-0.62-0.536-0.813c-1.445-1.054-2.912-2.079-4.373-3.114c0.46-0.853,0.534-0.959-0.349-1.561
			c-1.075-0.732-1.253-1.683-1.121-2.823c0.082-0.704,0.179-1.405,0.239-2.11s0.083-1.414,0.123-2.121
			c0.036-0.644,0.359-1.314-0.085-2.052c-0.84,3.752-0.774,7.532-2.394,10.953c-0.069,0.145-0.164,0.422-0.118,0.454
			c0.938,0.66,0.17,1.041-0.289,1.237c-1.277,0.546-1.735,1.816-2.976,2.834c2.526-1.146,3.62-3.944,6.647-3.76
			C287.826,297.871,288.907,297.979,289.61,297.895z M278.276,297.188c0.154,0.492-0.196,1.403,0.914,1.098
			c0.614,0.683,1.099,0.17,1.521-0.22c1.865-1.724,2.167-4.101,2.441-6.411c0.129-1.081-0.764-1.437-1.613-0.679
			C279.693,292.625,278.589,294.71,278.276,297.188z M231.181,306.129c1.464-0.023,2.952-0.219,4.388-0.027
			c1.968,0.264,2.289-1.493,3.335-2.354c-0.175-0.193-0.351-0.386-0.526-0.579c-1.524-1.152-1.813-3.053-2.761-4.555
			c-0.285-0.251-0.063-0.952-0.764-0.84c-2.153,0.344-4.325,0.028-6.483,0.165c-0.95,0.059-2.124,2.03-1.65,2.773
			c1.092,1.712,2.248,3.384,3.351,5.09C230.372,306.27,230.626,306.637,231.181,306.129z M314.945,294.351
			c0.095-0.184,0.26-0.362,0.275-0.553c0.203-2.424-2.456-5.862-4.852-6.296c-1.334-0.242-2.224,0.453-2.32,1.813
			c-0.193,2.707,2.113,5.7,4.813,6.195c1.008,0.185,1.855-0.031,2.125-1.206L314.945,294.351z M228.89,330.028
			c-0.451,1.55,0.267,2.708,1.981,2.845c2.198,0.175,4.244-0.437,5.879-1.962c1.013-0.946,1.512-2.318,0.911-3.561
			c-0.576-1.193-1.898-1.272-3.176-1.021c-1.519,0.299-2.947,0.792-4.207,1.705c-0.709,0.514-1.417,1.047-1.445,2.05L228.89,330.028
			z M234.316,341.712l-0.011-0.026c2.601,1.407,7.831-0.32,8.658-4.288c0.3-1.441-0.304-2.447-1.577-2.774
			c-2.69-0.691-6.555,0.803-8.084,3.125C232.126,339.534,232.401,340.607,234.316,341.712z M246.285,343.912
			c-0.957,0.206-0.84,0.896-0.576,1.689c0.266,0.795-0.058,1.136-0.771,0.656c-1.081-0.73-2.232-0.605-3.378-0.446
			c-2.64,0.366-4.983,1.306-6.205,3.897c-1.031,2.187-0.09,4.015,2.255,4.595c2.525,0.625,5.679-0.644,7.294-2.962
			c0.431-0.618,1.216-1.373,1.105-1.915C245.625,347.53,247.132,345.878,246.285,343.912z M217.788,348.266
			c0.317,0,0.59,0.019,0.859-0.002c2.965-0.236,5.827-2.446,6.291-4.851c0.288-1.495-0.327-2.556-1.666-2.875
			c-2.583-0.614-7.378,1.455-8.713,3.761c-0.998,1.727-0.409,3.198,1.508,3.8C216.648,348.281,217.233,348.338,217.788,348.266z
			 M250.35,333.528c0.771-0.568,1.763,0.222,2.596-0.699c0.503-0.556,2.033-0.57,2.343,0.03c0.333,0.644,0.982,1.801,0.556,2.355
			c-0.426,0.555-1.586,0.393-2.433,0.131c-0.154-0.048-0.301-0.127-0.442-0.208c-0.934-0.53-1.812-0.396-2.766,0.168
			c0.281,0.171,0.47,0.268,0.639,0.392c2.652,1.953,7.406,1.378,9.447-1.144c1.514-1.87,0.941-3.706-1.363-4.365
			c-1.069-0.306-2.186-0.335-3.246-0.145C253.464,330.441,251.354,331.114,250.35,333.528z M302.538,293.624
			c-0.708-2.309-3.675-4.772-5.77-4.923c-1.561-0.112-2.469,0.748-2.356,2.333c0.138,1.937,1.335,3.276,2.729,4.45
			c1.741,1.464,2.634,1.381,4.279-0.407c-0.938,0.609-1.704,0.347-2.461-0.295c-0.456-0.387-0.931-0.92-0.426-1.292
			c0.591-0.434,1.771-0.892,2.141-0.61C301.237,293.307,301.742,293.477,302.538,293.624z M277.597,291.319
			c0.056-0.695-0.039-1.192-0.528-1.441c-0.515-0.263-0.955,0.07-1.323,0.385c-1.829,1.565-2.537,3.716-3.083,5.953
			c-0.137,0.561-0.218,1.139,0.348,1.441c0.532,0.283,1.097-0.004,1.465-0.399C276.094,295.521,277.269,293.54,277.597,291.319z
			 M324.861,292.188c-1.878-0.251-1.71-2.127-2.783-3.06c0.645,0.482,1.312-0.093,1.931,0.169c0.487,0.207,0.679-0.268,0.902-0.517
			c0.367-0.408-0.079-0.695-0.3-0.954c-0.676-0.79-1.479-1.443-2.413-1.904c-0.521-0.258-1.105-0.63-1.676-0.19
			c-0.568,0.438-0.688,1.136-0.539,1.785c0.416,1.83,1.186,3.479,2.63,4.764C323.341,292.93,323.992,293.006,324.861,292.188z
			 M280.621,301.925c-0.203-0.569-0.212-1.104-1.249-0.521c-0.874,0.492-0.839,1.194-1.198,1.798
			c-0.189,0.32-0.246,0.771,0.051,1.079c0.41,0.427,0.639-0.149,0.96-0.225c0.327-0.076,0.971-0.659,0.917-0.224
			c-0.165,1.333,0.396,0.597,0.609,0.251c0.951-1.548,2.36-2.702,3.452-4.126c1.831-2.388,2.383-5.152,2.657-8.187
			c-1.538,1.967-1.935,4.257-3.106,6.231C282.855,299.448,282.793,301.352,280.621,301.925z M285.017,275.222
			c-0.013-0.694-0.116-1.198-0.626-1.417c-0.465-0.2-0.852,0.142-1.157,0.427c-1.739,1.614-2.682,3.677-3.194,5.948
			c-0.152,0.678-0.314,1.536,0.48,1.894c0.654,0.295,1.301-0.215,1.726-0.684C283.87,279.594,284.546,277.359,285.017,275.222z
			 M269.93,294.775c1.073-1.776,1.791-3.279,2.268-4.897c0.191-0.65,0.358-1.343-0.291-1.771c-0.736-0.484-1.198,0.172-1.615,0.639
			c-1.128,1.267-1.965,2.72-2.45,4.344c-0.12,0.404-0.592,0.938-0.048,1.327c0.463,0.331,0.819-0.189,1.112-0.425
			C269.674,293.373,269.85,293.79,269.93,294.775z M335.966,348.254c-1.704,1.031-2.899,0.245-4.055-0.726
			c-0.453-0.382-0.947-0.723-1.376-1.132c-0.398-0.381-0.576-0.587-0.856,0.154c-0.703,1.864-0.531,2.657,1.032,3.807
			c0.394,0.29,0.781,0.593,1.137,0.929c0.784,0.741,1.327,1.007,1.436-0.469c0.062-0.844,0.491-1.523,1.469-1.648
			C335.211,349.108,335.652,348.974,335.966,348.254z M297.7,266.408c-6.445-3.508-11.355-2.448-14.179,3.247
			c1.444-1.502,2.45-3.337,4.131-3.664c1.584-0.308,3.155-1.022,4.868-0.794C294.292,265.434,295.975,265.987,297.7,266.408z
			 M331.762,294.735c0.144,1.055-0.141,1.967-1.1,2.425c-1.411,0.674-0.962,1.567-0.199,2.227c1.077,0.933,1.335,2.024,1.246,3.337
			c-0.054,0.789-0.011,1.583-0.011,2.375c0.01-2.025,0.7-4.106-0.268-6.08c-0.198-0.402-0.119-0.906,0.169-1.241
			C332.442,296.808,332.135,295.793,331.762,294.735z M326.304,284.154c1.309,1.204,2.8,2.267,3.876,3.651
			c1.152,1.481,1.084,3.468,1.327,5.425C332.332,289.352,331.115,287.152,326.304,284.154z M250.724,377.249
			c-0.077-1.763,0.789-4.576,1.676-5.554c0.417-0.459-0.164-0.673-0.144-1.019c-0.375,0.469-1.695-0.694-1.458,0.86
			c0.142,0.929-0.052,1.835-0.394,2.701C250.021,375.208,250.058,376.134,250.724,377.249z M266.542,328.969
			c1.172,1.029,1.616,2.318,2.253,3.529c0.644-1.024,1.092-2.042,0.154-3.362c-0.124,0.527-0.202,0.86-0.314,1.337
			C268.018,329.808,267.726,328.913,266.542,328.969z M332.845,345.235c0.608,0.066,0.91,0.584,1.347,0.884
			c0.488,0.336,0.938,0.779,1.478,0.984c1.35,0.514,1.438,1.383,0.939,2.554c-0.11,0.26-0.418,0.515-0.228,0.876
			c1.488-2.308,1.5-2.468-0.692-3.807C334.777,346.17,334.189,344.975,332.845,345.235z M290.303,271.644
			c0.832-1.418,0.506-2.767,1.162-3.828c0.66-1.066,0.647-1.073-0.76-1.87C291.592,267.856,290.272,269.498,290.303,271.644z
			 M288.281,279.838c-0.703,0.624-0.703,0.624,0.021,3.046C288.606,281.738,288.606,281.738,288.281,279.838z M213.415,316.416
			c2.848,1.414,3.41,1.271,3.801-1.097C216.507,318.042,214.796,316.437,213.415,316.416z"/>
		<path fill-rule="evenodd" clip-rule="evenodd" d="M276.13,336.353c0.927,2.311,1.854,4.622,2.781,6.934
			c-0.401-0.082-0.76-0.632-1.215-0.006c-0.35,0.481-0.315,1.025,0.035,1.274c0.578,0.413,0.513,1.282,1.232,1.526
			c-0.405,1.024-0.609,1.908,0.373,2.876c0.813,0.802,0.268,2.201,0.947,3.237c2.018,3.079,1.533,6.692,1.878,10.104
			c0.104,1.034-0.549,2.144-0.948,3.544c1.45-1.923,1.465-2.036,1.431-9.7c1.047,2.061,1.32,4.768,0.567,6.774
			c-2.033,5.415-4.382,10.686-7.383,15.646c-0.731,1.208-1.497,2.402-2.693,3.23l-0.097-0.089c2.785-3.528,4.696-7.54,6.55-11.733
			c-2.424,0.664-3.218,3.206-5.4,4.031c0.838-1.612,2.456-2.691,3.223-4.511c-0.902,0.296-1.216,1.208-2.222,1.405
			c0.515-0.949,0.962-1.774,1.566-2.888c-2.928,0.771-3.387-1.383-3.741-3.073c-0.263-1.257-0.662-0.755-1.062-0.4
			c-1.005,0.892-2.128,1.668-2.932,2.774c0.039-0.214,0.034-0.448,0.124-0.637c0.605-1.263-0.289-1.209-1.11-1.402
			c-1.001-0.235-1.42-0.054-1.345,1.061c0.055,0.82-0.72,1.952,0.109,2.396c0.818,0.438,1.43-0.681,2.048-1.25
			c-0.49,0.906-0.907,2.015-2.201,1.807c-1.24-0.2-1.669-1.283-1.97-2.354c-0.727-2.595,0.916-7.143,3.105-8.682
			c0.431-0.303,0.687-0.322,1.239,0.016c1.216,0.744,1.659,1.79,1.833,3.075c0.079,0.586-0.047,1.212,0.34,1.738
			c-0.459,0.422-0.586,0.953-0.637,1.83c1.096-1.498,2.942-2.151,2.699-4.556c-0.829,1.092-1.464,1.928-2.1,2.765
			c0.231-2.04,0.429-4.076,1.368-5.967c0.682-1.374,0.266-2.229-1.171-2.561c-0.483-0.112-0.794-0.179-0.773-0.785
			c0.078-2.309-1.56-4.226-3.847-5.045c-0.5-0.179-1.434-0.459-1.647-1.274c-0.21-0.8,0.521-1.119,0.906-1.609
			c0.134-0.17,0.323-0.297,0.456-0.468c0.253-0.326,0.856-0.483,0.699-1.003c-0.215-0.708-0.893,0.196-1.279-0.333
			c0.496-0.539,1-1.086,1.547-1.68c-0.223-0.526-0.965,0.424-1.129-0.225c-0.131-0.521,0.468-0.667,0.711-1.001
			c0.32-0.44,1.054-0.698,0.74-1.473c-1.089,0.469-1.089,0.469-2.819-0.048c0.609-1.615,2.679-1.968,3.322-3.84
			c-1.363,0.359-1.794,1.61-2.801,2.044c-0.28-0.154-0.167-0.424-0.035-0.511c2.024-1.319,3.156-3.414,4.554-5.265
			c1.296-1.716,0.8-3.359-1.191-4.17c-2.425-0.989-4.948-1.685-7.464-2.396c-0.671-0.189-0.771-0.335-0.767-1.253
			c0.025-6.646,1.944-13.024,2.555-19.585c0.402-4.316,1.623-8.549,2.826-12.738c0.259-0.902,0.794-1.658,1.402-2.38
			c-2.864,8.155-4.07,16.624-4.936,25.204c0.702-1.308,1.271-2.653,1.975-3.933c0.605-1.101,1.145-2.233,1.993-3.169
			c0.401-0.442,0.928-0.912,1.549-0.567c0.583,0.324,0.621,0.989,0.478,1.608c-0.195,0.849-0.298,1.746-0.656,2.523
			c-0.828,1.796-1.311,3.632-1.093,5.772c0.906-0.62,1.795-1.228,2.684-1.836c0.056,0.054,0.111,0.107,0.167,0.161
			c-1.065,1.115-2.13,2.229-3.193,3.341c0.376,0.479,0.667-0.375,1.087,0.146c-0.14,0.235-0.335,0.563-0.514,0.863
			c0.22,0.279,0.355,0.1,0.454,0.01c2.97-2.718,5.93-5.448,8.904-8.162c0.615-0.562,0.911-1.344,1.422-1.959
			c2.84-3.422,6.072-6.472,9.25-9.57c0.444-0.433,1.208-0.708,1.445-0.366c0.818,1.175,2.278,1.007,3.26,1.813
			c1.119,0.917,2.499,1.456,3.502,2.604c0.502,0.575,1.334,1.038,2.226,1.107c0.521,0.805-0.01,1.31-0.859,1.872
			c1.415,0.106,2.541,0.544,3.385-0.594c2.836,0.396,5.159,1.821,7.402,3.728c-0.625,0.099-1.165,0.255-1.705,0.253
			c-0.634-0.002-1.182-0.545-1.999-0.377c0.509,1.137,1.552,1.299,2.498,1.543c1.104,0.286,1.532,0.633,0.352,1.455
			c-0.284,0.198-0.773,0.465-0.562,0.855c0.14,0.258,0.636,0.378,0.995,0.45c0.691,0.138,1.402,0.288,2.1,0.264
			c0.717-0.024,1.132,0.3,1.03,0.904c-0.196,1.157,0.464,1.098,1.192,0.987c0.847-0.128,1.677-0.179,2.48-0.672
			c0.84-0.515,1.772-0.215,2.767,0.068c1.264,0.36,2.436,0.828,3.584,1.422c0.38,0.197,0.696,0.372,0.863,0.861
			c0.484,1.421,1.837,2.15,3.382,1.938c1.149-0.158,3.516,1.84,3.548,3.088c0.936-1.745-0.287-2.382-1.438-2.838
			c-1.335-0.531-2.374-1.475-3.907-2.149c0.848-0.227,1.577,0.312,1.59,0.281c0.465-1.091,1.14-0.328,1.688-0.193
			c0.897,0.22,1.766,0.555,2.66,0.786c1.885,0.487,3.222-0.492,3.338-2.448c0.048-0.815,0.004-1.635,0.002-2.454
			c-0.001-0.754,0-1.508,0.138-2.256c0.271,3.775,1.018,7.576-0.788,11.229c-0.629,1.271-1.577,2.239-2.753,2.935
			c-1.341,0.794-2.474,1.758-3.303,3.074c-0.82,1.301-2.369,1.671-3.416,2.724c-2.655,2.671-5.694,4.908-8.648,7.234
			c-0.286,0.226-0.543,0.567-0.994,0.44c1.957-1.718,3.915-3.434,5.871-5.154c2.584-2.273,5.358-4.334,7.913-6.896
			c-1.239,0.177-17.659,13.995-19.06,16.011c1.483-1.087,2.717-1.99,3.95-2.893c-1.969,2.689-5.044,4.061-7.45,6.234
			c-0.724,0.653-1.752,0.726-2.651,0.442c-1.635-0.518-3.413-0.693-4.819-1.828c0.705-0.291,1.233,0.236,1.832,0.416
			c2.524,0.76,5.003,1.272,7.107-1.08c-3.094,2.173-6.162,0.569-9.274-0.076c0.161,0.337,0.271,0.567,0.381,0.797
			c-3.454-0.665-6.409-2.585-9.731-3.783c0.481-0.527,0.912,0.105,1.475-0.154c-2.501-1.191-4.9-2.333-7.292-3.467
			c-1.018-0.623-2.041-1.254-3.064-1.885C276.765,336.009,276.43,336.036,276.13,336.353z M273.061,332.702
			c0.458,1.026,0.903,2.059,1.381,3.076c0.499,1.065,1.024,2.118,1.548,3.17c0.455,0.913,0.896,1.439,1.219,1.487
			C276.368,337.545,274.348,333.546,273.061,332.702z M261.344,322.4c1.277-0.146,2.003-0.992,2.798-1.739
			c-0.268-0.052-0.443,0.056-0.632,0.123c-0.427,0.15-0.721,0.774-1.278,0.435c-0.581-0.352-0.397-0.941-0.354-1.473
			c0.075-0.914,0.117-1.814,0.593-2.663c0.267-0.475,0.319-1.101-0.371-1.625C261.739,317.827,261.178,320.028,261.344,322.4z
			 M265.681,318.431c-0.258-0.213-0.452-0.122-0.66-0.046c-0.525,0.191-1.027,0.923-1.594,0.38c-0.49-0.47-0.126-1.047,0.149-1.624
			c0.231-0.483,0.395-1.182-0.167-1.827c-0.159,0.684-0.298,1.207-0.401,1.737c-0.194,0.996-0.804,2.424,0.065,2.878
			C264.037,320.434,264.89,319.151,265.681,318.431z M266.148,320.673c-3.044,2.405-3.651,3.271-3.269,4.472
			C263.576,323.369,265.108,322.213,266.148,320.673z M276.348,365.896c0.713,0.211,1.095-0.278,1.021-0.827
			c-0.118-0.87-1.08-0.215-1.575-0.635c-0.206-0.175-0.741,0.185-0.622,0.677C275.308,365.686,275.612,366.12,276.348,365.896z
			 M331.157,319.208c-1.047,0.194-2,0.509-3.166,0.437C329.491,320.426,330.28,320.307,331.157,319.208z"/>
		<path fill-rule="evenodd" clip-rule="evenodd" d="M211.203,367.767c-0.182-1.945-1.739-3.144-2.569-4.735
			c0.384,0.225,1.119,0.208,0.933-0.144c-0.695-1.316,0.504-1.973,0.949-3.069c-1.368,0.349-1.735,1.315-2.128,2.259
			c-0.631-0.407-0.742-1.189-1.324-1.813c-0.16,1.042,0.865,1.771,0.512,3.047c-1.133-2.514-2.275-4.69-3.024-7.042
			c-1.158-3.639-0.037-6.889,1.847-9.938c2.652-4.292,5.954-8.044,9.814-11.343c-0.24,1.096-0.22,1.117-1.346,2.157
			c-2.484,2.296-4.962,4.595-6.736,7.525c-0.367,0.605-0.761,1.2-1.062,1.837c-1.582,3.356-0.582,4.988,3.11,5.166
			c0.509,0.024,1.113-0.222,1.566,0.407c-0.55,0.346-1.24-0.505-1.757,0.258c0.718,0.151,1.407,0.296,2.099,0.442
			c-0.021,0.149,0.002,0.294-0.057,0.347c-0.368,0.33-1.264,0.059-1.18,0.825c0.058,0.528,0.765,0.563,1.207,0.683
			c1.727,0.466,3.457,0.956,5.217,1.254c1.409,0.239,2.431,0.785,2.864,2.201c-0.418-0.258-0.789-0.552-1.004-1.019
			c-0.104-0.228-0.3-0.558-0.59-0.311c-0.498,0.422-0.558,0.937-0.323,1.599c0.25,0.706,0.529,1.19,1.349,1.004
			c0.813-0.184,0.893-0.674,0.475-1.322c0.609,0.028,0.556-0.761,1.13-0.898c0.043,0.225,0.116,0.427,0.117,0.629
			c0.008,2.22,0.015,2.258,2.086,1.728c0.525-0.134,0.676,0.109,0.846,0.414c0.311,0.557,0.575,1.139,1.102,2.202
			c-0.03-1.699-0.167-2.896,1.803-2.51c0.694,0.136,0.427,0.867,1.253,0.876c1.772,0.019,3.55,0.456,5.328,0.627
			c1.594,0.153,3.555-0.048,5.087,0.999c1.03,0.704,2.346,0.02,3.443,0.636c-0.465,1.003-1.361,0.064-1.915,0.586
			c1.012,0.639,2.153,0.739,3.27,0.881c0.526,0.067,1.001-0.173,1.105-0.741c0.065-0.356,0.638-0.879-0.34-1.068
			c-0.537-0.103-0.062-0.487,0.173-0.608c1.065-0.552,1.958-1.322,2.835-2.278c0.092,1.287-1.255,1.666-1.471,2.74
			c1.287-0.533,1.837-1.59,2.381-2.693c0.098,0.135,0.199,0.241,0.185,0.26c-1.996,2.602-1.503,5.394-0.636,8.214
			c0.096,0.312,0.262,0.616,0.289,0.932c0.037,0.435,0.426,1.078-0.233,1.246c-0.552,0.141-0.551-0.526-0.704-0.907
			c-0.421-1.05-0.848-2.098-1.398-3.103c0.012,1.192,0.309,2.268,0.781,3.373c2.376,5.55,4.753,11.097,6.896,16.75
			c0.639,1.685,1.518,3.769,2.819,5.026c1.343,1.298,2.285,2.803,3.426,4.194c0.47,0.572,0.71,0.206,1.025-0.097l-0.012,0.003
			c4.291-2.145,6.599-6.119,9.14-9.884c0.936-1.388,1.917-2.746,3.181-3.867l0.097,0.089c-0.082,0.196-0.152,0.398-0.249,0.587
			c-0.282,0.552-1.138,1.011-0.73,1.663c0.478,0.764,1.36,0.305,2.083,0.222c0.521-0.06,1.044-0.111,1.667-0.177
			c-0.542,0.764-1.523,0.452-1.984,1.121c0.254,0.094,0.488,0.179,0.799,0.292c-0.575,0.313-1.073,0.583-1.57,0.853
			c0.022,0.051,0.044,0.101,0.066,0.152c2.193-0.501,4.385-1.002,6.995-1.598c-0.919,0.566-1.536,0.807-1.946,1.242
			c-0.332,0.352-1.106,0.505-0.887,1.209c0.242,0.778,1.001-0.013,1.428,0.414c-0.276,0.204-0.554,0.409-1.045,0.771
			c1.021,0.092,1.665-0.396,2.367-0.459c0.557-0.05,1.184-0.798,1.718,0.052c0.001,0-0.002-0.048-0.002-0.048
			c1.054,1.947-0.886,2.197-1.806,3.079c1.665-0.234,3.279,0.413,4.878-0.188c-1.244,0.954-2.892,0.821-4.565,2.022
			c2.275-0.68,4.076-0.432,6.354,0.175c-10.769,1.509-20.277,6.039-30.536,7.921c1.077-0.367,2.155-0.733,3.232-1.101
			c-2.643,0.587-5.385,0.543-7.963,1.516c-2.629,0.991-5.251,2.392-8.136,2.115c-2.76-0.264-5.28,1.126-8.018,0.789
			c-0.638-0.078-1.491,0.205-1.969,0.631c-0.421,0.376-0.67,0.43-1.143,0.308c-1.354-0.35-2.721-0.462-4.122-0.108
			c0.243-0.139,0.485-0.276,0.906-0.517c-1.188-0.227-2.111,0.188-3.035,0.356c-1.236,0.225-2.456,0.352-3.712,0.343
			c-0.569-0.004-0.662,0.145-0.32-0.479c0.31-0.566-0.349-0.252-0.483-0.246c-1.125,0.037-2.248,0.132-3.425,0.021
			c2.621-1.375,5.661-1.645,8.206-3.199c-1.532,0.317-3.026,0.794-4.671,0.815c0.161-0.664,0.901-0.393,1.341-1.344
			c-2.786,0.927-5.386,0.432-8.364,1.103c1.161-0.989,2.246-1.104,3.09-1.775c-1.317,0.327-2.635,0.649-3.95,0.984
			c-0.848,0.216-1.691,0.415-2.58,0.341c-0.562-0.047-0.982-0.306-1.051-0.845c-0.08-0.623,0.568-0.587,0.913-0.684
			c4.032-1.136,8.076-2.231,12.116-3.34c0.131-0.036,0.253-0.107,0.327-0.351c-5.261,1.258-10.522,2.516-15.822,3.782
			c0.218-0.197,0.431-0.391,0.788-0.716c-2.804,0.137-5.063,1.813-7.776,1.788c0.969-0.502,1.938-1.004,3.192-1.653
			c-1.169-0.117-1.847,0.605-2.706,0.263c3.562-1.356,7.302-2.206,10.945-3.951c-3.405,0.487-6.31,2.67-9.714,1.849
			c-0.173-0.614,0.343-0.584,0.484-0.819c0.162-0.267,1.628-0.103,0.351-0.959c-0.23-0.155,0.31-0.335,0.518-0.405
			c0.765-0.259,1.564-0.431,2.224-1.041c-0.714-0.227-1.328,0.488-2.018,0.134c0.365-0.844,1.459-0.461,1.854-1.184
			c2.355-0.193,4.259-1.604,6.412-2.363c-2.516,0.419-5.008,0.898-7.538,1.852c0.502,0.229,0.836,0.382,1.17,0.534
			c-2.227,0.459-4.284,1.381-6.318,2.354c-0.559,0.268-1.01,0.618-1.571-0.017c-0.232-0.263-0.701-0.311-0.664-0.81
			c0.039-0.531,0.4-0.717,0.842-0.859c2.432-0.787,4.912-1.461,7.268-2.434c1.119-0.462,2.994-0.095,3.119-2.145
			c0.009-0.144,0.567-0.241,0.86-0.382c2.721-1.303,5.733-1.494,8.589-2.275c1.25-0.343,2.451-0.874,3.942-1.092
			c-1.546-1.599-3.233-2.957-3.711-5.142c1.722,1.966,2.957,4.516,6.032,4.968c-1.171-0.708-2.232-1.432-3.165-2.351
			c-0.938-0.924-1.695-1.973-2.436-3.045c-0.268-0.387-0.454-0.907-1.089-0.806c-0.068-0.259-0.006-0.583-0.349-0.708
			c-0.004-0.44-0.007-0.881-0.011-1.323c0.252-0.058,0.503-0.115,0.755-0.172c-0.188,0.131-0.365,0.319-0.22,0.531
			c0.901,1.312,1.824,2.608,2.74,3.91c0.091-0.057,0.183-0.113,0.274-0.17c-0.639-1.285-1.277-2.57-1.915-3.855
			c0.816-0.446,1.092-1.858,2.483-1.337c0.238,0.09,0.152-0.412,0.182-0.664c0.277-2.365-2.27-2.042-3.125-3.312
			c-0.277-0.41-0.621-0.323-0.987-0.328c-0.671-0.01-1.139,0.203-1.271,0.947c-0.074,0.416-0.266,0.81-0.404,1.214
			c-0.08-0.019-0.16-0.041-0.238-0.067c-0.291,0.006-0.583,0.013-0.874,0.02l0.039,0.054c0.156-0.571,0.375-1.133,0.455-1.714
			c0.136-1.004,0.186-2.341-1.016-2.401c-0.928-0.046-0.708-0.567-1.045-0.876c-0.845-0.777,0.405-1.235,0.092-1.893
			c-0.56,0.301-0.688,1.154-1.462,1.109C211.417,368.238,211.31,368.003,211.203,367.767z M206.164,358.477
			c0.412-1.207-0.822-2.36,0.022-3.587c0.153-0.222,0.617-0.681-0.024-0.901c-0.478-0.164-0.623,0.328-0.798,0.632
			C204.502,356.116,205.582,357.243,206.164,358.477z"/>
		<path fill-rule="evenodd" clip-rule="evenodd" d="M246.285,343.912c0.847,1.967-0.66,3.619-0.274,5.514
			c0.111,0.542-0.675,1.297-1.105,1.915c-1.615,2.318-4.77,3.586-7.294,2.962c-2.346-0.58-3.287-2.408-2.255-4.595
			c1.221-2.591,3.564-3.531,6.205-3.897c1.146-0.159,2.297-0.284,3.378,0.446c0.712,0.48,1.036,0.14,0.771-0.656
			C245.445,344.808,245.328,344.117,246.285,343.912z M235.864,349.417c-0.578,0.841-0.681,1.695-0.256,2.566
			c0.479,0.981,1.27,0.379,1.961,0.327c0.364-0.027,0.744,0.141,1.104,0.106c0.462-0.044,1.264,0.388,1.258-0.498
			c-0.005-0.744,0.395-1.691-0.834-2.113c-1.27-0.436-2.101,0.49-3.072,0.796C235.859,350.184,236.298,349.834,235.864,349.417z"/>
		<path fill-rule="evenodd" clip-rule="evenodd" d="M217.788,348.266c-0.555,0.072-1.14,0.015-1.722-0.167
			c-1.917-0.602-2.506-2.074-1.508-3.8c1.335-2.306,6.13-4.375,8.713-3.761c1.339,0.319,1.954,1.38,1.666,2.875
			c-0.463,2.405-3.325,4.615-6.291,4.851C218.378,348.285,218.105,348.266,217.788,348.266z M220.188,346.021
			c-0.346-0.498-0.854-0.893-0.85-1.284c0.014-1.453-0.767-0.91-1.435-0.656c-0.973,0.371-1.571,1.618-2.956,1.114
			c-0.349-0.127-0.545,0.588-0.399,1.031c0.138,0.417,0.784,0.923,0.848,0.724c0.33-1.016,0.932-0.284,1.362-0.299
			C217.889,346.612,219.014,346.612,220.188,346.021z"/>
		<path fill-rule="evenodd" clip-rule="evenodd" d="M250.35,333.528c1.004-2.414,3.114-3.087,5.33-3.484
			c1.06-0.19,2.177-0.161,3.246,0.145c2.305,0.66,2.877,2.495,1.363,4.365c-2.041,2.522-6.794,3.097-9.447,1.144
			c-0.169-0.124-0.358-0.221-0.639-0.392c0.954-0.564,1.833-0.699,2.766-0.168c0.142,0.081,0.288,0.16,0.442,0.208
			c0.846,0.262,2.006,0.424,2.433-0.131c0.426-0.555-0.223-1.711-0.556-2.355c-0.31-0.6-1.84-0.585-2.343-0.03
			C252.112,333.75,251.121,332.96,250.35,333.528z"/>
		<path fill-rule="evenodd" clip-rule="evenodd" d="M234.316,341.712c-1.915-1.105-2.19-2.178-1.014-3.962
			c1.53-2.322,5.395-3.816,8.084-3.125c1.272,0.327,1.876,1.333,1.577,2.774c-0.827,3.968-6.057,5.694-8.664,4.279
			c0.738-0.965,1.636-1.532,2.929-1.365c0.313,0.041,1.047,0.18,0.945-0.461c-0.134-0.843-0.53-1.571-1.266-2.192
			c-1.393-1.175-1.923,0.418-2.818,0.741c-1.401,0.506-1.244,1.445-0.428,2.409C233.905,341.097,234.252,341.298,234.316,341.712z"
			/>
		<path fill-rule="evenodd" clip-rule="evenodd" d="M257.437,368.41c-0.971,1.3-1.871,1.31-2.778,0.031
			c-1.398-1.97-1.151-5.472,0.596-8.013c0.618-0.9,1.329-1.737,2.3-2.278c1.06-0.591,2.071-0.318,2.388,0.791
			c0.778,2.713,1.076,5.45-0.98,7.847c0.036-0.16,0.091-0.317,0.103-0.478c0.035-0.456,0.608-0.978-0.247-1.32
			c-0.628-0.251-1.135-0.883-1.911-0.313c-0.569,0.418-0.986,0.846-0.732,1.626c0.117,0.358,0.165,0.739,0.245,1.108
			c-0.256-0.084-0.304-1.162-0.731-0.224c-0.201,0.44-0.671,1.124,0.016,1.617C256.397,369.301,256.911,368.778,257.437,368.41z"/>
		<path fill-rule="evenodd" clip-rule="evenodd" fill="none" d="M235.617,298.614c0.948,1.502,1.237,3.403,2.761,4.555
			c0.041,0.564-0.303,0.706-0.783,0.793c-1.371,0.249-2.736,0.613-4.139,0.47c-0.841-0.085-1.438,0.24-1.984,0.791
			c0.029-0.721,0.644-1.128,1.19-1.85c-1.417,0.211-1.36,1.786-2.417,2.025c-0.08-0.172-0.125-0.222-0.121-0.27
			c0.006-0.093,0.007-0.227,0.065-0.271c1.647-1.252,1.084-2.557,0.104-3.877c-0.597-0.804-1.369-1.502-1.735-2.713
			C231.033,298.553,233.345,297.852,235.617,298.614z"/>
		<path fill-rule="evenodd" clip-rule="evenodd" d="M228.834,330.083c0.028-1.003,0.735-1.537,1.445-2.05
			c1.259-0.913,2.688-1.406,4.207-1.705c1.278-0.251,2.6-0.172,3.176,1.021c0.601,1.243,0.102,2.615-0.911,3.561
			c-1.635,1.525-3.681,2.137-5.879,1.962c-1.715-0.136-2.433-1.295-1.98-2.846c0.016,1.34,0.424,1.952,0.814,1.514
			c0.681-0.764,1.237-0.643,2.07-0.286c0.999,0.428,1.622,0.083,1.382-1.181c-0.184-0.967-1.283-1.522-2.179-0.835
			C230.296,329.763,229.538,329.786,228.834,330.083z"/>
		<path fill-rule="evenodd" clip-rule="evenodd" d="M302.538,293.624c-0.796-0.146-1.301-0.316-1.864-0.744
			c-0.37-0.282-1.55,0.176-2.141,0.61c-0.505,0.371-0.03,0.905,0.426,1.292c0.757,0.642,1.523,0.904,2.461,0.295
			c-1.645,1.788-2.538,1.871-4.279,0.407c-1.394-1.174-2.591-2.514-2.729-4.45c-0.113-1.585,0.795-2.445,2.356-2.333
			C298.863,288.851,301.83,291.314,302.538,293.624z"/>
		<path fill-rule="evenodd" clip-rule="evenodd" d="M314.986,294.303c-0.27,1.175-1.117,1.391-2.125,1.206
			c-2.699-0.495-5.006-3.488-4.813-6.195c0.097-1.359,0.986-2.055,2.32-1.813c2.396,0.435,5.055,3.873,4.852,6.296
			c-0.016,0.191-0.181,0.369-0.275,0.554c0.669-1.469-0.898-1.92-1.475-2.601c-0.509-0.601-1.662,0.378-2.669,0.694
			c0.674,0.665,0.816,1.691,2.071,1.365c0.507-0.132,0.655,0.304,0.286,0.833c-0.45,0.643,0.033,0.785,0.516,0.576
			C314.154,295.012,314.553,294.617,314.986,294.303z"/>
		<path fill-rule="evenodd" clip-rule="evenodd" d="M235.617,298.614c-2.271-0.763-4.584-0.062-7.058-0.347
			c0.366,1.211,1.138,1.909,1.735,2.713c0.979,1.321,1.543,2.625-0.104,3.877c-0.059,0.044-0.059,0.177-0.065,0.271
			c-0.003,0.047,0.041,0.098,0.121,0.27c1.058-0.24,1-1.814,2.417-2.025c-0.547,0.722-1.162,1.129-1.19,1.85
			c-0.097,0.302-0.195,0.604-0.292,0.907c-0.554,0.507-0.809,0.14-1.111-0.327c-1.103-1.706-2.258-3.378-3.351-5.09
			c-0.474-0.743,0.7-2.714,1.65-2.773c2.158-0.137,4.33,0.179,6.483-0.165C235.553,297.663,235.332,298.363,235.617,298.614z"/>
		<path fill-rule="evenodd" clip-rule="evenodd" d="M277.597,291.319c-0.328,2.221-1.503,4.202-3.121,5.939
			c-0.368,0.395-0.933,0.682-1.465,0.399c-0.566-0.302-0.485-0.88-0.348-1.441c0.546-2.237,1.254-4.388,3.083-5.953
			c0.368-0.315,0.808-0.648,1.323-0.385C277.558,290.127,277.653,290.624,277.597,291.319z"/>
		<path fill-rule="evenodd" clip-rule="evenodd" d="M324.861,292.188c-0.869,0.818-1.521,0.742-2.248,0.094
			c-1.444-1.286-2.214-2.934-2.63-4.764c-0.148-0.649-0.029-1.347,0.539-1.785c0.57-0.44,1.154-0.068,1.676,0.19
			c0.934,0.461,1.737,1.114,2.413,1.904c0.221,0.259,0.667,0.546,0.3,0.954c-0.224,0.249-0.415,0.724-0.902,0.517
			c-0.619-0.262-1.286,0.313-1.931-0.169C323.151,290.062,322.983,291.937,324.861,292.188z"/>
		<path fill-rule="evenodd" clip-rule="evenodd" d="M278.276,297.188c0.313-2.478,1.417-4.563,3.264-6.212
			c0.849-0.758,1.742-0.402,1.613,0.679c-0.274,2.31-0.576,4.687-2.441,6.411c-0.422,0.39-0.907,0.902-1.521,0.22
			c0.147-0.146,0.439-0.319,0.418-0.433c-0.193-1.04,1.785-1.058,1.091-1.897C280.433,295.634,279.01,296.535,278.276,297.188z"/>
		<path fill-rule="evenodd" clip-rule="evenodd" d="M280.621,301.925c2.172-0.573,2.234-2.477,3.093-3.924
			c1.171-1.974,1.568-4.264,3.106-6.231c-0.274,3.035-0.827,5.798-2.657,8.187c-1.092,1.425-2.501,2.578-3.452,4.126
			c-0.212,0.345-0.774,1.081-0.609-0.251c0.054-0.435-0.589,0.148-0.917,0.224c-0.321,0.076-0.55,0.652-0.96,0.225
			c-0.296-0.308-0.24-0.759-0.051-1.079c0.358-0.604,0.324-1.306,1.198-1.798C280.409,300.821,280.418,301.356,280.621,301.925z"/>
		<path fill-rule="evenodd" clip-rule="evenodd" d="M285.017,275.222c-0.47,2.137-1.147,4.373-2.772,6.168
			c-0.424,0.468-1.071,0.979-1.726,0.684c-0.795-0.357-0.633-1.216-0.48-1.894c0.512-2.271,1.455-4.334,3.194-5.948
			c0.306-0.285,0.692-0.627,1.157-0.427C284.9,274.024,285.004,274.528,285.017,275.222z M282.211,278.84
			c-0.301,0.889-1.404,0.756-1.916,1.397c-0.233,0.293-0.21,1.186,0.415,1.387c0.527,0.17,1.038-0.192,1.255-0.758
			c0.233-0.608,1.134-0.95,0.727-1.805C282.658,278.991,282.512,278.974,282.211,278.84z"/>
		<path fill-rule="evenodd" clip-rule="evenodd" d="M289.61,297.895c-0.703,0.083-1.784-0.024-0.373,1.056
			c-3.027-0.185-4.121,2.613-6.647,3.76c1.241-1.018,1.699-2.288,2.976-2.834c0.459-0.196,1.227-0.577,0.289-1.237
			c-0.046-0.032,0.049-0.31,0.118-0.454c1.62-3.421,1.554-7.201,2.394-10.953c0.444,0.738,0.121,1.408,0.085,2.052
			c-0.04,0.708-0.062,1.416-0.123,2.121s-0.158,1.407-0.239,2.11c-0.132,1.141,0.046,2.091,1.121,2.823
			c0.883,0.601,0.81,0.708,0.35,1.561C289.561,297.901,289.61,297.895,289.61,297.895z"/>
		<path fill-rule="evenodd" clip-rule="evenodd" d="M269.93,294.775c-0.081-0.985-0.256-1.402-1.023-0.782
			c-0.292,0.236-0.649,0.756-1.112,0.425c-0.544-0.389-0.072-0.923,0.048-1.327c0.485-1.624,1.321-3.078,2.45-4.344
			c0.417-0.467,0.878-1.124,1.615-0.639c0.649,0.427,0.482,1.121,0.291,1.771C271.721,291.496,271.003,292.999,269.93,294.775z"/>
		<path fill-rule="evenodd" clip-rule="evenodd" fill="none" d="M310.616,340.617c-1.233,0.903-2.467,1.806-3.95,2.893
			c1.4-2.016,17.82-15.833,19.06-16.011c-2.555,2.563-5.329,4.623-7.913,6.896c-1.956,1.72-3.914,3.436-5.871,5.154
			C311.5,339.905,311.058,340.261,310.616,340.617z"/>
		<path fill-rule="evenodd" clip-rule="evenodd" d="M335.966,348.254c-0.313,0.72-0.755,0.854-1.214,0.914
			c-0.978,0.125-1.407,0.804-1.469,1.648c-0.108,1.477-0.651,1.21-1.436,0.469c-0.355-0.335-0.743-0.639-1.137-0.929
			c-1.563-1.15-1.735-1.942-1.032-3.807c0.28-0.742,0.458-0.535,0.856-0.154c0.429,0.409,0.923,0.75,1.376,1.132
			C333.066,348.499,334.262,349.285,335.966,348.254z"/>
		<path fill-rule="evenodd" clip-rule="evenodd" d="M231.181,306.129c0.097-0.302,0.194-0.604,0.292-0.907
			c0.547-0.55,1.144-0.875,1.984-0.791c1.402,0.143,2.768-0.222,4.139-0.47c0.479-0.087,0.824-0.229,0.783-0.793
			c0.175,0.193,0.351,0.386,0.526,0.579c-1.047,0.861-1.368,2.618-3.335,2.354C234.132,305.91,232.645,306.106,231.181,306.129z"/>
		<path fill-rule="evenodd" clip-rule="evenodd" d="M297.7,266.408c-1.725-0.421-3.408-0.975-5.18-1.211
			c-1.713-0.228-3.284,0.486-4.868,0.794c-1.681,0.327-2.688,2.162-4.131,3.664C286.345,263.96,291.254,262.9,297.7,266.408z"/>
		<path fill-rule="evenodd" clip-rule="evenodd" d="M318.681,373.375c-0.415,0.241-0.861,0.441-1.238,0.731
			c-1.362,1.051-2.604,0.889-4.058,0.017c-1.187-0.712-1.541-1.499-1.209-2.913c1.025,0.714,2.25,0.949,2.784,2.144
			c0.33,0.74,0.327,0.199,0.426-0.098c0.163-0.491,0.6-0.329,0.95-0.366c-0.446,0.405-1.028,0.776-0.649,1.479
			c0.03,0.056,0.867-0.341,1.339-0.498C317.571,373.688,318.129,373.539,318.681,373.375z"/>
		<path fill-rule="evenodd" clip-rule="evenodd" fill="none" d="M256.419,367.41c-0.08-0.37-0.127-0.75-0.245-1.108
			c-0.254-0.78,0.163-1.208,0.732-1.626c0.776-0.57,1.283,0.062,1.911,0.313c0.855,0.343,0.282,0.864,0.247,1.32
			c-0.012,0.161-0.067,0.318-0.103,0.478c-0.292,0.722-0.84,1.196-1.509,1.552C257.108,368.03,256.764,367.72,256.419,367.41z"/>
		<path fill-rule="evenodd" clip-rule="evenodd" fill="none" d="M268.845,367.479c-0.618,0.569-1.23,1.688-2.048,1.25
			c-0.829-0.443-0.054-1.575-0.109-2.396c-0.075-1.115,0.344-1.295,1.345-1.061c0.822,0.193,1.715,0.139,1.11,1.402
			c-0.09,0.188-0.085,0.423-0.124,0.637C268.963,367.37,268.906,367.426,268.845,367.479z"/>
		<path fill-rule="evenodd" clip-rule="evenodd" d="M331.762,294.735c0.373,1.058,0.681,2.072-0.162,3.043
			c-0.288,0.334-0.367,0.838-0.169,1.241c0.968,1.974,0.277,4.055,0.268,6.08c0-0.792-0.043-1.586,0.011-2.375
			c0.089-1.313-0.169-2.404-1.246-3.337c-0.763-0.66-1.212-1.553,0.199-2.227C331.621,296.702,331.905,295.791,331.762,294.735z"/>
		<path fill-rule="evenodd" clip-rule="evenodd" d="M211.203,367.767c0.107,0.236,0.213,0.471,0.32,0.707
			c0.497,2.18,1.796,3.947,2.976,5.775l-0.039-0.054c0.065,0.261,0.131,0.521,0.197,0.782c-1.25-0.739-1.565-2.147-2.301-3.25
			c-1.384-2.071-2.299-4.435-3.946-6.347c-0.232-0.27-0.21-0.601-0.019-0.902C209.328,365.575,210.266,366.671,211.203,367.767z"/>
		<path fill-rule="evenodd" clip-rule="evenodd" d="M326.304,284.154c4.812,2.998,6.028,5.198,5.203,9.076
			c-0.243-1.957-0.175-3.944-1.327-5.425C329.104,286.421,327.612,285.358,326.304,284.154z"/>
		<path fill-rule="evenodd" clip-rule="evenodd" d="M289.61,297.895c0,0-0.049,0.006-0.05,0.005c1.46,1.035,2.927,2.06,4.372,3.114
			c0.265,0.192,0.828,0.358,0.536,0.813c-0.359,0.559-0.808,0.119-1.089-0.153c-0.797-0.77-1.857-1.123-2.695-1.745
			C290.21,299.577,289.576,298.778,289.61,297.895z"/>
		<path fill-rule="evenodd" clip-rule="evenodd" d="M250.724,377.249c-0.666-1.114-0.703-2.041-0.32-3.011
			c0.342-0.866,0.536-1.772,0.394-2.701c-0.238-1.554,1.083-0.391,1.458-0.86c-0.02,0.345,0.561,0.559,0.144,1.019
			C251.513,372.672,250.647,375.486,250.724,377.249z"/>
		<path fill-rule="evenodd" clip-rule="evenodd" d="M229.284,322.247c-2.542,2.409-5.246,4.64-7.717,7.128
			c2.28-2.686,4.622-5.305,7.577-7.282C229.19,322.145,229.237,322.196,229.284,322.247z"/>
		<path fill-rule="evenodd" clip-rule="evenodd" d="M260.729,395.452c-1.081-0.906-2.119-1.846-2.661-3.593
			c0.937,0.928,1.471,2.141,2.704,1.95c1.148-0.177,1.815-1.287,3.206-2.058c-1.103,1.611-2.688,2.228-3.257,3.701
			C260.718,395.456,260.729,395.452,260.729,395.452z"/>
		<path fill-rule="evenodd" clip-rule="evenodd" fill="none" d="M217.421,379.509c0.635-0.101,0.822,0.419,1.089,0.806
			c0.741,1.072,1.498,2.122,2.436,3.045c0.932,0.919,1.994,1.643,3.165,2.351c-3.076-0.452-4.31-3.001-6.032-4.968
			C217.859,380.332,217.64,379.92,217.421,379.509z"/>
		<path fill-rule="evenodd" clip-rule="evenodd" fill="none" d="M220.046,358.042c0.418,0.648,0.339,1.138-0.475,1.322
			c-0.819,0.186-1.099-0.299-1.349-1.004c-0.235-0.663-0.175-1.177,0.323-1.599c0.29-0.247,0.486,0.083,0.59,0.311
			c0.216,0.467,0.586,0.761,1.004,1.019L220.046,358.042z"/>
		<path fill-rule="evenodd" clip-rule="evenodd" fill="none" d="M318.681,373.375c-0.552,0.164-1.109,0.313-1.655,0.496
			c-0.472,0.157-1.309,0.554-1.339,0.498c-0.379-0.703,0.203-1.074,0.649-1.479c0.493-0.183,0.979-0.383,1.481-0.54
			c0.339-0.106,0.745-0.392,1.042-0.109C319.26,372.623,318.783,372.998,318.681,373.375z"/>
		<path fill-rule="evenodd" clip-rule="evenodd" d="M266.542,328.969c1.184-0.056,1.477,0.839,2.093,1.503
			c0.112-0.477,0.19-0.81,0.314-1.337c0.938,1.321,0.489,2.338-0.154,3.362C268.157,331.287,267.714,329.998,266.542,328.969z"/>
		<path fill-rule="evenodd" clip-rule="evenodd" d="M229.144,322.093c1.909-1.732,2.915-1.931,7.334-1.332
			c-1.223,0.117-2.443,0.292-3.668,0.335c-1.303,0.046-2.396,0.631-3.526,1.15C229.237,322.196,229.19,322.145,229.144,322.093z"/>
		<path fill-rule="evenodd" clip-rule="evenodd" fill="none" d="M278.963,346.081c-0.719-0.244-0.654-1.113-1.232-1.526
			c-0.35-0.249-0.385-0.793-0.035-1.274c0.455-0.625,0.814-0.075,1.215,0.006C278.997,344.217,279.942,345.131,278.963,346.081z"/>
		<path fill-rule="evenodd" clip-rule="evenodd" d="M332.845,345.235c1.345-0.26,1.933,0.935,2.844,1.492
			c2.192,1.339,2.181,1.5,0.692,3.807c-0.19-0.361,0.117-0.617,0.228-0.876c0.498-1.171,0.41-2.04-0.939-2.554
			c-0.539-0.206-0.989-0.648-1.478-0.984C333.755,345.819,333.453,345.301,332.845,345.235z"/>
		<path fill-rule="evenodd" clip-rule="evenodd" fill="none" d="M299.846,306.417c-0.844,1.139-1.97,0.7-3.385,0.594
			c0.849-0.562,1.38-1.067,0.859-1.872C298.162,305.565,299.004,305.991,299.846,306.417z"/>
		<path fill-rule="evenodd" clip-rule="evenodd" fill="none" d="M208.388,362.078c0.393-0.943,0.76-1.91,2.128-2.259
			c-0.445,1.096-1.644,1.753-0.949,3.069c0.186,0.352-0.549,0.369-0.933,0.144C208.552,362.712,208.47,362.396,208.388,362.078z"/>
		<path fill-rule="evenodd" clip-rule="evenodd" d="M290.303,271.644c-0.031-2.146,1.289-3.787,0.401-5.698
			c1.407,0.797,1.42,0.804,0.76,1.87C290.809,268.876,291.134,270.225,290.303,271.644z"/>
		<path fill-rule="evenodd" clip-rule="evenodd" fill="none" d="M278.276,297.188c0.734-0.653,2.157-1.554,2.423-1.232
			c0.694,0.839-1.284,0.857-1.091,1.897c0.021,0.114-0.271,0.287-0.418,0.433C278.08,298.591,278.43,297.68,278.276,297.188z"/>
		<path fill-rule="evenodd" clip-rule="evenodd" d="M276.13,336.353c0.3-0.317,0.635-0.344,0.999-0.121
			c1.024,0.631,2.047,1.262,3.064,1.885c0.088,0.121,0.263,0.25,0.262,0.379c-0.002,0.369-0.273,0.202-0.411,0.124
			C278.734,337.873,277.434,337.11,276.13,336.353z"/>
		<path fill-rule="evenodd" clip-rule="evenodd" fill="none" d="M214.657,374.977c-0.065-0.261-0.131-0.521-0.197-0.782
			c0.292-0.007,0.583-0.013,0.873-0.02c-0.157,1.52,1.15,2.255,1.791,3.347l-0.063-0.044c0.004,0.441,0.007,0.882,0.011,1.323
			C216.268,377.527,215.462,376.252,214.657,374.977z"/>
		<path fill-rule="evenodd" clip-rule="evenodd" fill="none" d="M256.419,367.41c0.344,0.31,0.688,0.62,1.033,0.929
			c0,0-0.018,0.076-0.016,0.073c-0.525,0.365-1.039,0.889-1.732,0.391c-0.687-0.494-0.216-1.177-0.016-1.617
			C256.115,366.249,256.163,367.326,256.419,367.41z"/>
		<path fill-rule="evenodd" clip-rule="evenodd" d="M281.844,388.09c0,0,0.003,0.048,0.002,0.048
			c0.983-1.212,2.064-0.457,3.292-0.262C283.948,388.652,282.907,388.693,281.844,388.09z"/>
		<path fill-rule="evenodd" clip-rule="evenodd" d="M288.281,279.838c0.325,1.9,0.325,1.9,0.021,3.046
			C287.578,280.462,287.578,280.462,288.281,279.838z"/>
		<path fill-rule="evenodd" clip-rule="evenodd" d="M213.415,316.416c1.381,0.021,3.092,1.627,3.801-1.097
			C216.825,317.686,216.263,317.829,213.415,316.416z"/>
		<path fill-rule="evenodd" clip-rule="evenodd" fill="none" d="M273.061,332.702c1.287,0.844,3.307,4.843,4.148,7.733
			c-0.323-0.048-0.764-0.574-1.219-1.487c-0.523-1.053-1.049-2.105-1.548-3.17C273.964,334.761,273.519,333.729,273.061,332.702z"/>
		<path fill-rule="evenodd" clip-rule="evenodd" fill="none" d="M295.742,345.521c-0.11-0.23-0.22-0.459-0.381-0.797
			c3.112,0.645,6.18,2.249,9.274,0.076c-2.104,2.352-4.583,1.84-7.107,1.08c-0.599-0.18-1.126-0.707-1.832-0.416
			C295.698,345.467,295.742,345.521,295.742,345.521z"/>
		<path fill-rule="evenodd" clip-rule="evenodd" fill="none" d="M261.344,322.4c-0.166-2.372,0.395-4.574,0.756-6.942
			c0.69,0.523,0.638,1.15,0.371,1.625c-0.476,0.849-0.518,1.749-0.593,2.663c-0.043,0.532-0.227,1.122,0.354,1.473
			c0.557,0.339,0.851-0.285,1.278-0.435c0.189-0.066,0.364-0.174,0.632-0.123C263.348,321.408,262.621,322.255,261.344,322.4z"/>
		<path fill-rule="evenodd" clip-rule="evenodd" fill="none" d="M265.681,318.431c-0.791,0.72-1.644,2.002-2.607,1.499
			c-0.87-0.455-0.259-1.882-0.065-2.878c0.103-0.53,0.242-1.053,0.401-1.737c0.562,0.645,0.397,1.344,0.167,1.827
			c-0.275,0.577-0.639,1.153-0.149,1.624c0.567,0.543,1.069-0.188,1.594-0.38C265.229,318.31,265.423,318.218,265.681,318.431z"/>
		<path fill-rule="evenodd" clip-rule="evenodd" fill="none" d="M271.154,363.117c0.635-0.836,1.271-1.672,2.1-2.765
			c0.243,2.404-1.604,3.058-2.699,4.556c0.05-0.877,0.178-1.408,0.637-1.83C271.192,363.078,271.154,363.117,271.154,363.117z"/>
		<path fill-rule="evenodd" clip-rule="evenodd" fill="none" d="M266.148,320.673c-1.04,1.541-2.572,2.696-3.27,4.471
			C262.497,323.944,263.104,323.078,266.148,320.673z"/>
		<path fill-rule="evenodd" clip-rule="evenodd" fill="none" d="M276.348,365.896c-0.736,0.225-1.04-0.21-1.177-0.784
			c-0.119-0.492,0.417-0.852,0.622-0.677c0.496,0.42,1.458-0.235,1.575,0.635C277.442,365.618,277.061,366.107,276.348,365.896z"/>
		<path fill-rule="evenodd" clip-rule="evenodd" fill="none" d="M331.157,319.208c-0.877,1.099-1.666,1.218-3.166,0.437
			C329.157,319.717,330.11,319.402,331.157,319.208z"/>
		<path fill-rule="evenodd" clip-rule="evenodd" fill="none" d="M217.816,377.307c-0.251,0.057-0.503,0.114-0.755,0.172l0.063,0.044
			c-0.083-1.298-0.242-2.562-1.552-3.28c0.139-0.404,0.33-0.798,0.404-1.214c0.132-0.744,0.6-0.957,1.271-0.947
			c0.366,0.005,0.71-0.082,0.987,0.328c0.855,1.27,3.402,0.946,3.125,3.312c-0.03,0.252,0.056,0.754-0.182,0.664
			c-1.391-0.521-1.667,0.891-2.483,1.337C218.48,377.418,218.223,377.204,217.816,377.307z"/>
		<path fill-rule="evenodd" clip-rule="evenodd" fill="none" d="M214.499,374.249c-1.18-1.828-2.479-3.595-2.976-5.775
			c0.774,0.045,0.902-0.808,1.462-1.109c0.313,0.658-0.937,1.116-0.092,1.893c0.336,0.31,0.117,0.831,1.045,0.876
			c1.201,0.06,1.152,1.397,1.016,2.401C214.875,373.116,214.655,373.678,214.499,374.249z"/>
		<path fill-rule="evenodd" clip-rule="evenodd" fill="none" d="M205.722,393.544c-0.334-0.152-0.667-0.305-1.17-0.534
			c2.53-0.953,5.022-1.433,7.538-1.852c-2.153,0.758-4.056,2.169-6.412,2.363C205.68,393.521,205.722,393.544,205.722,393.544z"/>
		<path fill-rule="evenodd" clip-rule="evenodd" fill="none" d="M217.816,377.307c0.407-0.103,0.664,0.112,0.879,0.415
			c0.638,1.285,1.276,2.57,1.915,3.855c-0.092,0.057-0.183,0.113-0.274,0.17c-0.916-1.302-1.839-2.598-2.74-3.91
			C217.451,377.626,217.628,377.438,217.816,377.307z"/>
		<path fill-rule="evenodd" clip-rule="evenodd" fill="none" d="M206.164,358.477c-0.583-1.234-1.662-2.36-0.8-3.855
			c0.175-0.305,0.32-0.796,0.798-0.632c0.641,0.22,0.177,0.679,0.024,0.901C205.342,356.116,206.576,357.27,206.164,358.477z"/>
		<path fill-rule="evenodd" clip-rule="evenodd" d="M215.573,374.242c1.31,0.719,1.468,1.982,1.552,3.28
			c-0.641-1.092-1.948-1.828-1.791-3.347C215.413,374.201,215.493,374.223,215.573,374.242z"/>
		<path fill-rule="evenodd" clip-rule="evenodd" fill="none" d="M235.864,349.417c0.434,0.417-0.005,0.767,0.16,1.186
			c0.972-0.306,1.802-1.232,3.072-0.796c1.229,0.421,0.83,1.369,0.834,2.113c0.006,0.886-0.796,0.454-1.258,0.498
			c-0.361,0.035-0.741-0.134-1.104-0.106c-0.691,0.052-1.482,0.655-1.961-0.327C235.183,351.112,235.286,350.258,235.864,349.417z"
			/>
		<path fill-rule="evenodd" clip-rule="evenodd" fill="none" d="M220.188,346.021c-1.174,0.591-2.299,0.591-3.43,0.63
			c-0.431,0.015-1.033-0.717-1.362,0.299c-0.064,0.199-0.71-0.307-0.848-0.724c-0.146-0.443,0.051-1.158,0.399-1.031
			c1.384,0.504,1.983-0.743,2.956-1.114c0.668-0.254,1.448-0.797,1.435,0.656C219.333,345.128,219.842,345.523,220.188,346.021z"/>
		<path fill-rule="evenodd" clip-rule="evenodd" fill="none" d="M234.316,341.712c-0.064-0.414-0.412-0.615-0.654-0.901
			c-0.815-0.964-0.973-1.903,0.428-2.409c0.895-0.323,1.425-1.917,2.818-0.741c0.735,0.621,1.132,1.349,1.266,2.192
			c0.102,0.641-0.633,0.502-0.945,0.461c-1.292-0.167-2.191,0.4-2.929,1.365C234.306,341.686,234.316,341.712,234.316,341.712z"/>
		<path fill-rule="evenodd" clip-rule="evenodd" fill="none" d="M228.834,330.083c0.704-0.297,1.462-0.32,2.145-0.845
			c0.896-0.688,1.996-0.132,2.179,0.835c0.24,1.264-0.383,1.609-1.382,1.181c-0.833-0.356-1.389-0.478-2.07,0.286
			c-0.391,0.438-0.798-0.173-0.814-1.514C228.89,330.028,228.834,330.083,228.834,330.083z"/>
		<path fill-rule="evenodd" clip-rule="evenodd" fill="none" d="M314.986,294.303c-0.434,0.313-0.832,0.708-1.312,0.916
			c-0.482,0.208-0.966,0.067-0.516-0.576c0.369-0.528,0.221-0.965-0.286-0.833c-1.255,0.326-1.397-0.701-2.071-1.365
			c1.007-0.316,2.16-1.295,2.669-0.694c0.576,0.681,2.144,1.132,1.475,2.601C314.945,294.351,314.986,294.303,314.986,294.303z"/>
		<path fill-rule="evenodd" clip-rule="evenodd" fill="none" d="M282.211,278.84c0.301,0.134,0.447,0.151,0.481,0.222
			c0.408,0.855-0.493,1.197-0.727,1.805c-0.217,0.566-0.728,0.928-1.255,0.758c-0.625-0.202-0.648-1.094-0.415-1.387
			C280.807,279.596,281.91,279.729,282.211,278.84z"/>
	</g>
</g>
<g>
	<path d="M151.928,221.11v32.501H84.957V117.698h33.486V221.11H151.928z"/>
	<path d="M157.244,117.698h33.486v135.913h-33.486V117.698z"/>
	<path d="M292.565,117.698v135.913h-33.486v-19.698h-29.546v19.698h-33.486v-42.153
		C196.047,146.653,236.427,117.698,292.565,117.698z M259.079,201.412v-44.516c-18.121,7.091-27.182,22.652-29.152,44.516H259.079z"
		/>
	<path d="M392.037,244.747v8.864h-33.486v-8.864c0-15.167-10.834-27.577-26.592-27.577v36.44h-33.485V117.698h21.667
		c16.152,0,20.485,0.394,24.622,0.788c26.788,2.955,46.289,21.864,46.289,48.456c0,15.561-6.697,27.38-18.318,35.062
		C385.143,211.064,392.037,225.443,392.037,244.747z M331.959,185.654c13.788,0,25.606-3.939,25.606-17.728
		c0-13.788-11.818-18.712-25.606-18.712V185.654z"/>
	<path d="M401.885,163.79c4.137-3.743,8.076-9.061,8.076-14.576c-9.652-0.591-14.773-8.667-14.773-16.546
		c0-9.652,7.683-16.94,17.531-16.94s18.516,7.288,18.516,20.682c0,16.743-13.197,28.956-29.35,28.956V163.79z"/>
	<path d="M434.977,221.11h39.986c8.272,0,12.015-3.939,12.015-8.667c0-5.318-4.53-8.864-9.258-10.439
		c-17.728-5.91-25.804-8.47-32.501-15.364c-7.288-7.485-10.637-17.137-10.637-28.167c0-19.304,10.44-35.456,30.138-39.592
		c3.349-0.788,7.091-1.182,20.683-1.182h18.318v32.501h-26.197c-6.895,0-9.455,3.742-9.455,8.47c0,4.924,2.758,8.667,8.864,10.44
		c13.394,3.939,24.228,7.091,31.516,13.394c8.076,6.895,12.016,17.728,12.016,29.35c0,25.016-18.713,41.759-41.562,41.759h-43.926
		V221.11z"/>
</g>
</svg>
