<?xml version="1.0" encoding="utf-8"?>
<!-- Generator: Adobe Illustrator 16.0.0, SVG Export Plug-In . SVG Version: 6.00 Build 0)  -->
<!DOCTYPE svg PUBLIC "-//W3C//DTD SVG 1.1//EN" "http://www.w3.org/Graphics/SVG/1.1/DTD/svg11.dtd">
<svg version="1.1" id="Layer_1" xmlns="http://www.w3.org/2000/svg" xmlns:xlink="http://www.w3.org/1999/xlink" x="0px" y="0px"
	 width="404px" height="277px" viewBox="0 0 404 277" enable-background="new 0 0 404 277" xml:space="preserve">
<radialGradient id="SVGID_1_" cx="202" cy="138.5" r="173.1852" gradientUnits="userSpaceOnUse">
	<stop  offset="0" style="stop-color:#44403E"/>
	<stop  offset="1" style="stop-color:#1F1C1C"/>
</radialGradient>
<rect fill="url(#SVGID_1_)" width="404" height="277"/>
<g>
	<g>
		<path fill="#FFFFFF" d="M71.569,130.668c-1.026,0.05-1.54,0.069-2.566,0.099c0.257-1.524,0.385-2.288,0.642-3.813
			c2.811-0.095,4.216-0.182,7.027-0.427c0.814-0.071,1.57,0.071,2.262,0.432s1.298,0.902,1.818,1.626
			c0.52,0.724,0.926,1.601,1.222,2.636c0.295,1.036,0.444,2.194,0.444,3.474c0,1.792-0.256,3.535-0.765,5.229
			s-1.18,3.216-2.015,4.554c-0.835,1.338-1.79,2.435-2.859,3.28c-1.069,0.847-2.152,1.304-3.252,1.375
			c-1.039,0.066-1.558,0.096-2.597,0.141c-1.161,6.867-1.743,10.293-2.904,17.133c-1.002,0.021-1.502,0.026-2.505,0.026
			C67.546,154.513,69.563,142.591,71.569,130.668z M71.601,145.448c0.782-0.038,1.173-0.06,1.956-0.11
			c0.774-0.049,1.543-0.379,2.307-0.988c0.764-0.61,1.452-1.404,2.063-2.381s1.11-2.075,1.497-3.292
			c0.387-1.217,0.58-2.455,0.58-3.711c0-1.545-0.31-2.725-0.931-3.546c-0.622-0.821-1.412-1.186-2.369-1.103
			c-1.026,0.09-1.54,0.129-2.566,0.2C73.122,136.499,72.615,139.485,71.601,145.448z"/>
		<path fill="#FFFFFF" d="M90.514,132.543c1.393-0.248,2.09-0.38,3.483-0.655c0.631-0.125,1.223-0.077,1.772,0.145
			s1.028,0.6,1.436,1.136c0.407,0.537,0.728,1.203,0.962,1.999c0.234,0.797,0.352,1.691,0.352,2.683c0,1.056-0.118,2.107-0.352,3.15
			c-0.234,1.044-0.555,2.026-0.962,2.945c-0.408,0.92-0.882,1.765-1.422,2.532c-0.54,0.769-1.115,1.405-1.726,1.91
			c0.452,3.232,0.679,4.846,1.131,8.075c-0.99,0.202-1.485,0.301-2.475,0.489c-0.403-2.938-0.605-4.406-1.009-7.346
			c-0.648,0.12-0.971,0.177-1.619,0.291c-0.513,3.104-0.77,4.656-1.283,7.756c-1.002,0.168-1.503,0.247-2.506,0.399
			C87.983,147.87,88.827,142.77,90.514,132.543z M91.737,145.809c0.509-0.094,1.026-0.376,1.556-0.848
			c0.53-0.47,0.999-1.06,1.406-1.766s0.744-1.479,1.008-2.318c0.265-0.838,0.397-1.674,0.397-2.506c0-0.992-0.193-1.719-0.58-2.184
			c-0.387-0.464-0.886-0.634-1.497-0.513c-0.648,0.128-0.972,0.19-1.62,0.313c-0.66,4.003-0.989,6.004-1.649,10.001
			C91.149,145.917,91.346,145.881,91.737,145.809z"/>
		<path fill="#FFFFFF" d="M112.583,127.361c0.731-0.208,1.362-0.133,1.89,0.226c0.528,0.359,0.959,0.889,1.294,1.589
			c0.335,0.702,0.585,1.531,0.748,2.491c0.163,0.96,0.244,1.937,0.244,2.928c0,1.568-0.187,3.362-0.563,5.376
			c-0.376,2.016-0.905,3.947-1.585,5.793c-0.681,1.846-1.5,3.464-2.455,4.853c-0.955,1.39-2.001,2.241-3.139,2.548
			c-0.732,0.197-1.361,0.107-1.889-0.267c-0.528-0.373-0.959-0.926-1.294-1.656c-0.335-0.73-0.585-1.58-0.748-2.547
			c-0.162-0.967-0.243-1.946-0.243-2.938c0-1.023,0.085-2.165,0.258-3.425c0.173-1.26,0.418-2.537,0.733-3.834
			s0.699-2.564,1.156-3.804c0.457-1.24,0.977-2.368,1.556-3.387c0.579-1.019,1.203-1.877,1.874-2.574
			C111.091,128.037,111.812,127.58,112.583,127.361z M112.604,131.147c-0.774,0.22-1.487,0.885-2.138,1.994
			c-0.652,1.111-1.218,2.388-1.697,3.832c-0.479,1.444-0.85,2.916-1.115,4.414c-0.265,1.498-0.397,2.759-0.397,3.786
			c0,0.449,0.026,0.932,0.077,1.447c0.05,0.517,0.141,0.999,0.273,1.445c0.132,0.446,0.312,0.798,0.536,1.06
			c0.224,0.261,0.518,0.343,0.884,0.244c0.774-0.208,1.489-0.86,2.141-1.957c0.651-1.096,1.212-2.369,1.681-3.818
			c0.468-1.449,0.833-2.934,1.098-4.455c0.265-1.52,0.397-2.794,0.397-3.822c0-0.417-0.026-0.891-0.076-1.422
			c-0.051-0.531-0.139-1.018-0.261-1.464s-0.295-0.798-0.519-1.055C113.265,131.12,112.971,131.043,112.604,131.147z"/>
		<path fill="#FFFFFF" d="M126.262,123.182c0.99-0.321,1.485-0.483,2.476-0.81c-0.709,4.438-1.064,6.658-1.773,11.094
			c1.283-0.418,1.925-0.63,3.208-1.058c0.709-4.44,1.063-6.661,1.772-11.104c0.99-0.333,1.485-0.501,2.475-0.837
			c-1.674,10.496-2.511,15.741-4.186,26.225c-0.99,0.33-1.484,0.493-2.474,0.817c0.697-4.434,1.044-6.65,1.741-11.086
			c-1.271,0.421-1.908,0.631-3.179,1.043c-0.721,4.439-1.08,6.656-1.801,11.092c-1.002,0.321-1.504,0.48-2.506,0.794
			C123.713,138.895,124.563,133.66,126.262,123.182z"/>
		<path fill="#FFFFFF" d="M140.836,143.073c-1.002,0.349-1.502,0.523-2.505,0.869c1.687-10.509,2.53-15.765,4.217-26.28
			c1.002-0.35,1.502-0.524,2.505-0.876C143.366,127.304,142.522,132.56,140.836,143.073z"/>
		<path fill="#FFFFFF" d="M158.038,121.878c0.031,0.278,0.754,1.132,0.979,1.918c0.224,0.787,0.336,1.644,0.336,2.571
			c0,1.536-0.25,3.086-0.749,4.651c-0.5,1.566-1.145,2.951-1.909,4.146c-0.572,0.896-1.202,1.69-1.895,2.365
			c-0.693,0.675-1.417,1.144-2.169,1.408c-1.479,0.519-2.217,0.78-3.696,1.3c1.687-10.52,2.529-15.779,4.216-26.297
			c1.295-0.455,1.943-0.681,3.239-1.134c0.428-0.149,0.83-0.169,1.207-0.061c0.377,0.109,0.703,0.331,0.978,0.667
			c0.275,0.336,0.495,0.765,0.658,1.285s0.244,1.133,0.244,1.836c0,0.929-0.133,1.853-0.398,2.776
			C158.812,120.235,157.999,121.519,158.038,121.878z M152.11,135.331c0.22-0.077,0.331-0.118,0.551-0.195
			c0.468-0.165,0.921-0.466,1.359-0.91c0.438-0.443,0.842-0.956,1.207-1.533c0.469-0.742,0.871-1.599,1.207-2.569
			c0.336-0.97,0.504-1.936,0.504-2.9c0-0.965-0.188-1.646-0.565-2.046c-0.377-0.399-0.86-0.497-1.451-0.29
			c-0.477,0.167-0.715,0.251-1.191,0.418C153.083,129.315,152.758,131.321,152.11,135.331z M155.075,121.042
			c0.224-0.078,0.458-0.249,0.702-0.51c0.244-0.261,0.464-0.569,0.658-0.925c0.193-0.355,0.351-0.73,0.473-1.125
			c0.122-0.394,0.182-0.768,0.182-1.12c0-0.672-0.224-0.93-0.671-0.774c-0.55,0.192-0.825,0.29-1.375,0.482
			c-0.269,1.688-0.403,2.531-0.672,4.219C154.653,121.189,154.794,121.14,155.075,121.042z"/>
		<path fill="#FFFFFF" d="M167.938,133.659c-1.002,0.335-1.504,0.505-2.506,0.845c1.687-10.499,2.53-15.745,4.217-26.23
			c1.002-0.333,1.503-0.497,2.506-0.824C170.469,117.926,169.625,123.167,167.938,133.659z"/>
		<path fill="#FFFFFF" d="M186.668,103.001c-0.257,1.589-0.386,2.385-0.643,3.975c-0.868,0.248-1.301,0.373-2.169,0.627
			c-1.43,8.829-2.145,13.248-3.574,22.093c-1.002,0.305-1.503,0.46-2.506,0.773c1.43-8.856,2.145-13.28,3.575-22.121
			c-0.892,0.269-1.338,0.404-2.23,0.679c0.257-1.596,0.385-2.394,0.642-3.989C182.525,104.192,183.906,103.783,186.668,103.001z"/>
		<path fill="#FFFFFF" d="M192.718,126.175c-1.002,0.26-1.502,0.391-2.504,0.661c1.687-10.381,2.529-15.562,4.216-25.913
			c1.002-0.252,1.502-0.376,2.504-0.617C195.247,110.638,194.404,115.812,192.718,126.175z"/>
		<path fill="#FFFFFF" d="M209.869,97.632c0.731-0.125,1.36,0.028,1.888,0.456c0.527,0.428,0.961,1.018,1.297,1.767
			c0.335,0.75,0.585,1.617,0.747,2.601c0.162,0.984,0.244,1.973,0.244,2.964c0,1.568-0.188,3.333-0.564,5.292
			c-0.376,1.96-0.903,3.814-1.585,5.57c-0.681,1.756-1.5,3.274-2.455,4.559c-0.955,1.286-2,2.035-3.137,2.252
			c-0.732,0.14-1.362,0.01-1.891-0.395c-0.527-0.405-0.96-0.979-1.295-1.725c-0.335-0.747-0.585-1.606-0.747-2.58
			c-0.163-0.973-0.243-1.956-0.243-2.948c0-1.023,0.086-2.161,0.259-3.414c0.173-1.252,0.416-2.521,0.731-3.803
			c0.315-1.282,0.698-2.53,1.156-3.743s0.979-2.308,1.557-3.284c0.578-0.976,1.203-1.784,1.874-2.419
			C208.375,98.147,209.097,97.764,209.869,97.632z M209.888,101.42c-0.774,0.132-1.486,0.724-2.138,1.773
			c-0.652,1.051-1.217,2.282-1.695,3.69c-0.479,1.408-0.851,2.852-1.115,4.333c-0.265,1.48-0.397,2.735-0.397,3.761
			c0,0.449,0.025,0.934,0.076,1.453c0.051,0.52,0.142,1.008,0.274,1.463s0.311,0.819,0.535,1.097c0.225,0.277,0.52,0.38,0.887,0.31
			c0.774-0.148,1.486-0.736,2.139-1.768c0.652-1.031,1.21-2.243,1.679-3.638c0.468-1.395,0.837-2.835,1.102-4.323
			c0.265-1.486,0.397-2.744,0.397-3.771c0-0.417-0.026-0.894-0.077-1.431c-0.051-0.537-0.137-1.036-0.259-1.498
			c-0.122-0.461-0.296-0.835-0.52-1.119C210.551,101.468,210.254,101.357,209.888,101.42z"/>
		<path fill="#FFFFFF" d="M228.588,108.841c0-1.728-0.237-3.317-0.716-4.768c-0.479-1.449-1.198-2.599-2.155-3.435
			c-1.356,8.054-2.036,12.09-3.393,20.178c-1.002,0.088-1.501,0.137-2.503,0.244c1.687-10.105,2.528-15.146,4.215-25.2
			c0.591-0.045,1.186,0.114,1.787,0.477c0.601,0.363,1.167,0.851,1.697,1.465c0.529,0.614,1.012,1.313,1.45,2.096
			c0.438,0.784,0.789,1.555,1.054,2.315c0.452-2.682,0.679-4.021,1.131-6.7c1.002-0.021,1.503-0.026,2.505-0.026
			c-1.687,9.926-2.53,14.904-4.217,24.889c-1.002,0.035-1.501,0.057-2.503,0.111c0.122-0.806,0.277-1.711,0.472-2.713
			c0.193-1.001,0.376-2.017,0.55-3.049c0.173-1.032,0.319-2.061,0.441-3.091C228.525,110.605,228.588,109.673,228.588,108.841z"/>
	</g>
</g>
<g>
	<g>
		<path fill="#FFFFFF" d="M198.003,170.513c-1.317,1.138-2.705,1.774-4.166,1.897c-1.317,0.111-2.444-0.215-3.386-0.961
			c-0.941-0.745-1.71-1.753-2.303-3.012c-0.594-1.259-1.025-2.673-1.294-4.231c-0.268-1.559-0.402-3.109-0.402-4.649
			c0-1.811,0.14-3.639,0.423-5.489c0.283-1.85,0.686-3.654,1.209-5.417c0.522-1.762,1.161-3.455,1.915-5.085
			c0.754-1.629,1.59-3.152,2.508-4.559c1.052-1.613,2.29-3.076,3.693-4.405c1.402-1.328,2.92-2.112,4.551-2.364
			c1.432-0.222,2.688,0.061,3.76,0.864c1.073,0.804,1.91,1.979,2.512,3.532c-1.22,1.066-1.828,1.592-3.048,2.626
			c-0.315-0.828-0.746-1.473-1.29-1.938c-0.544-0.464-1.188-0.638-1.934-0.522c-1.116,0.173-2.177,0.784-3.179,1.835
			c-1.003,1.052-1.859,2.131-2.575,3.242c-0.771,1.196-1.473,2.501-2.103,3.92s-1.176,2.884-1.634,4.398s-0.807,3.069-1.05,4.665
			c-0.243,1.595-0.367,3.146-0.367,4.653c0,0.851,0.06,1.776,0.174,2.777s0.319,1.92,0.62,2.756
			c0.301,0.835,0.709,1.529,1.225,2.077c0.516,0.547,1.172,0.791,1.974,0.723c1.002-0.084,1.962-0.558,2.879-1.415
			c0.916-0.856,1.718-1.777,2.405-2.76c0.944,1.163,1.417,1.739,2.361,2.88C200.479,168.049,199.319,169.375,198.003,170.513z"/>
		<path fill="#FFFFFF" d="M229.157,134.167c1.028-0.362,1.91-0.373,2.652-0.027c0.742,0.347,1.353,0.914,1.824,1.702
			c0.471,0.789,0.82,1.747,1.048,2.875s0.343,2.288,0.343,3.481c0,1.888-0.265,4.076-0.792,6.563
			c-0.528,2.489-1.271,4.901-2.229,7.233s-2.105,4.412-3.448,6.229c-1.342,1.817-2.813,2.994-4.411,3.519
			c-1.028,0.337-1.913,0.31-2.655-0.074c-0.743-0.383-1.352-0.996-1.822-1.834c-0.471-0.84-0.821-1.834-1.05-2.979
			c-0.228-1.146-0.342-2.317-0.342-3.51c0-1.232,0.119-2.615,0.362-4.151s0.589-3.101,1.031-4.698
			c0.442-1.597,0.983-3.17,1.626-4.719c0.644-1.548,1.373-2.973,2.187-4.277c0.813-1.304,1.691-2.422,2.635-3.357
			C227.058,135.207,228.072,134.549,229.157,134.167z M229.184,138.72c-1.088,0.383-2.091,1.291-3.006,2.72
			c-0.917,1.43-1.712,3.045-2.385,4.848s-1.194,3.621-1.566,5.458c-0.372,1.836-0.559,3.372-0.559,4.607
			c0,0.541,0.035,1.117,0.107,1.732c0.071,0.614,0.201,1.183,0.388,1.704c0.186,0.52,0.436,0.923,0.75,1.208
			s0.729,0.346,1.245,0.177c1.088-0.357,2.088-1.246,3.005-2.662c0.916-1.415,1.706-3.033,2.364-4.849
			c0.658-1.815,1.173-3.662,1.545-5.535c0.372-1.872,0.559-3.426,0.559-4.662c0-0.502-0.036-1.068-0.107-1.699
			c-0.072-0.63-0.191-1.204-0.362-1.721c-0.172-0.518-0.42-0.914-0.734-1.187S229.699,138.538,229.184,138.72z"/>
		<path fill="#FFFFFF" d="M262.896,142.086c-0.229,1.285-0.616,2.566-1.16,3.842c-0.544,1.277-1.181,2.455-1.91,3.537
			c-0.73,1.083-1.541,2.037-2.428,2.857s-1.79,1.416-2.705,1.787c-0.803,0.325-1.555,0.435-2.255,0.335
			c-0.701-0.1-1.31-0.372-1.825-0.819c-0.516-0.446-0.914-1.075-1.2-1.882c-0.286-0.809-0.432-1.752-0.432-2.831
			c0-0.809,0.085-1.632,0.257-2.473c1.58-8.633,2.373-12.952,3.953-21.587c1.409-0.571,2.113-0.856,3.522-1.426
			c-1.684,9.158-2.527,13.737-4.211,22.896c-0.086,0.46-0.129,0.883-0.129,1.269c0,0.927,0.22,1.55,0.664,1.872
			c0.443,0.322,0.996,0.351,1.655,0.083c0.543-0.22,1.078-0.583,1.608-1.087c0.529-0.503,1.018-1.086,1.462-1.749
			c0.443-0.661,0.831-1.375,1.16-2.145s0.567-1.531,0.711-2.283c1.598-8.656,2.395-12.982,3.992-21.629
			c1.409-0.558,2.112-0.835,3.521-1.382C265.447,128.39,264.598,132.953,262.896,142.086z"/>
		<path fill="#FFFFFF" d="M282.824,113.605c1.958-0.641,2.939-0.948,4.897-1.534c0.887-0.265,1.717-0.303,2.489-0.118
			c0.773,0.186,1.446,0.577,2.02,1.174c0.572,0.597,1.021,1.366,1.352,2.301c0.329,0.935,0.494,2,0.494,3.193
			c0,1.271-0.165,2.546-0.494,3.825c-0.33,1.28-0.779,2.496-1.352,3.65c-0.573,1.156-1.24,2.234-1.998,3.238
			c-0.759,1.003-1.568,1.864-2.427,2.583c0.636,3.808,0.953,5.713,1.589,9.528c-1.392,0.401-2.087,0.61-3.479,1.041
			c-0.566-3.452-0.848-5.177-1.415-8.625c-0.91,0.29-1.368,0.438-2.278,0.738c-0.722,3.866-1.081,5.8-1.803,9.673
			c-1.408,0.478-2.112,0.723-3.521,1.224C278.87,134.866,280.844,124.235,282.824,113.605z M284.542,129.285
			c0.715-0.227,1.444-0.677,2.189-1.347c0.744-0.669,1.404-1.462,1.978-2.381c0.572-0.918,1.044-1.9,1.416-2.95
			c0.372-1.049,0.559-2.072,0.559-3.074c0-1.193-0.272-2.042-0.816-2.542s-1.244-0.624-2.104-0.368
			c-0.911,0.272-1.365,0.41-2.276,0.694c-0.928,4.958-1.392,7.44-2.319,12.41C283.718,129.547,283.992,129.459,284.542,129.285z"/>
		<path fill="#FFFFFF" d="M320.359,106.668c-0.36,1.826-0.543,2.739-0.903,4.568c-1.22,0.013-1.828,0.032-3.048,0.088
			c-2.01,10.214-3.017,15.351-5.026,25.676c-1.408,0.143-2.113,0.228-3.521,0.421c2.01-10.397,3.017-15.571,5.026-25.864
			c-1.254,0.107-1.881,0.171-3.135,0.319c0.36-1.868,0.541-2.801,0.901-4.666C314.535,106.788,316.478,106.668,320.359,106.668z"/>
	</g>
</g>
<g>
	<g>
		<path fill="#FFFFFF" d="M-302.494,88.863c-1.026,0.05-1.541,0.07-2.567,0.1c0.257-1.524,0.385-2.287,0.642-3.813
			c2.811-0.095,4.215-0.183,7.026-0.427c0.814-0.071,1.57,0.071,2.262,0.432s1.299,0.902,1.819,1.626
			c0.52,0.724,0.925,1.602,1.22,2.637c0.295,1.036,0.444,2.193,0.444,3.473c0,1.792-0.255,3.537-0.765,5.23
			s-1.181,3.215-2.016,4.553c-0.835,1.338-1.787,2.435-2.856,3.28c-1.069,0.846-2.155,1.304-3.255,1.375
			c-1.039,0.066-1.559,0.096-2.598,0.141c-1.161,6.867-1.742,10.293-2.903,17.133c-1.002,0.021-1.502,0.026-2.505,0.026
			C-306.519,112.708-304.501,100.787-302.494,88.863z M-302.463,103.645c0.782-0.039,1.173-0.06,1.955-0.11
			c0.774-0.049,1.544-0.379,2.308-0.988c0.764-0.61,1.452-1.405,2.063-2.382s1.109-2.075,1.497-3.292
			c0.387-1.217,0.58-2.455,0.58-3.711c0-1.545-0.311-2.725-0.932-3.545c-0.622-0.821-1.411-1.187-2.368-1.103
			c-1.026,0.09-1.54,0.13-2.566,0.2C-300.942,94.696-301.449,97.682-302.463,103.645z"/>
		<path fill="#FFFFFF" d="M-283.551,90.739c1.393-0.248,2.089-0.38,3.482-0.655c0.631-0.125,1.223-0.077,1.772,0.145
			s1.029,0.6,1.437,1.136c0.407,0.537,0.728,1.203,0.962,1.999c0.234,0.797,0.352,1.691,0.352,2.683
			c0,1.056-0.117,2.106-0.351,3.149c-0.234,1.044-0.555,2.027-0.962,2.946c-0.408,0.92-0.881,1.765-1.421,2.532
			c-0.54,0.769-1.116,1.406-1.727,1.911c0.452,3.232,0.679,4.846,1.131,8.076c-0.99,0.202-1.485,0.299-2.475,0.488
			c-0.403-2.938-0.604-4.406-1.008-7.346c-0.648,0.12-0.973,0.178-1.621,0.292c-0.513,3.104-0.77,4.656-1.283,7.756
			c-1.002,0.168-1.503,0.248-2.505,0.4C-286.081,106.067-285.237,100.966-283.551,90.739z M-282.328,104.005
			c0.509-0.094,1.026-0.376,1.556-0.847c0.53-0.47,0.999-1.061,1.406-1.767s0.744-1.48,1.009-2.319
			c0.265-0.838,0.396-1.672,0.396-2.505c0-0.992-0.194-1.719-0.581-2.184c-0.387-0.464-0.886-0.635-1.497-0.514
			c-0.648,0.128-0.972,0.19-1.62,0.313c-0.66,4.003-0.989,6.003-1.649,10C-282.916,104.112-282.719,104.078-282.328,104.005z"/>
		<path fill="#FFFFFF" d="M-261.481,85.557c0.731-0.208,1.362-0.132,1.89,0.226c0.528,0.359,0.959,0.889,1.294,1.59
			c0.335,0.702,0.585,1.531,0.748,2.49c0.163,0.96,0.245,1.936,0.245,2.927c0,1.568-0.188,3.362-0.564,5.377
			c-0.376,2.016-0.904,3.946-1.585,5.792c-0.681,1.846-1.5,3.465-2.455,4.854c-0.955,1.39-2.001,2.239-3.139,2.545
			c-0.732,0.197-1.362,0.11-1.89-0.264c-0.528-0.373-0.959-0.926-1.294-1.656c-0.335-0.73-0.585-1.58-0.748-2.547
			c-0.162-0.967-0.243-1.945-0.243-2.938c0-1.023,0.085-2.165,0.258-3.425c0.173-1.26,0.418-2.538,0.733-3.834
			s0.699-2.564,1.156-3.804c0.457-1.24,0.978-2.368,1.557-3.387c0.579-1.019,1.202-1.877,1.873-2.574
			C-262.974,86.233-262.253,85.776-261.481,85.557z M-261.46,89.343c-0.774,0.22-1.487,0.885-2.138,1.994
			c-0.652,1.111-1.218,2.387-1.697,3.831c-0.479,1.444-0.85,2.916-1.115,4.414c-0.265,1.498-0.396,2.76-0.396,3.786
			c0,0.449,0.024,0.932,0.076,1.447c0.05,0.517,0.141,0.999,0.274,1.445c0.132,0.446,0.311,0.799,0.535,1.061
			c0.224,0.261,0.52,0.344,0.886,0.245c0.774-0.209,1.487-0.862,2.14-1.958c0.651-1.096,1.211-2.369,1.68-3.817
			c0.468-1.449,0.836-2.935,1.101-4.456c0.265-1.52,0.397-2.793,0.397-3.821c0-0.417-0.027-0.891-0.077-1.422
			c-0.051-0.531-0.138-1.018-0.26-1.464s-0.296-0.797-0.52-1.054C-260.799,89.317-261.093,89.239-261.46,89.343z"/>
		<path fill="#FFFFFF" d="M-247.803,81.379c0.99-0.321,1.484-0.484,2.475-0.811c-0.709,4.438-1.063,6.658-1.771,11.094
			c1.283-0.418,1.925-0.629,3.208-1.057c0.709-4.441,1.063-6.661,1.772-11.104c0.99-0.333,1.485-0.5,2.475-0.837
			c-1.674,10.496-2.511,15.741-4.186,26.225c-0.99,0.33-1.484,0.492-2.474,0.816c0.697-4.433,1.043-6.648,1.74-11.084
			c-1.271,0.421-1.906,0.631-3.177,1.043c-0.721,4.439-1.082,6.656-1.803,11.092c-1.002,0.321-1.503,0.479-2.505,0.794
			C-250.351,97.09-249.501,91.856-247.803,81.379z"/>
		<path fill="#FFFFFF" d="M-233.229,101.27c-1.002,0.349-1.503,0.522-2.505,0.869c1.687-10.509,2.529-15.765,4.216-26.28
			c1.002-0.35,1.504-0.524,2.506-0.876C-230.698,85.5-231.542,90.756-233.229,101.27z"/>
		<path fill="#FFFFFF" d="M-216.027,80.076c0.031,0.278,0.755,1.13,0.979,1.916c0.224,0.787,0.335,1.645,0.335,2.573
			c0,1.536-0.25,3.084-0.75,4.65c-0.5,1.566-1.145,2.95-1.909,4.146c-0.572,0.896-1.202,1.691-1.895,2.366
			c-0.693,0.675-1.417,1.145-2.169,1.41c-1.479,0.519-2.217,0.779-3.696,1.299c1.687-10.52,2.529-15.778,4.216-26.297
			c1.295-0.455,1.943-0.681,3.239-1.134c0.428-0.149,0.83-0.17,1.207-0.062c0.377,0.109,0.703,0.331,0.978,0.667
			c0.275,0.336,0.495,0.765,0.658,1.284s0.244,1.132,0.244,1.835c0,0.929-0.133,1.854-0.398,2.778
			C-215.253,78.432-216.066,79.717-216.027,80.076z M-221.954,93.527c0.22-0.077,0.331-0.118,0.551-0.195
			c0.468-0.165,0.92-0.467,1.359-0.91c0.438-0.443,0.842-0.956,1.207-1.534c0.469-0.741,0.872-1.598,1.208-2.568
			c0.336-0.97,0.503-1.937,0.503-2.901c0-0.965-0.188-1.646-0.565-2.046c-0.377-0.399-0.861-0.496-1.451-0.29
			c-0.477,0.167-0.715,0.251-1.191,0.418C-220.982,87.511-221.306,89.518-221.954,93.527z M-218.99,79.237
			c0.224-0.078,0.458-0.248,0.703-0.51c0.244-0.261,0.464-0.568,0.658-0.924c0.193-0.355,0.351-0.731,0.473-1.126
			c0.122-0.394,0.183-0.768,0.183-1.12c0-0.672-0.224-0.93-0.672-0.773c-0.55,0.192-0.826,0.29-1.375,0.482
			c-0.269,1.688-0.402,2.53-0.671,4.218C-219.411,79.386-219.271,79.336-218.99,79.237z"/>
		<path fill="#FFFFFF" d="M-206.126,91.855c-1.002,0.335-1.503,0.504-2.506,0.844c1.687-10.499,2.53-15.744,4.217-26.229
			c1.002-0.332,1.503-0.497,2.506-0.824C-203.596,76.123-204.439,81.364-206.126,91.855z"/>
		<path fill="#FFFFFF" d="M-187.396,61.198c-0.257,1.589-0.386,2.385-0.643,3.975c-0.868,0.248-1.301,0.373-2.169,0.627
			c-1.43,8.829-2.145,13.248-3.574,22.093c-1.002,0.306-1.503,0.459-2.506,0.772c1.43-8.856,2.145-13.278,3.575-22.119
			c-0.892,0.269-1.338,0.404-2.23,0.679c0.257-1.596,0.385-2.394,0.642-3.989C-191.54,62.389-190.159,61.98-187.396,61.198z"/>
		<path fill="#FFFFFF" d="M-181.347,84.373c-1.002,0.26-1.502,0.391-2.504,0.661c1.687-10.381,2.529-15.563,4.216-25.914
			c1.002-0.252,1.504-0.376,2.506-0.617C-178.816,68.834-179.661,74.01-181.347,84.373z"/>
		<path fill="#FFFFFF" d="M-164.195,55.828c0.731-0.125,1.362,0.028,1.89,0.456c0.528,0.428,0.959,1.017,1.294,1.766
			c0.335,0.75,0.585,1.618,0.748,2.602c0.162,0.984,0.243,1.974,0.243,2.965c0,1.568-0.188,3.332-0.564,5.291
			c-0.376,1.96-0.904,3.814-1.585,5.57c-0.681,1.756-1.499,3.274-2.453,4.56c-0.955,1.286-2,2.036-3.137,2.253
			c-0.732,0.14-1.363,0.009-1.891-0.396c-0.528-0.405-0.961-0.979-1.296-1.725c-0.335-0.747-0.583-1.605-0.745-2.579
			c-0.163-0.973-0.245-1.955-0.245-2.947c0-1.023,0.086-2.162,0.259-3.415c0.173-1.252,0.416-2.521,0.731-3.803
			c0.315-1.282,0.701-2.53,1.159-3.743s0.976-2.308,1.554-3.284c0.578-0.976,1.204-1.783,1.875-2.418
			C-165.688,56.344-164.967,55.96-164.195,55.828z M-164.175,59.616c-0.774,0.132-1.488,0.724-2.14,1.773
			c-0.652,1.051-1.217,2.282-1.695,3.69c-0.479,1.408-0.853,2.854-1.117,4.335c-0.265,1.48-0.396,2.734-0.396,3.76
			c0,0.449,0.025,0.933,0.076,1.452c0.05,0.52,0.142,1.008,0.274,1.463s0.311,0.819,0.536,1.097c0.225,0.277,0.519,0.38,0.885,0.31
			c0.774-0.148,1.488-0.736,2.14-1.768c0.652-1.031,1.211-2.243,1.68-3.638c0.468-1.395,0.834-2.834,1.099-4.322
			c0.265-1.486,0.397-2.745,0.397-3.772c0-0.417-0.024-0.894-0.075-1.431c-0.051-0.537-0.137-1.036-0.259-1.498
			c-0.123-0.461-0.297-0.835-0.521-1.119C-163.515,59.665-163.809,59.554-164.175,59.616z"/>
		<path fill="#FFFFFF" d="M-145.477,67.037c0-1.728-0.241-3.318-0.72-4.769c-0.479-1.449-1.195-2.598-2.152-3.433
			c-1.356,8.054-2.035,12.09-3.392,20.178c-1.002,0.088-1.504,0.138-2.506,0.244c1.687-10.105,2.531-15.146,4.217-25.2
			c0.59-0.045,1.186,0.114,1.787,0.477c0.601,0.363,1.166,0.851,1.696,1.465c0.53,0.614,1.014,1.313,1.452,2.096
			c0.438,0.784,0.789,1.557,1.053,2.317c0.452-2.682,0.678-4.023,1.13-6.702c1.002-0.021,1.503-0.026,2.505-0.026
			c-1.687,9.926-2.53,14.905-4.216,24.889c-1.002,0.035-1.504,0.056-2.506,0.11c0.123-0.806,0.281-1.71,0.475-2.712
			c0.193-1.001,0.375-2.017,0.548-3.049c0.173-1.032,0.322-2.061,0.444-3.091C-145.538,68.801-145.477,67.869-145.477,67.037z"/>
	</g>
</g>
<g>
	<g>
		<path fill="#FFFFFF" d="M-173.41,132.283c-1.318,1.138-2.706,1.775-4.167,1.898c-1.317,0.111-2.446-0.215-3.387-0.961
			c-0.941-0.745-1.71-1.754-2.303-3.012c-0.594-1.259-1.025-2.672-1.293-4.23c-0.268-1.559-0.403-3.109-0.403-4.649
			c0-1.811,0.141-3.64,0.424-5.49c0.282-1.85,0.686-3.653,1.209-5.417c0.523-1.762,1.162-3.455,1.916-5.085
			c0.754-1.629,1.589-3.152,2.507-4.56c1.052-1.613,2.29-3.075,3.693-4.405c1.403-1.328,2.92-2.112,4.552-2.364
			c1.432-0.222,2.686,0.062,3.758,0.865c1.073,0.804,1.912,1.978,2.513,3.531c-1.22,1.066-1.831,1.591-3.05,2.625
			c-0.315-0.828-0.744-1.472-1.288-1.937c-0.544-0.464-1.188-0.637-1.933-0.522c-1.117,0.173-2.176,0.784-3.178,1.835
			c-1.002,1.052-1.861,2.131-2.577,3.242c-0.771,1.196-1.475,2.502-2.104,3.921c-0.63,1.419-1.174,2.884-1.632,4.398
			s-0.809,3.068-1.052,4.664c-0.243,1.595-0.365,3.148-0.365,4.655c0,0.851,0.057,1.775,0.172,2.776
			c0.114,1.001,0.321,1.92,0.622,2.756c0.301,0.835,0.709,1.529,1.225,2.077c0.516,0.547,1.175,0.792,1.976,0.724
			c1.002-0.084,1.961-0.559,2.878-1.415c0.916-0.856,1.717-1.778,2.405-2.761c0.945,1.163,1.417,1.74,2.361,2.881
			C-170.934,129.82-172.094,131.145-173.41,132.283z"/>
		<path fill="#FFFFFF" d="M-142.261,95.938c1.028-0.362,1.914-0.373,2.656-0.027c0.742,0.347,1.35,0.913,1.821,1.701
			c0.471,0.789,0.822,1.747,1.05,2.874s0.343,2.288,0.343,3.481c0,1.888-0.265,4.077-0.792,6.564
			c-0.528,2.489-1.271,4.902-2.228,7.234s-2.106,4.411-3.449,6.228c-1.342,1.817-2.814,2.994-4.413,3.518
			c-1.029,0.337-1.914,0.311-2.656-0.073c-0.743-0.384-1.349-0.997-1.82-1.835c-0.471-0.84-0.822-1.834-1.05-2.979
			c-0.228-1.146-0.341-2.316-0.341-3.51c0-1.232,0.12-2.616,0.363-4.151s0.585-3.102,1.028-4.699
			c0.443-1.597,0.984-3.168,1.627-4.718c0.643-1.548,1.372-2.973,2.186-4.277c0.813-1.304,1.692-2.422,2.635-3.357
			C-144.359,96.978-143.346,96.321-142.261,95.938z M-142.232,100.492c-1.088,0.383-2.091,1.291-3.006,2.719
			c-0.917,1.43-1.71,3.045-2.383,4.848s-1.196,3.621-1.567,5.458c-0.373,1.836-0.557,3.372-0.557,4.607
			c0,0.541,0.035,1.118,0.106,1.733c0.071,0.614,0.2,1.182,0.386,1.702c0.186,0.52,0.438,0.924,0.752,1.208s0.729,0.345,1.245,0.176
			c1.088-0.357,2.088-1.246,3.005-2.662c0.916-1.415,1.705-3.033,2.363-4.849c0.658-1.815,1.173-3.662,1.545-5.535
			c0.372-1.872,0.559-3.426,0.559-4.663c0-0.502-0.036-1.069-0.107-1.7c-0.072-0.63-0.193-1.203-0.364-1.72
			c-0.172-0.518-0.415-0.914-0.729-1.187S-141.717,100.31-142.232,100.492z"/>
		<path fill="#FFFFFF" d="M-108.519,103.857c-0.229,1.285-0.615,2.566-1.159,3.842c-0.544,1.277-1.182,2.455-1.911,3.537
			c-0.73,1.083-1.541,2.037-2.428,2.857s-1.789,1.416-2.705,1.787c-0.802,0.325-1.555,0.437-2.255,0.336
			c-0.701-0.1-1.31-0.374-1.825-0.821c-0.516-0.446-0.917-1.074-1.202-1.881c-0.286-0.809-0.43-1.753-0.43-2.831
			c0-0.809,0.086-1.632,0.258-2.473c1.581-8.633,2.371-12.952,3.952-21.587c1.409-0.571,2.112-0.857,3.521-1.427
			c-1.684,9.158-2.525,13.738-4.209,22.897c-0.086,0.46-0.129,0.883-0.129,1.269c0,0.927,0.22,1.55,0.665,1.872
			c0.443,0.322,0.996,0.35,1.655,0.083c0.543-0.22,1.082-0.583,1.611-1.087c0.529-0.503,1.016-1.087,1.46-1.75
			c0.443-0.661,0.829-1.375,1.158-2.146s0.566-1.529,0.71-2.281c1.598-8.656,2.396-12.982,3.994-21.629
			c1.409-0.558,2.113-0.835,3.521-1.382C-105.967,90.161-106.818,94.724-108.519,103.857z"/>
		<path fill="#FFFFFF" d="M-88.591,75.376c1.958-0.641,2.938-0.948,4.896-1.534c0.887-0.265,1.718-0.305,2.491-0.119
			c0.773,0.186,1.445,0.578,2.019,1.175c0.572,0.597,1.024,1.366,1.354,2.301c0.329,0.935,0.493,2.001,0.493,3.195
			c0,1.271-0.165,2.545-0.494,3.824c-0.33,1.28-0.78,2.496-1.353,3.651c-0.574,1.156-1.239,2.235-1.997,3.239
			c-0.759,1.003-1.568,1.862-2.427,2.581c0.635,3.808,0.954,5.715,1.589,9.529c-1.391,0.401-2.088,0.609-3.479,1.041
			c-0.567-3.452-0.849-5.177-1.416-8.625c-0.91,0.29-1.366,0.437-2.276,0.737c-0.722,3.866-1.083,5.801-1.805,9.674
			c-1.409,0.478-2.112,0.724-3.521,1.225C-92.545,96.638-90.57,86.007-88.591,75.376z M-86.873,91.056
			c0.715-0.227,1.445-0.676,2.19-1.346c0.744-0.669,1.403-1.463,1.976-2.382c0.572-0.918,1.044-1.9,1.417-2.95
			c0.372-1.049,0.559-2.072,0.559-3.074c0-1.193-0.272-2.043-0.816-2.543s-1.245-0.624-2.104-0.367
			c-0.911,0.272-1.367,0.411-2.277,0.695c-0.928,4.958-1.39,7.44-2.318,12.41C-87.697,91.32-87.423,91.231-86.873,91.056z"/>
		<path fill="#FFFFFF" d="M-51.056,68.439c-0.361,1.826-0.542,2.739-0.903,4.568c-1.22,0.013-1.827,0.032-3.047,0.088
			c-2.01,10.214-3.016,15.35-5.026,25.675c-1.409,0.143-2.113,0.229-3.521,0.422c2.01-10.397,3.015-15.571,5.024-25.864
			c-1.254,0.107-1.88,0.171-3.134,0.319c0.361-1.868,0.54-2.801,0.9-4.666C-56.88,68.56-54.938,68.439-51.056,68.439z"/>
	</g>
</g>
</svg>
